M48
METRIC,LZ,000.000
;FILE_FORMAT=3:3
;TYPE=PLATED
;Layer: PTH_Through
;EasyEDA v6.5.39, 2024-01-14 11:16:20
;7225f5b682534d558e40c38ebd35b67e,4e7111fa6b144b4da7037494b399c203,10
;Gerber Generator version 0.2
;Holesize 1 = 0.301 mm
T01C0.301
;Holesize 2 = 0.351 mm
T02C0.351
;Holesize 3 = 0.600 mm
T03C0.600
;Holesize 4 = 1.000 mm
T04C1.000
;Holesize 5 = 1.050 mm
T05C1.050
;Holesize 6 = 1.101 mm
T06C1.101
;Holesize 7 = 2.000 mm
T07C2.000
%
G05
G90
T01
X016800Y025000
X019300Y029300
X024300Y030500
X019300Y031100
X022600Y029700
X021800Y030500
X022600Y030500
X021000Y028900
X021800Y028900
X022600Y028900
X021000Y029700
X021000Y030500
X021800Y029700
X012800Y024700
X019900Y027800
X028000Y027700
X030000Y027700
X031000Y027700
X029000Y027700
X032200Y023000
X032200Y022000
X031200Y022000
X026000Y024800
X026000Y023800
X026400Y022800
X032500Y026400
X031800Y027100
X033000Y025500
X020000Y036150
X027300Y034100
X030700Y033300
X039250Y019850
X021000Y018600
X021000Y023300
X044200Y021700
X043600Y022300
X044800Y022300
X044800Y021100
X043600Y021100
X044800Y015700
X043600Y015700
X044200Y016300
X044800Y016900
X043600Y016900
X038250Y037950
X038250Y034650
X033000Y024500
X033000Y023500
X030200Y022000
X029600Y021200
X028700Y021200
X027700Y021200
X027000Y021900
X028000Y028600
X032200Y019600
X034800Y024200
X026900Y035500
X028600Y035500
X037400Y035100
X035400Y035100
X035200Y033500
X037200Y033500
X029500Y033200
X032000Y033200
X031600Y034800
X029400Y034800
X028000Y034800
X030200Y019600
X035100Y021300
X036600Y021300
X035900Y019600
X038200Y030300
X038200Y028300
X038200Y026300
X033900Y032400
X033400Y035100
X030100Y030000
X033400Y038800
X031600Y038800
X029800Y038800
X028000Y038800
X026200Y038800
X024400Y038800
X022600Y038800
X020800Y038800
X019000Y038800
X013600Y038800
X041100Y038100
X037600Y022400
X023600Y024900
X025200Y024800
X032600Y030100
X033600Y029100
X034600Y028100
X035700Y027000
X035800Y025500
X040300Y029500
X040300Y027600
X040300Y025700
X026300Y036350
X042400Y024100
X025300Y034300
X037100Y037900
X037100Y037000
X043200Y038500
T02
X011700Y033900
X011700Y029100
X013200Y037200
X042050Y035800
X039300Y025350
X038500Y022200
T03
X009375Y035825G85X010275Y035825
X009375Y027175G85X010275Y027175
X005325Y035825G85X005925Y035825
X005325Y027175G85X005925Y027175
T04
X036000Y013900
X031000Y013900
T05
X047440Y028870
X047440Y026330
X044900Y028870
X044900Y026330
X042360Y028870
X042360Y026330
T06
X047471Y033261
X044931Y033261
X047471Y035801
X044931Y035801
X047471Y038341
X044931Y038341
T07
X017500Y020500
X017500Y015500
X024500Y020500
X024500Y015500
M30
