G04 Layer: BottomLayer*
G04 EasyEDA v6.5.39, 2024-01-14 11:16:20*
G04 7225f5b682534d558e40c38ebd35b67e,4e7111fa6b144b4da7037494b399c203,10*
G04 Gerber Generator version 0.2*
G04 Scale: 100 percent, Rotated: No, Reflected: No *
G04 Dimensions in millimeters *
G04 leading zeros omitted , absolute positions ,4 integer and 5 decimal *
%FSLAX45Y45*%
%MOMM*%

%ADD10C,0.3500*%
%ADD11C,0.3000*%
%ADD12C,0.2000*%
%ADD13C,1.7000*%
%ADD14R,1.6000X1.6000*%
%ADD15C,1.6000*%
%ADD16O,1.9999959999999999X1.1999976*%
%ADD17O,1.7999964X1.1999976*%
%ADD18C,1.8000*%
%ADD19C,3.0000*%
%ADD20C,0.7000*%
%ADD21C,0.6000*%
%ADD22C,0.0176*%

%LPD*%
G36*
X3349751Y665937D02*
G01*
X3312464Y666902D01*
X3275279Y669798D01*
X3238296Y674573D01*
X3201568Y681278D01*
X3165297Y689864D01*
X3129483Y700328D01*
X3094278Y712571D01*
X3059734Y726643D01*
X3025952Y742492D01*
X2993034Y760018D01*
X2961081Y779221D01*
X2930144Y800100D01*
X2900324Y822502D01*
X2871673Y846378D01*
X2844342Y871728D01*
X2818282Y898448D01*
X2793695Y926490D01*
X2770784Y955548D01*
X2730144Y1016253D01*
X2709824Y1041603D01*
X2687929Y1065682D01*
X2664612Y1088339D01*
X2639974Y1109472D01*
X2614015Y1129080D01*
X2586939Y1147064D01*
X2558796Y1163320D01*
X2529687Y1177798D01*
X2499766Y1190447D01*
X2469083Y1201267D01*
X2437841Y1210106D01*
X2406091Y1217015D01*
X2373934Y1221994D01*
X2341575Y1224940D01*
X2309825Y1225905D01*
X1900529Y1225905D01*
X1869897Y1226870D01*
X1840280Y1229715D01*
X1810867Y1234389D01*
X1781810Y1240891D01*
X1753209Y1249222D01*
X1725168Y1259332D01*
X1697837Y1271168D01*
X1671320Y1284732D01*
X1645716Y1299921D01*
X1621078Y1316634D01*
X1597558Y1334922D01*
X1575257Y1354632D01*
X1554175Y1375714D01*
X1534515Y1398066D01*
X1516278Y1421587D01*
X1499565Y1446225D01*
X1484426Y1471879D01*
X1470914Y1498447D01*
X1459077Y1525778D01*
X1449019Y1553819D01*
X1440738Y1582420D01*
X1434287Y1611477D01*
X1429613Y1640890D01*
X1426819Y1670557D01*
X1425905Y1700530D01*
X1425905Y1799843D01*
X1424787Y1833930D01*
X1421638Y1866849D01*
X1416405Y1899462D01*
X1409141Y1931670D01*
X1399844Y1963369D01*
X1388618Y1994458D01*
X1375460Y2024735D01*
X1360373Y2054148D01*
X1343507Y2082546D01*
X1324914Y2109876D01*
X1304594Y2135936D01*
X1282700Y2160676D01*
X1259332Y2183993D01*
X1234490Y2205786D01*
X1208328Y2226005D01*
X1180998Y2244496D01*
X1152550Y2261311D01*
X1123086Y2276246D01*
X1092708Y2289302D01*
X1061618Y2300427D01*
X1029868Y2309571D01*
X997610Y2316734D01*
X964996Y2321864D01*
X932078Y2324912D01*
X899820Y2325878D01*
X800201Y2325928D01*
X769924Y2326894D01*
X740257Y2329688D01*
X710844Y2334361D01*
X681786Y2340914D01*
X653186Y2349246D01*
X625195Y2359355D01*
X597865Y2371191D01*
X571347Y2384704D01*
X545693Y2399893D01*
X521106Y2416657D01*
X497585Y2434945D01*
X475234Y2454656D01*
X454202Y2475687D01*
X434543Y2498039D01*
X416306Y2521610D01*
X399542Y2546248D01*
X384403Y2571902D01*
X370890Y2598420D01*
X359105Y2625750D01*
X349046Y2653792D01*
X340766Y2682392D01*
X334264Y2711500D01*
X329641Y2740914D01*
X326847Y2770530D01*
X325932Y2800553D01*
X325932Y3499459D01*
X326898Y3530092D01*
X329692Y3559708D01*
X334365Y3589121D01*
X340918Y3618179D01*
X349250Y3646779D01*
X359359Y3674821D01*
X371195Y3702151D01*
X384708Y3728669D01*
X399897Y3754272D01*
X416661Y3778910D01*
X434949Y3802430D01*
X454659Y3824732D01*
X475691Y3845814D01*
X498043Y3865473D01*
X521614Y3883710D01*
X546252Y3900424D01*
X571906Y3915562D01*
X598424Y3929075D01*
X625754Y3940911D01*
X653796Y3950970D01*
X682396Y3959250D01*
X711504Y3965701D01*
X740918Y3970375D01*
X770534Y3973169D01*
X800557Y3974084D01*
X4963922Y3974084D01*
X4967833Y3973322D01*
X4971084Y3971086D01*
X4973320Y3967835D01*
X4974082Y3963924D01*
X4974082Y1700530D01*
X4973116Y1669897D01*
X4970272Y1640281D01*
X4965598Y1610868D01*
X4959096Y1581810D01*
X4950764Y1553210D01*
X4940655Y1525168D01*
X4928819Y1497838D01*
X4915255Y1471320D01*
X4900066Y1445717D01*
X4883353Y1421079D01*
X4865065Y1397558D01*
X4845354Y1375257D01*
X4824272Y1354175D01*
X4801920Y1334516D01*
X4778400Y1316278D01*
X4753762Y1299565D01*
X4728108Y1284427D01*
X4701540Y1270914D01*
X4674209Y1259078D01*
X4646168Y1249019D01*
X4617567Y1240739D01*
X4588510Y1234287D01*
X4559096Y1229614D01*
X4529429Y1226820D01*
X4499457Y1225905D01*
X4390136Y1225905D01*
X4356608Y1224838D01*
X4324248Y1221740D01*
X4292092Y1216710D01*
X4260392Y1209649D01*
X4229150Y1200708D01*
X4198518Y1189786D01*
X4168597Y1177036D01*
X4139590Y1162456D01*
X4111498Y1146098D01*
X4084472Y1128014D01*
X4058615Y1108354D01*
X4033977Y1087069D01*
X4010761Y1064361D01*
X3988968Y1040231D01*
X3968292Y1014171D01*
X3929227Y955548D01*
X3905961Y926084D01*
X3881323Y898093D01*
X3855313Y871372D01*
X3827932Y846023D01*
X3799281Y822147D01*
X3769410Y799795D01*
X3738473Y778967D01*
X3706520Y759764D01*
X3673601Y742238D01*
X3639769Y726440D01*
X3605225Y712419D01*
X3570020Y700176D01*
X3534206Y689762D01*
X3497884Y681177D01*
X3461207Y674522D01*
X3424224Y669747D01*
X3387039Y666851D01*
G37*

%LPC*%
G36*
X3592728Y1274318D02*
G01*
X3607257Y1274318D01*
X3621684Y1276146D01*
X3635806Y1279804D01*
X3649319Y1285138D01*
X3662070Y1292148D01*
X3673856Y1300683D01*
X3684473Y1310690D01*
X3693769Y1321866D01*
X3701542Y1334160D01*
X3707739Y1347317D01*
X3712260Y1361186D01*
X3714953Y1375460D01*
X3715867Y1389989D01*
X3714953Y1404518D01*
X3712260Y1418793D01*
X3708755Y1429512D01*
X3708298Y1433169D01*
X3709162Y1436776D01*
X3711244Y1439824D01*
X4071823Y1800504D01*
X4076852Y1807210D01*
X4080459Y1814372D01*
X4082643Y1822043D01*
X4083405Y1830476D01*
X4083253Y2031593D01*
X4082084Y2039874D01*
X4079544Y2047493D01*
X4075633Y2054453D01*
X4070248Y2061006D01*
X3913428Y2217775D01*
X3911396Y2220671D01*
X3910533Y2224125D01*
X3910025Y2230018D01*
X3907536Y2239772D01*
X3903522Y2248966D01*
X3898036Y2257399D01*
X3891229Y2264765D01*
X3883253Y2270963D01*
X3874414Y2275738D01*
X3864914Y2278989D01*
X3855008Y2280666D01*
X3844950Y2280666D01*
X3835044Y2278989D01*
X3825544Y2275738D01*
X3816705Y2270963D01*
X3808729Y2264765D01*
X3801922Y2257399D01*
X3796436Y2248966D01*
X3792423Y2239772D01*
X3789934Y2230018D01*
X3789121Y2219960D01*
X3789934Y2209952D01*
X3792423Y2200198D01*
X3795572Y2192934D01*
X3796436Y2189073D01*
X3795725Y2185111D01*
X3793540Y2181758D01*
X3790238Y2179523D01*
X3786327Y2178710D01*
X3782415Y2179472D01*
X3779113Y2181707D01*
X3728872Y2231898D01*
X3726687Y2235200D01*
X3725926Y2239060D01*
X3725926Y2714447D01*
X3725062Y2722422D01*
X3722725Y2729585D01*
X3718915Y2736189D01*
X3715004Y2740761D01*
X3128873Y3322218D01*
X3126790Y3325164D01*
X3125876Y3328619D01*
X3125012Y3339744D01*
X3122472Y3349091D01*
X3119932Y3354628D01*
X3118967Y3358540D01*
X3119628Y3362553D01*
X3121812Y3365957D01*
X3125165Y3368243D01*
X3129127Y3369056D01*
X3309518Y3369106D01*
X3317951Y3369919D01*
X3325622Y3372256D01*
X3332683Y3376015D01*
X3339287Y3381400D01*
X3343960Y3386124D01*
X3347262Y3388309D01*
X3351123Y3389071D01*
X3789476Y3389071D01*
X3797960Y3389934D01*
X3805631Y3392220D01*
X3812692Y3396030D01*
X3819245Y3401415D01*
X3824528Y3406698D01*
X3827424Y3408730D01*
X3830828Y3409645D01*
X3834688Y3409950D01*
X3844086Y3412490D01*
X3852926Y3416604D01*
X3860901Y3422192D01*
X3867759Y3429101D01*
X3873347Y3437077D01*
X3877462Y3445865D01*
X3880002Y3455314D01*
X3880865Y3464966D01*
X3880002Y3474669D01*
X3877462Y3484118D01*
X3873347Y3492906D01*
X3867759Y3500983D01*
X3866387Y3503726D01*
X3865879Y3506774D01*
X3865879Y3753205D01*
X3866387Y3756253D01*
X3867759Y3758996D01*
X3873347Y3767074D01*
X3877462Y3775862D01*
X3880002Y3785311D01*
X3880865Y3794963D01*
X3880002Y3804665D01*
X3877462Y3814114D01*
X3873347Y3822903D01*
X3867759Y3830878D01*
X3860901Y3837787D01*
X3852926Y3843375D01*
X3845458Y3846829D01*
X3842308Y3849166D01*
X3840276Y3852468D01*
X3839616Y3856329D01*
X3840479Y3860139D01*
X3842664Y3863340D01*
X3845966Y3865473D01*
X3849776Y3866235D01*
X4098239Y3865676D01*
X4102049Y3864965D01*
X4105300Y3862832D01*
X4260748Y3711752D01*
X4263034Y3708450D01*
X4263847Y3704539D01*
X4263085Y3700576D01*
X4260850Y3697274D01*
X4207256Y3643629D01*
X4203954Y3641445D01*
X4190034Y3639007D01*
X4180535Y3635756D01*
X4171696Y3630980D01*
X4163771Y3624783D01*
X4156964Y3617417D01*
X4151477Y3608984D01*
X4147413Y3599789D01*
X4144975Y3590036D01*
X4144467Y3584244D01*
X4143552Y3580841D01*
X4141520Y3577945D01*
X3898137Y3334512D01*
X3893108Y3327806D01*
X3889552Y3320643D01*
X3887368Y3312972D01*
X3886606Y3304540D01*
X3886606Y2581402D01*
X3885895Y2577693D01*
X3883914Y2574493D01*
X3881932Y2572410D01*
X3876446Y2563977D01*
X3872433Y2554782D01*
X3869944Y2545029D01*
X3869131Y2534970D01*
X3869944Y2524963D01*
X3872433Y2515209D01*
X3876446Y2506014D01*
X3881932Y2497582D01*
X3888740Y2490216D01*
X3896715Y2484018D01*
X3905554Y2479243D01*
X3915054Y2475992D01*
X3924960Y2474315D01*
X3935018Y2474315D01*
X3944924Y2475992D01*
X3954424Y2479243D01*
X3963263Y2484018D01*
X3971239Y2490216D01*
X3978046Y2497582D01*
X3983532Y2506014D01*
X3987546Y2515209D01*
X3990035Y2524963D01*
X3990848Y2534970D01*
X3990035Y2545029D01*
X3987546Y2554782D01*
X3983532Y2563977D01*
X3978046Y2572410D01*
X3976065Y2574493D01*
X3974084Y2577693D01*
X3973423Y2581402D01*
X3973423Y3282797D01*
X3974185Y3286709D01*
X3976370Y3290011D01*
X4202734Y3516376D01*
X4206036Y3518560D01*
X4219956Y3520998D01*
X4229455Y3524250D01*
X4238294Y3529025D01*
X4246219Y3535222D01*
X4253026Y3542588D01*
X4258513Y3551021D01*
X4262577Y3560216D01*
X4265015Y3569970D01*
X4265523Y3575659D01*
X4266438Y3579063D01*
X4268470Y3582009D01*
X4345025Y3658615D01*
X4348327Y3660800D01*
X4352188Y3661562D01*
X4395470Y3661562D01*
X4399788Y3660648D01*
X4403293Y3657955D01*
X4405325Y3654044D01*
X4405477Y3649675D01*
X4403801Y3645611D01*
X4398213Y3637584D01*
X4393742Y3628948D01*
X4444187Y3628948D01*
X4444187Y3651402D01*
X4445000Y3655314D01*
X4447184Y3658615D01*
X4450486Y3660800D01*
X4454347Y3661562D01*
X4531766Y3661562D01*
X4535627Y3660800D01*
X4538929Y3658615D01*
X4541113Y3655314D01*
X4541926Y3651402D01*
X4541926Y3628948D01*
X4592370Y3628948D01*
X4587900Y3637584D01*
X4582261Y3645611D01*
X4580585Y3649675D01*
X4580788Y3654044D01*
X4582820Y3657955D01*
X4586325Y3660648D01*
X4590592Y3661562D01*
X4619599Y3661613D01*
X4627880Y3662781D01*
X4635500Y3665321D01*
X4642459Y3669233D01*
X4649012Y3674618D01*
X4701032Y3726687D01*
X4704283Y3728872D01*
X4708144Y3729634D01*
X4712106Y3728872D01*
X4725873Y3725265D01*
X4739944Y3723436D01*
X4754168Y3723436D01*
X4768240Y3725265D01*
X4782007Y3728872D01*
X4795164Y3734206D01*
X4807559Y3741165D01*
X4818938Y3749649D01*
X4829149Y3759555D01*
X4837988Y3770680D01*
X4845354Y3782822D01*
X4851095Y3795826D01*
X4855159Y3809441D01*
X4857445Y3823462D01*
X4857902Y3837635D01*
X4856530Y3851808D01*
X4853330Y3865676D01*
X4848453Y3878986D01*
X4841900Y3891584D01*
X4833721Y3903218D01*
X4824171Y3913784D01*
X4813350Y3922979D01*
X4801463Y3930700D01*
X4788662Y3936898D01*
X4775200Y3941368D01*
X4761230Y3944061D01*
X4747056Y3944975D01*
X4732883Y3944061D01*
X4718913Y3941368D01*
X4705451Y3936898D01*
X4692650Y3930700D01*
X4680712Y3922979D01*
X4669891Y3913784D01*
X4660341Y3903218D01*
X4652213Y3891584D01*
X4645660Y3878986D01*
X4640732Y3865676D01*
X4637582Y3851808D01*
X4636211Y3837635D01*
X4636668Y3823462D01*
X4638954Y3809441D01*
X4642256Y3798214D01*
X4642662Y3794607D01*
X4641799Y3791102D01*
X4639716Y3788156D01*
X4602988Y3751376D01*
X4599686Y3749192D01*
X4595774Y3748379D01*
X4587392Y3748379D01*
X4583633Y3749141D01*
X4580432Y3751173D01*
X4578197Y3754323D01*
X4577283Y3758031D01*
X4577791Y3761790D01*
X4579670Y3765143D01*
X4581906Y3767785D01*
X4589678Y3779672D01*
X4595825Y3792474D01*
X4600295Y3805986D01*
X4603038Y3819906D01*
X4603953Y3834129D01*
X4603038Y3848303D01*
X4600295Y3862222D01*
X4595825Y3875735D01*
X4589678Y3888536D01*
X4581906Y3900424D01*
X4572711Y3911244D01*
X4562195Y3920794D01*
X4550511Y3928922D01*
X4537913Y3935526D01*
X4524603Y3940403D01*
X4510735Y3943553D01*
X4496612Y3944924D01*
X4482388Y3944467D01*
X4468368Y3942232D01*
X4454753Y3938168D01*
X4441748Y3932428D01*
X4429607Y3925062D01*
X4418482Y3916172D01*
X4408627Y3906012D01*
X4400143Y3894582D01*
X4393133Y3882237D01*
X4387799Y3869029D01*
X4384192Y3855313D01*
X4382414Y3841191D01*
X4382414Y3827018D01*
X4384192Y3812895D01*
X4387799Y3799179D01*
X4393133Y3786022D01*
X4400143Y3773627D01*
X4406798Y3764635D01*
X4408627Y3760571D01*
X4408525Y3756101D01*
X4406544Y3752138D01*
X4403039Y3749395D01*
X4398670Y3748379D01*
X4351731Y3748379D01*
X4347921Y3749141D01*
X4344670Y3751275D01*
X4150309Y3940149D01*
X4142892Y3945890D01*
X4135729Y3949446D01*
X4128058Y3951681D01*
X4119626Y3952494D01*
X3668318Y3953357D01*
X3660089Y3952189D01*
X3652469Y3949649D01*
X3645509Y3945788D01*
X3638956Y3940352D01*
X3474872Y3776268D01*
X3471621Y3774084D01*
X3467760Y3773322D01*
X1366266Y3763619D01*
X1362913Y3764127D01*
X1359966Y3765753D01*
X1353261Y3770934D01*
X1344422Y3775710D01*
X1334922Y3779012D01*
X1325016Y3780637D01*
X1314958Y3780637D01*
X1305052Y3779012D01*
X1295552Y3775710D01*
X1286713Y3770934D01*
X1279753Y3765550D01*
X1276807Y3763924D01*
X1273556Y3763365D01*
X1258214Y3763314D01*
X1250086Y3762197D01*
X1242466Y3759657D01*
X1235506Y3755745D01*
X1228953Y3750360D01*
X1138174Y3659479D01*
X1133144Y3652824D01*
X1129588Y3645662D01*
X1127353Y3637991D01*
X1126591Y3629558D01*
X1126540Y3436315D01*
X1125829Y3432606D01*
X1123848Y3429406D01*
X1121968Y3427374D01*
X1116482Y3418941D01*
X1112418Y3409746D01*
X1109980Y3399993D01*
X1109472Y3394252D01*
X1108557Y3390798D01*
X1106525Y3387902D01*
X1065022Y3346348D01*
X1061720Y3344164D01*
X1057808Y3343351D01*
X902462Y3343351D01*
X897991Y3343148D01*
X894232Y3342640D01*
X890117Y3341624D01*
X886561Y3340455D01*
X882650Y3338728D01*
X879398Y3336899D01*
X875893Y3334461D01*
X872998Y3332073D01*
X869848Y3328873D01*
X798068Y3249422D01*
X793140Y3242818D01*
X789584Y3235655D01*
X787349Y3227984D01*
X786587Y3219500D01*
X786638Y3068370D01*
X787755Y3060090D01*
X790295Y3052521D01*
X794207Y3045510D01*
X799642Y3039008D01*
X870407Y2968142D01*
X877112Y2963113D01*
X884275Y2959557D01*
X891946Y2957372D01*
X900379Y2956560D01*
X1057808Y2956560D01*
X1061720Y2955798D01*
X1065022Y2953613D01*
X1106525Y2912059D01*
X1108557Y2909163D01*
X1109472Y2905709D01*
X1109980Y2899968D01*
X1112418Y2890215D01*
X1116482Y2881020D01*
X1121968Y2872587D01*
X1128776Y2865221D01*
X1136700Y2859024D01*
X1145540Y2854248D01*
X1155039Y2850997D01*
X1164996Y2849321D01*
X1175004Y2849321D01*
X1184960Y2850997D01*
X1194460Y2854248D01*
X1203299Y2859024D01*
X1211224Y2865221D01*
X1218031Y2872587D01*
X1223518Y2881020D01*
X1227582Y2890215D01*
X1230020Y2899968D01*
X1230884Y2909976D01*
X1230020Y2920034D01*
X1227582Y2929788D01*
X1223518Y2938983D01*
X1218031Y2947416D01*
X1211224Y2954782D01*
X1203299Y2960979D01*
X1194460Y2965754D01*
X1184960Y2969006D01*
X1171041Y2971444D01*
X1167739Y2973628D01*
X1109522Y3031845D01*
X1102817Y3036874D01*
X1095654Y3040430D01*
X1087983Y3042615D01*
X1079550Y3043377D01*
X922121Y3043377D01*
X918260Y3044190D01*
X914958Y3046374D01*
X876401Y3084982D01*
X874166Y3088284D01*
X873404Y3092145D01*
X873404Y3199384D01*
X874064Y3203041D01*
X876046Y3206191D01*
X918464Y3253232D01*
X921867Y3255670D01*
X926033Y3256534D01*
X1081684Y3256584D01*
X1089914Y3257753D01*
X1097534Y3260293D01*
X1104493Y3264204D01*
X1111046Y3269589D01*
X1167790Y3326333D01*
X1171092Y3328568D01*
X1184960Y3330956D01*
X1194460Y3334258D01*
X1203299Y3339033D01*
X1211224Y3345179D01*
X1218031Y3352596D01*
X1223518Y3361029D01*
X1227582Y3370224D01*
X1230020Y3379978D01*
X1230884Y3389985D01*
X1230020Y3399993D01*
X1227582Y3409746D01*
X1223518Y3418941D01*
X1218031Y3427374D01*
X1216050Y3429558D01*
X1214069Y3432759D01*
X1213358Y3436416D01*
X1213408Y3607815D01*
X1214170Y3611676D01*
X1216355Y3614978D01*
X1271219Y3669792D01*
X1274216Y3671874D01*
X1277772Y3672738D01*
X1281379Y3672332D01*
X1284630Y3670655D01*
X1286713Y3669029D01*
X1295552Y3664254D01*
X1305052Y3660952D01*
X1314958Y3659327D01*
X1325016Y3659327D01*
X1334922Y3660952D01*
X1344422Y3664254D01*
X1353261Y3669029D01*
X1360525Y3674668D01*
X1363421Y3676243D01*
X1366723Y3676802D01*
X1962912Y3679545D01*
X1967077Y3678682D01*
X1970532Y3676142D01*
X1972614Y3672433D01*
X1973021Y3668217D01*
X1971649Y3664153D01*
X1968754Y3661054D01*
X1964080Y3657752D01*
X1957222Y3650894D01*
X1951634Y3642918D01*
X1947519Y3634079D01*
X1944979Y3624681D01*
X1944116Y3614978D01*
X1944979Y3605276D01*
X1947519Y3595878D01*
X1951634Y3587038D01*
X1957222Y3579063D01*
X1964080Y3572205D01*
X1972056Y3566617D01*
X1980895Y3562502D01*
X1990293Y3559962D01*
X1999996Y3559098D01*
X2009698Y3559962D01*
X2019096Y3562502D01*
X2027936Y3566617D01*
X2035962Y3572256D01*
X2038756Y3573576D01*
X2041804Y3574084D01*
X2503830Y3574084D01*
X2507742Y3573272D01*
X2511044Y3571087D01*
X2671724Y3410458D01*
X2673705Y3407562D01*
X2674620Y3404158D01*
X2674975Y3400298D01*
X2677515Y3390900D01*
X2681630Y3382060D01*
X2687218Y3374085D01*
X2694076Y3367227D01*
X2702052Y3361639D01*
X2710891Y3357524D01*
X2720289Y3354984D01*
X2724150Y3354628D01*
X2727553Y3353714D01*
X2730449Y3351682D01*
X3436112Y2646019D01*
X3438296Y2642717D01*
X3439109Y2638856D01*
X3439109Y2461768D01*
X3438601Y2458720D01*
X3437229Y2455976D01*
X3431641Y2447899D01*
X3427526Y2439111D01*
X3424986Y2429662D01*
X3424123Y2419959D01*
X3424986Y2410307D01*
X3427526Y2400858D01*
X3431641Y2392070D01*
X3437229Y2384094D01*
X3444087Y2377186D01*
X3452063Y2371598D01*
X3460902Y2367483D01*
X3470300Y2364943D01*
X3480003Y2364130D01*
X3489706Y2364943D01*
X3499104Y2367483D01*
X3507943Y2371598D01*
X3515918Y2377186D01*
X3522776Y2384094D01*
X3528364Y2392070D01*
X3532479Y2400858D01*
X3535019Y2410307D01*
X3535883Y2419959D01*
X3535019Y2429662D01*
X3532479Y2439111D01*
X3528364Y2447899D01*
X3522726Y2455976D01*
X3521354Y2458770D01*
X3520897Y2461818D01*
X3520897Y2659481D01*
X3520084Y2667965D01*
X3517747Y2675636D01*
X3513988Y2682697D01*
X3508552Y2689250D01*
X2846120Y3351682D01*
X2843936Y3354984D01*
X2843174Y3358896D01*
X2843936Y3362756D01*
X2846120Y3366058D01*
X2849422Y3368294D01*
X2853334Y3369056D01*
X3010865Y3369056D01*
X3014827Y3368243D01*
X3018180Y3365957D01*
X3020364Y3362553D01*
X3021025Y3358540D01*
X3020060Y3354628D01*
X3017520Y3349091D01*
X3014980Y3339693D01*
X3014116Y3329990D01*
X3014980Y3320287D01*
X3017520Y3310890D01*
X3021634Y3302050D01*
X3027222Y3294075D01*
X3034080Y3287217D01*
X3042056Y3281629D01*
X3050895Y3277514D01*
X3060293Y3274974D01*
X3070250Y3274161D01*
X3074568Y3273552D01*
X3078276Y3271215D01*
X3651097Y2703017D01*
X3653282Y2699715D01*
X3654094Y2695803D01*
X3654094Y2220518D01*
X3654907Y2212543D01*
X3657244Y2205431D01*
X3661054Y2198827D01*
X3664864Y2194306D01*
X3866184Y1993087D01*
X3868521Y1989378D01*
X3869131Y1984959D01*
X3869944Y1975307D01*
X3872484Y1965858D01*
X3876598Y1957070D01*
X3882186Y1949094D01*
X3889095Y1942185D01*
X3897071Y1936597D01*
X3905859Y1932482D01*
X3915308Y1929942D01*
X3925011Y1929130D01*
X3934663Y1929942D01*
X3944112Y1932482D01*
X3952900Y1936597D01*
X3960876Y1942185D01*
X3967784Y1949094D01*
X3973372Y1957070D01*
X3977132Y1965147D01*
X3979418Y1968296D01*
X3982770Y1970328D01*
X3986580Y1970989D01*
X3990390Y1970125D01*
X3993591Y1967941D01*
X3995775Y1964689D01*
X3996486Y1960829D01*
X3996588Y1852168D01*
X3995775Y1848307D01*
X3993591Y1845005D01*
X3649878Y1501241D01*
X3646627Y1499057D01*
X3642817Y1498244D01*
X3638956Y1498955D01*
X3635806Y1500225D01*
X3621684Y1503832D01*
X3607257Y1505661D01*
X3592728Y1505661D01*
X3578301Y1503832D01*
X3564178Y1500225D01*
X3550665Y1494840D01*
X3537915Y1487830D01*
X3526129Y1479296D01*
X3515512Y1469339D01*
X3506215Y1458112D01*
X3498443Y1445818D01*
X3492246Y1432661D01*
X3487724Y1418793D01*
X3485032Y1404518D01*
X3484118Y1389989D01*
X3485032Y1375460D01*
X3487724Y1361186D01*
X3492246Y1347317D01*
X3498443Y1334160D01*
X3506215Y1321866D01*
X3515512Y1310690D01*
X3526129Y1300683D01*
X3537915Y1292148D01*
X3550665Y1285138D01*
X3564178Y1279804D01*
X3578301Y1276146D01*
G37*
G36*
X3151327Y1286256D02*
G01*
X3162096Y1292148D01*
X3173882Y1300683D01*
X3184448Y1310690D01*
X3193745Y1321866D01*
X3201568Y1334160D01*
X3203651Y1338630D01*
X3151327Y1338630D01*
G37*
G36*
X3048660Y1286256D02*
G01*
X3048660Y1338630D01*
X2996336Y1338630D01*
X2998419Y1334160D01*
X3006242Y1321866D01*
X3015538Y1310690D01*
X3026105Y1300683D01*
X3037890Y1292148D01*
G37*
G36*
X2368651Y1394256D02*
G01*
X2368651Y1468628D01*
X2294280Y1468628D01*
X2299208Y1459433D01*
X2309317Y1444447D01*
X2320899Y1430528D01*
X2333853Y1417878D01*
X2348077Y1406652D01*
X2363368Y1396898D01*
G37*
G36*
X1831339Y1394256D02*
G01*
X1836623Y1396898D01*
X1851914Y1406652D01*
X1866138Y1417878D01*
X1879092Y1430528D01*
X1890674Y1444447D01*
X1900783Y1459433D01*
X1905711Y1468628D01*
X1831339Y1468628D01*
G37*
G36*
X1668627Y1394256D02*
G01*
X1668627Y1468628D01*
X1594307Y1468628D01*
X1599184Y1459433D01*
X1609293Y1444447D01*
X1620926Y1430528D01*
X1633880Y1417878D01*
X1648104Y1406652D01*
X1663344Y1396898D01*
G37*
G36*
X2531364Y1394256D02*
G01*
X2536647Y1396898D01*
X2551887Y1406652D01*
X2566111Y1417878D01*
X2579065Y1430528D01*
X2590698Y1444447D01*
X2600807Y1459433D01*
X2605684Y1468628D01*
X2531364Y1468628D01*
G37*
G36*
X3151327Y1441348D02*
G01*
X3203651Y1441348D01*
X3201568Y1445818D01*
X3193745Y1458112D01*
X3184448Y1469339D01*
X3173882Y1479296D01*
X3162096Y1487830D01*
X3151327Y1493774D01*
G37*
G36*
X2996336Y1441348D02*
G01*
X3048660Y1441348D01*
X3048660Y1493774D01*
X3037890Y1487830D01*
X3026105Y1479296D01*
X3015538Y1469339D01*
X3006242Y1458112D01*
X2998419Y1445818D01*
G37*
G36*
X2294128Y1631340D02*
G01*
X2368651Y1631340D01*
X2368651Y1705813D01*
X2355596Y1698396D01*
X2340813Y1687931D01*
X2327249Y1675942D01*
X2314905Y1662684D01*
X2304084Y1648206D01*
X2294737Y1632661D01*
G37*
G36*
X1831339Y1631340D02*
G01*
X1905863Y1631340D01*
X1905254Y1632661D01*
X1895906Y1648206D01*
X1885086Y1662684D01*
X1872742Y1675942D01*
X1859178Y1687931D01*
X1844395Y1698396D01*
X1831339Y1705813D01*
G37*
G36*
X1594104Y1631340D02*
G01*
X1668627Y1631340D01*
X1668627Y1705813D01*
X1655572Y1698396D01*
X1640839Y1687931D01*
X1627225Y1675942D01*
X1614932Y1662684D01*
X1604060Y1648206D01*
X1594713Y1632661D01*
G37*
G36*
X2531364Y1631340D02*
G01*
X2605887Y1631340D01*
X2605278Y1632661D01*
X2595930Y1648206D01*
X2585059Y1662684D01*
X2572766Y1675942D01*
X2559151Y1687931D01*
X2544419Y1698396D01*
X2531364Y1705813D01*
G37*
G36*
X2531364Y1894281D02*
G01*
X2536647Y1896922D01*
X2551887Y1906625D01*
X2566111Y1917852D01*
X2579065Y1930501D01*
X2590698Y1944420D01*
X2600807Y1959457D01*
X2605684Y1968652D01*
X2531364Y1968652D01*
G37*
G36*
X1831339Y1894281D02*
G01*
X1836623Y1896922D01*
X1851914Y1906625D01*
X1866138Y1917852D01*
X1879092Y1930501D01*
X1890674Y1944420D01*
X1900783Y1959457D01*
X1905711Y1968652D01*
X1831339Y1968652D01*
G37*
G36*
X1668627Y1894281D02*
G01*
X1668627Y1968652D01*
X1594307Y1968652D01*
X1599184Y1959457D01*
X1609293Y1944420D01*
X1620926Y1930501D01*
X1633880Y1917852D01*
X1648104Y1906625D01*
X1663344Y1896922D01*
G37*
G36*
X2368651Y1894281D02*
G01*
X2368651Y1968652D01*
X2294280Y1968652D01*
X2299208Y1959457D01*
X2309317Y1944420D01*
X2320899Y1930501D01*
X2333853Y1917852D01*
X2348077Y1906625D01*
X2363368Y1896922D01*
G37*
G36*
X2531364Y2131364D02*
G01*
X2605887Y2131364D01*
X2605278Y2132685D01*
X2595930Y2148179D01*
X2585059Y2162657D01*
X2572766Y2175967D01*
X2559151Y2187905D01*
X2544419Y2198420D01*
X2531364Y2205786D01*
G37*
G36*
X1831339Y2131364D02*
G01*
X1905863Y2131364D01*
X1905254Y2132685D01*
X1895906Y2148179D01*
X1885086Y2162657D01*
X1872742Y2175967D01*
X1859178Y2187905D01*
X1844395Y2198420D01*
X1831339Y2205786D01*
G37*
G36*
X1594104Y2131364D02*
G01*
X1668627Y2131364D01*
X1668627Y2205786D01*
X1655572Y2198420D01*
X1640839Y2187905D01*
X1627225Y2175967D01*
X1614932Y2162657D01*
X1604060Y2148179D01*
X1594713Y2132685D01*
G37*
G36*
X2294128Y2131364D02*
G01*
X2368651Y2131364D01*
X2368651Y2205786D01*
X2355596Y2198420D01*
X2340813Y2187905D01*
X2327249Y2175967D01*
X2314905Y2162657D01*
X2304084Y2148179D01*
X2294737Y2132685D01*
G37*
G36*
X1360373Y2354072D02*
G01*
X1409446Y2354072D01*
X1417472Y2354935D01*
X1424584Y2357221D01*
X1431188Y2361082D01*
X1435658Y2364892D01*
X1701901Y2631135D01*
X1705203Y2633319D01*
X1709064Y2634081D01*
X1879447Y2634081D01*
X1887474Y2634945D01*
X1894586Y2637231D01*
X1901189Y2641041D01*
X1905660Y2644902D01*
X1981962Y2721203D01*
X1985670Y2723540D01*
X1989988Y2724150D01*
X1999691Y2724962D01*
X2009089Y2727502D01*
X2017928Y2731617D01*
X2025904Y2737205D01*
X2032762Y2744114D01*
X2038350Y2752090D01*
X2042464Y2760878D01*
X2045004Y2770327D01*
X2045868Y2779979D01*
X2045004Y2789682D01*
X2042464Y2799130D01*
X2038350Y2807919D01*
X2032762Y2815894D01*
X2025904Y2822803D01*
X2017928Y2828391D01*
X2009089Y2832506D01*
X1999691Y2835046D01*
X1989988Y2835859D01*
X1980285Y2835046D01*
X1970887Y2832506D01*
X1962048Y2828391D01*
X1954072Y2822803D01*
X1947214Y2815894D01*
X1941626Y2807919D01*
X1937512Y2799130D01*
X1934972Y2789682D01*
X1933549Y2775661D01*
X1931162Y2771952D01*
X1868119Y2708859D01*
X1864817Y2706674D01*
X1860905Y2705912D01*
X1690522Y2705912D01*
X1682546Y2705049D01*
X1675434Y2702763D01*
X1668830Y2698953D01*
X1664309Y2695092D01*
X1398117Y2428900D01*
X1394815Y2426665D01*
X1390904Y2425903D01*
X1379067Y2425903D01*
X1375206Y2426665D01*
X1371904Y2428900D01*
X1338834Y2461971D01*
X1336446Y2465628D01*
X1335024Y2479700D01*
X1332484Y2489098D01*
X1328369Y2497937D01*
X1322781Y2505913D01*
X1315923Y2512771D01*
X1307947Y2518359D01*
X1299108Y2522474D01*
X1289710Y2525014D01*
X1280007Y2525877D01*
X1270304Y2525014D01*
X1260906Y2522474D01*
X1252067Y2518359D01*
X1244092Y2512771D01*
X1237234Y2505913D01*
X1231646Y2497937D01*
X1227531Y2489098D01*
X1224991Y2479700D01*
X1224127Y2469997D01*
X1224991Y2460294D01*
X1227531Y2450896D01*
X1231646Y2442057D01*
X1237234Y2434082D01*
X1244092Y2427224D01*
X1252067Y2421636D01*
X1260906Y2417521D01*
X1270304Y2414981D01*
X1284325Y2413558D01*
X1288034Y2411171D01*
X1334211Y2364994D01*
X1340459Y2359914D01*
X1347165Y2356510D01*
X1354531Y2354529D01*
G37*
G36*
X4790287Y2527046D02*
G01*
X4823409Y2527046D01*
X4829708Y2527757D01*
X4835194Y2529687D01*
X4840071Y2532735D01*
X4844186Y2536850D01*
X4847234Y2541727D01*
X4849164Y2547213D01*
X4849876Y2553512D01*
X4849876Y2586634D01*
X4790287Y2586634D01*
G37*
G36*
X4664506Y2527046D02*
G01*
X4697628Y2527046D01*
X4697628Y2586634D01*
X4638040Y2586634D01*
X4638040Y2553512D01*
X4638751Y2547213D01*
X4640681Y2541727D01*
X4643729Y2536850D01*
X4647844Y2532735D01*
X4652721Y2529687D01*
X4658207Y2527757D01*
G37*
G36*
X4235958Y2527096D02*
G01*
X4249775Y2527960D01*
X4263339Y2530703D01*
X4276496Y2535123D01*
X4288891Y2541270D01*
X4300423Y2548940D01*
X4310837Y2558084D01*
X4319981Y2568498D01*
X4327652Y2580030D01*
X4333798Y2592425D01*
X4338218Y2605582D01*
X4340961Y2619146D01*
X4341825Y2632964D01*
X4340961Y2646781D01*
X4338218Y2660345D01*
X4333798Y2673502D01*
X4327652Y2685897D01*
X4319981Y2697429D01*
X4310837Y2707843D01*
X4300423Y2716987D01*
X4288891Y2724658D01*
X4276496Y2730804D01*
X4263339Y2735224D01*
X4249775Y2737967D01*
X4235958Y2738831D01*
X4222140Y2737967D01*
X4208576Y2735224D01*
X4195419Y2730804D01*
X4183024Y2724658D01*
X4171492Y2716987D01*
X4161078Y2707843D01*
X4151934Y2697429D01*
X4144264Y2685897D01*
X4138117Y2673502D01*
X4133697Y2660345D01*
X4130954Y2646781D01*
X4130090Y2632964D01*
X4130954Y2619146D01*
X4133697Y2605582D01*
X4138117Y2592425D01*
X4144264Y2580030D01*
X4151934Y2568498D01*
X4161078Y2558084D01*
X4171492Y2548940D01*
X4183024Y2541270D01*
X4195419Y2535123D01*
X4208576Y2530703D01*
X4222140Y2527960D01*
G37*
G36*
X4489958Y2527096D02*
G01*
X4503775Y2527960D01*
X4517339Y2530703D01*
X4530496Y2535123D01*
X4542891Y2541270D01*
X4554423Y2548940D01*
X4564837Y2558084D01*
X4573981Y2568498D01*
X4581652Y2580030D01*
X4587798Y2592425D01*
X4592218Y2605582D01*
X4594961Y2619146D01*
X4595825Y2632964D01*
X4594961Y2646781D01*
X4592218Y2660345D01*
X4587798Y2673502D01*
X4581652Y2685897D01*
X4573981Y2697429D01*
X4564837Y2707843D01*
X4554423Y2716987D01*
X4542891Y2724658D01*
X4530496Y2730804D01*
X4517339Y2735224D01*
X4503775Y2737967D01*
X4489958Y2738831D01*
X4476140Y2737967D01*
X4462576Y2735224D01*
X4449419Y2730804D01*
X4437024Y2724658D01*
X4425492Y2716987D01*
X4415078Y2707843D01*
X4405934Y2697429D01*
X4398264Y2685897D01*
X4392117Y2673502D01*
X4387697Y2660345D01*
X4384954Y2646781D01*
X4384090Y2632964D01*
X4384954Y2619146D01*
X4387697Y2605582D01*
X4392117Y2592425D01*
X4398264Y2580030D01*
X4405934Y2568498D01*
X4415078Y2558084D01*
X4425492Y2548940D01*
X4437024Y2541270D01*
X4449419Y2535123D01*
X4462576Y2530703D01*
X4476140Y2527960D01*
G37*
G36*
X1038860Y2633370D02*
G01*
X1046683Y2635097D01*
X1058164Y2639364D01*
X1068933Y2645257D01*
X1078738Y2652572D01*
X1087424Y2661259D01*
X1094740Y2671064D01*
X1100277Y2681122D01*
X1038860Y2681122D01*
G37*
G36*
X926134Y2633370D02*
G01*
X926134Y2681122D01*
X864768Y2681122D01*
X870254Y2671064D01*
X877569Y2661259D01*
X886256Y2652572D01*
X896061Y2645257D01*
X906830Y2639364D01*
X918311Y2635097D01*
G37*
G36*
X613867Y2634488D02*
G01*
X616712Y2635097D01*
X628192Y2639364D01*
X638911Y2645257D01*
X648766Y2652572D01*
X657402Y2661259D01*
X664768Y2671064D01*
X670255Y2681122D01*
X613867Y2681122D01*
G37*
G36*
X511149Y2634488D02*
G01*
X511149Y2681122D01*
X454761Y2681122D01*
X460248Y2671064D01*
X467614Y2661259D01*
X476250Y2652572D01*
X486054Y2645257D01*
X496824Y2639364D01*
X508304Y2635097D01*
G37*
G36*
X4790287Y2679293D02*
G01*
X4849876Y2679293D01*
X4849876Y2712415D01*
X4849164Y2718714D01*
X4847234Y2724200D01*
X4844186Y2729077D01*
X4840071Y2733192D01*
X4835194Y2736240D01*
X4829708Y2738170D01*
X4823409Y2738882D01*
X4790287Y2738882D01*
G37*
G36*
X4638040Y2679293D02*
G01*
X4697628Y2679293D01*
X4697628Y2738882D01*
X4664506Y2738882D01*
X4658207Y2738170D01*
X4652721Y2736240D01*
X4647844Y2733192D01*
X4643729Y2729077D01*
X4640681Y2724200D01*
X4638751Y2718714D01*
X4638040Y2712415D01*
G37*
G36*
X454761Y2753817D02*
G01*
X511149Y2753817D01*
X511149Y2800502D01*
X508304Y2799892D01*
X496824Y2795625D01*
X486054Y2789732D01*
X476250Y2782366D01*
X467614Y2773730D01*
X460248Y2763926D01*
G37*
G36*
X613867Y2753817D02*
G01*
X670255Y2753817D01*
X664768Y2763926D01*
X657402Y2773730D01*
X648766Y2782366D01*
X638911Y2789732D01*
X628192Y2795625D01*
X616712Y2799892D01*
X613867Y2800502D01*
G37*
G36*
X1038860Y2753817D02*
G01*
X1100277Y2753817D01*
X1094740Y2763926D01*
X1087424Y2773730D01*
X1078738Y2782366D01*
X1068933Y2789732D01*
X1058164Y2795625D01*
X1046683Y2799892D01*
X1038860Y2801620D01*
G37*
G36*
X864768Y2753817D02*
G01*
X926134Y2753817D01*
X926134Y2790139D01*
X926795Y2793644D01*
X928573Y2796743D01*
X931316Y2798978D01*
X934669Y2800197D01*
X945438Y2801975D01*
X954938Y2805226D01*
X963777Y2810002D01*
X971753Y2816199D01*
X978560Y2823565D01*
X984046Y2831998D01*
X988060Y2841193D01*
X990549Y2850946D01*
X991362Y2860954D01*
X990549Y2871012D01*
X988060Y2880766D01*
X984046Y2889961D01*
X978560Y2898394D01*
X971753Y2905760D01*
X963777Y2911957D01*
X954938Y2916732D01*
X945438Y2919984D01*
X935532Y2921660D01*
X925474Y2921660D01*
X915568Y2919984D01*
X906068Y2916732D01*
X897229Y2911957D01*
X889253Y2905760D01*
X882446Y2898394D01*
X876960Y2889961D01*
X872947Y2880766D01*
X870458Y2871012D01*
X869645Y2860954D01*
X870458Y2850946D01*
X872947Y2841193D01*
X876960Y2831998D01*
X882446Y2823565D01*
X889253Y2816199D01*
X897229Y2810002D01*
X898855Y2809138D01*
X902157Y2806293D01*
X903935Y2802382D01*
X903935Y2798064D01*
X902157Y2794101D01*
X898906Y2791256D01*
X896061Y2789732D01*
X886256Y2782366D01*
X877569Y2773730D01*
X870254Y2763926D01*
G37*
G36*
X4790287Y2781046D02*
G01*
X4823409Y2781046D01*
X4829708Y2781757D01*
X4835194Y2783687D01*
X4840071Y2786735D01*
X4844186Y2790850D01*
X4847234Y2795727D01*
X4849164Y2801213D01*
X4849876Y2807512D01*
X4849876Y2840634D01*
X4790287Y2840634D01*
G37*
G36*
X4664506Y2781046D02*
G01*
X4697628Y2781046D01*
X4697628Y2840634D01*
X4638040Y2840634D01*
X4638040Y2807512D01*
X4638751Y2801213D01*
X4640681Y2795727D01*
X4643729Y2790850D01*
X4647844Y2786735D01*
X4652721Y2783687D01*
X4658207Y2781757D01*
G37*
G36*
X4235958Y2781096D02*
G01*
X4249775Y2781960D01*
X4263339Y2784703D01*
X4276496Y2789123D01*
X4288891Y2795270D01*
X4300423Y2802940D01*
X4310837Y2812084D01*
X4319981Y2822498D01*
X4327652Y2834030D01*
X4333798Y2846425D01*
X4338218Y2859582D01*
X4340961Y2873146D01*
X4341825Y2886964D01*
X4340961Y2900781D01*
X4338218Y2914345D01*
X4333798Y2927502D01*
X4327652Y2939897D01*
X4319981Y2951429D01*
X4310837Y2961843D01*
X4300423Y2970987D01*
X4288891Y2978658D01*
X4276496Y2984804D01*
X4263339Y2989224D01*
X4249775Y2991967D01*
X4235958Y2992831D01*
X4222140Y2991967D01*
X4208576Y2989224D01*
X4195419Y2984804D01*
X4183024Y2978658D01*
X4171492Y2970987D01*
X4161078Y2961843D01*
X4151934Y2951429D01*
X4144264Y2939897D01*
X4138117Y2927502D01*
X4133697Y2914345D01*
X4130954Y2900781D01*
X4130090Y2886964D01*
X4130954Y2873146D01*
X4133697Y2859582D01*
X4138117Y2846425D01*
X4144264Y2834030D01*
X4151934Y2822498D01*
X4161078Y2812084D01*
X4171492Y2802940D01*
X4183024Y2795270D01*
X4195419Y2789123D01*
X4208576Y2784703D01*
X4222140Y2781960D01*
G37*
G36*
X4489958Y2781096D02*
G01*
X4503775Y2781960D01*
X4517339Y2784703D01*
X4530496Y2789123D01*
X4542891Y2795270D01*
X4554423Y2802940D01*
X4564837Y2812084D01*
X4573981Y2822498D01*
X4581652Y2834030D01*
X4587798Y2846425D01*
X4592218Y2859582D01*
X4594961Y2873146D01*
X4595825Y2886964D01*
X4594961Y2900781D01*
X4592218Y2914345D01*
X4587798Y2927502D01*
X4581652Y2939897D01*
X4573981Y2951429D01*
X4564837Y2961843D01*
X4554423Y2970987D01*
X4542891Y2978658D01*
X4530496Y2984804D01*
X4517339Y2989224D01*
X4503775Y2991967D01*
X4489958Y2992831D01*
X4476140Y2991967D01*
X4462576Y2989224D01*
X4449419Y2984804D01*
X4437024Y2978658D01*
X4425492Y2970987D01*
X4415078Y2961843D01*
X4405934Y2951429D01*
X4398264Y2939897D01*
X4392117Y2927502D01*
X4387697Y2914345D01*
X4384954Y2900781D01*
X4384090Y2886964D01*
X4384954Y2873146D01*
X4387697Y2859582D01*
X4392117Y2846425D01*
X4398264Y2834030D01*
X4405934Y2822498D01*
X4415078Y2812084D01*
X4425492Y2802940D01*
X4437024Y2795270D01*
X4449419Y2789123D01*
X4462576Y2784703D01*
X4476140Y2781960D01*
G37*
G36*
X1929993Y2874111D02*
G01*
X1939696Y2874975D01*
X1949094Y2877515D01*
X1957933Y2881630D01*
X1965909Y2887218D01*
X1972767Y2894076D01*
X1978355Y2902051D01*
X1982470Y2910890D01*
X1985010Y2920288D01*
X1985873Y2929991D01*
X1985010Y2939694D01*
X1982470Y2949092D01*
X1978355Y2957931D01*
X1972767Y2965907D01*
X1968855Y2969818D01*
X1966671Y2973120D01*
X1965909Y2976981D01*
X1965909Y3062986D01*
X1966671Y3066897D01*
X1968855Y3070199D01*
X1972767Y3074111D01*
X1978355Y3082086D01*
X1982470Y3090875D01*
X1985010Y3100324D01*
X1985873Y3109976D01*
X1985010Y3119678D01*
X1982470Y3129127D01*
X1978304Y3138068D01*
X1977389Y3142081D01*
X1978101Y3146094D01*
X1980336Y3149549D01*
X2011883Y3181096D01*
X2015185Y3183331D01*
X2019096Y3184093D01*
X2350922Y3184093D01*
X2354783Y3183331D01*
X2358085Y3181096D01*
X2391105Y3148076D01*
X2393289Y3144824D01*
X2394102Y3140913D01*
X2394102Y3096971D01*
X2393289Y3093110D01*
X2391105Y3089808D01*
X2387193Y3085896D01*
X2381605Y3077921D01*
X2377490Y3069082D01*
X2374950Y3059684D01*
X2374138Y3049981D01*
X2374950Y3040278D01*
X2377490Y3030880D01*
X2381605Y3022041D01*
X2387193Y3014065D01*
X2394102Y3007207D01*
X2402078Y3001619D01*
X2410866Y2997504D01*
X2420315Y2994964D01*
X2430018Y2994101D01*
X2439670Y2994964D01*
X2449118Y2997504D01*
X2457907Y3001619D01*
X2465882Y3007207D01*
X2472791Y3014065D01*
X2478379Y3022041D01*
X2482494Y3030880D01*
X2485034Y3040278D01*
X2485847Y3049981D01*
X2485034Y3059684D01*
X2482494Y3069082D01*
X2478379Y3077921D01*
X2472791Y3085896D01*
X2468880Y3089808D01*
X2466695Y3093110D01*
X2465882Y3096971D01*
X2465882Y3159455D01*
X2465070Y3167430D01*
X2462733Y3174593D01*
X2458923Y3181197D01*
X2455113Y3185668D01*
X2395778Y3245002D01*
X2389530Y3250082D01*
X2382824Y3253486D01*
X2375458Y3255416D01*
X2369616Y3255924D01*
X2000504Y3255924D01*
X1992528Y3255060D01*
X1985416Y3252724D01*
X1978812Y3248914D01*
X1974342Y3245104D01*
X1905000Y3175762D01*
X1899920Y3169513D01*
X1896516Y3162858D01*
X1894433Y3155086D01*
X1893417Y3152648D01*
X1891842Y3150514D01*
X1887220Y3145891D01*
X1881632Y3137916D01*
X1877517Y3129127D01*
X1874977Y3119678D01*
X1874113Y3109976D01*
X1874977Y3100324D01*
X1877517Y3090875D01*
X1881632Y3082086D01*
X1887220Y3074111D01*
X1891131Y3070148D01*
X1893316Y3066897D01*
X1894078Y3062986D01*
X1894078Y2976981D01*
X1893316Y2973120D01*
X1891131Y2969818D01*
X1887220Y2965907D01*
X1881632Y2957931D01*
X1877517Y2949092D01*
X1874977Y2939694D01*
X1874113Y2929991D01*
X1874977Y2920288D01*
X1877517Y2910890D01*
X1881632Y2902051D01*
X1887220Y2894076D01*
X1894078Y2887218D01*
X1902053Y2881630D01*
X1910892Y2877515D01*
X1920290Y2874975D01*
G37*
G36*
X4790287Y2933293D02*
G01*
X4849876Y2933293D01*
X4849876Y2966415D01*
X4849164Y2972714D01*
X4847234Y2978200D01*
X4844186Y2983077D01*
X4840071Y2987192D01*
X4835194Y2990240D01*
X4829708Y2992170D01*
X4823409Y2992882D01*
X4790287Y2992882D01*
G37*
G36*
X4638040Y2933293D02*
G01*
X4697628Y2933293D01*
X4697628Y2992882D01*
X4664506Y2992882D01*
X4658207Y2992170D01*
X4652721Y2990240D01*
X4647844Y2987192D01*
X4643729Y2983077D01*
X4640681Y2978200D01*
X4638751Y2972714D01*
X4638040Y2966415D01*
G37*
G36*
X4485944Y3215436D02*
G01*
X4500168Y3215436D01*
X4514240Y3217265D01*
X4528007Y3220872D01*
X4541164Y3226206D01*
X4553559Y3233166D01*
X4564938Y3241649D01*
X4575149Y3251555D01*
X4583988Y3262680D01*
X4591354Y3274822D01*
X4597095Y3287826D01*
X4601159Y3301441D01*
X4603445Y3315462D01*
X4603902Y3329635D01*
X4602530Y3343808D01*
X4599330Y3357676D01*
X4594453Y3370986D01*
X4587900Y3383584D01*
X4579721Y3395218D01*
X4570171Y3405784D01*
X4559350Y3414979D01*
X4547463Y3422700D01*
X4534662Y3428898D01*
X4521200Y3433368D01*
X4507230Y3436061D01*
X4493056Y3436975D01*
X4478883Y3436061D01*
X4464913Y3433368D01*
X4451451Y3428898D01*
X4438650Y3422700D01*
X4426712Y3414979D01*
X4415891Y3405784D01*
X4406341Y3395218D01*
X4398213Y3383584D01*
X4391660Y3370986D01*
X4386732Y3357676D01*
X4383582Y3343808D01*
X4382211Y3329635D01*
X4382668Y3315462D01*
X4384954Y3301441D01*
X4388967Y3287826D01*
X4394758Y3274822D01*
X4402124Y3262680D01*
X4410964Y3251555D01*
X4421174Y3241649D01*
X4432554Y3233166D01*
X4444949Y3226206D01*
X4458106Y3220872D01*
X4471873Y3217265D01*
G37*
G36*
X4739944Y3215436D02*
G01*
X4754168Y3215436D01*
X4768240Y3217265D01*
X4782007Y3220872D01*
X4795164Y3226206D01*
X4807559Y3233166D01*
X4818938Y3241649D01*
X4829149Y3251555D01*
X4837988Y3262680D01*
X4845354Y3274822D01*
X4851095Y3287826D01*
X4855159Y3301441D01*
X4857445Y3315462D01*
X4857902Y3329635D01*
X4856530Y3343808D01*
X4853330Y3357676D01*
X4848453Y3370986D01*
X4841900Y3383584D01*
X4833721Y3395218D01*
X4824171Y3405784D01*
X4813350Y3414979D01*
X4801463Y3422700D01*
X4788662Y3428898D01*
X4775200Y3433368D01*
X4761230Y3436061D01*
X4747056Y3436975D01*
X4732883Y3436061D01*
X4718913Y3433368D01*
X4705451Y3428898D01*
X4692650Y3422700D01*
X4680712Y3414979D01*
X4669891Y3405784D01*
X4660341Y3395218D01*
X4652213Y3383584D01*
X4645660Y3370986D01*
X4640732Y3357676D01*
X4637582Y3343808D01*
X4636211Y3329635D01*
X4636668Y3315462D01*
X4638954Y3301441D01*
X4642967Y3287826D01*
X4648758Y3274822D01*
X4656124Y3262680D01*
X4664964Y3251555D01*
X4675174Y3241649D01*
X4686554Y3233166D01*
X4698949Y3226206D01*
X4712106Y3220872D01*
X4725873Y3217265D01*
G37*
G36*
X925474Y3378301D02*
G01*
X935532Y3378301D01*
X945438Y3379978D01*
X954938Y3383229D01*
X963777Y3388004D01*
X971753Y3394201D01*
X978560Y3401568D01*
X984046Y3410000D01*
X988060Y3419195D01*
X990549Y3428949D01*
X991362Y3438956D01*
X990549Y3449015D01*
X988060Y3458768D01*
X984046Y3467963D01*
X978560Y3476396D01*
X971753Y3483762D01*
X963777Y3489960D01*
X954938Y3494735D01*
X945438Y3497986D01*
X934669Y3499764D01*
X931316Y3500983D01*
X928573Y3503218D01*
X926795Y3506317D01*
X926134Y3509822D01*
X926134Y3546144D01*
X864768Y3546144D01*
X870254Y3536035D01*
X877620Y3526231D01*
X886256Y3517595D01*
X896061Y3510229D01*
X898906Y3508705D01*
X902157Y3505860D01*
X903986Y3501898D01*
X903935Y3497579D01*
X902157Y3493668D01*
X898855Y3490823D01*
X897229Y3489960D01*
X889253Y3483762D01*
X882446Y3476396D01*
X876960Y3467963D01*
X872947Y3458768D01*
X870458Y3449015D01*
X869645Y3438956D01*
X870458Y3428949D01*
X872947Y3419195D01*
X876960Y3410000D01*
X882446Y3401568D01*
X889253Y3394201D01*
X897229Y3388004D01*
X906068Y3383229D01*
X915568Y3379978D01*
G37*
G36*
X4739944Y3469436D02*
G01*
X4754168Y3469436D01*
X4768240Y3471265D01*
X4782007Y3474872D01*
X4795164Y3480206D01*
X4807559Y3487165D01*
X4818938Y3495649D01*
X4829149Y3505555D01*
X4837988Y3516680D01*
X4845354Y3528822D01*
X4851095Y3541826D01*
X4855159Y3555441D01*
X4857445Y3569462D01*
X4857902Y3583635D01*
X4856530Y3597808D01*
X4853330Y3611676D01*
X4848453Y3624986D01*
X4841900Y3637584D01*
X4833721Y3649218D01*
X4824171Y3659784D01*
X4813350Y3668979D01*
X4801463Y3676700D01*
X4788662Y3682898D01*
X4775200Y3687368D01*
X4761230Y3690061D01*
X4747056Y3690975D01*
X4732883Y3690061D01*
X4718913Y3687368D01*
X4705451Y3682898D01*
X4692650Y3676700D01*
X4680712Y3668979D01*
X4669891Y3659784D01*
X4660341Y3649218D01*
X4652213Y3637584D01*
X4645660Y3624986D01*
X4640732Y3611676D01*
X4637582Y3597808D01*
X4636211Y3583635D01*
X4636668Y3569462D01*
X4638954Y3555441D01*
X4642967Y3541826D01*
X4648758Y3528822D01*
X4656124Y3516680D01*
X4664964Y3505555D01*
X4675174Y3495649D01*
X4686554Y3487165D01*
X4698949Y3480206D01*
X4712106Y3474872D01*
X4725873Y3471265D01*
G37*
G36*
X4541926Y3480612D02*
G01*
X4553559Y3487165D01*
X4564938Y3495649D01*
X4575149Y3505555D01*
X4583988Y3516680D01*
X4591354Y3528822D01*
X4592421Y3531260D01*
X4541926Y3531260D01*
G37*
G36*
X4444187Y3480612D02*
G01*
X4444187Y3531260D01*
X4393641Y3531260D01*
X4394758Y3528822D01*
X4402124Y3516680D01*
X4410964Y3505555D01*
X4421174Y3495649D01*
X4432554Y3487165D01*
G37*
G36*
X1038860Y3498392D02*
G01*
X1046683Y3500069D01*
X1058164Y3504387D01*
X1068933Y3510229D01*
X1078738Y3517595D01*
X1087424Y3526231D01*
X1094740Y3536035D01*
X1100277Y3546144D01*
X1038860Y3546144D01*
G37*
G36*
X613867Y3499459D02*
G01*
X616712Y3500069D01*
X628192Y3504387D01*
X638911Y3510229D01*
X648766Y3517595D01*
X657402Y3526231D01*
X664768Y3536035D01*
X670255Y3546144D01*
X613867Y3546144D01*
G37*
G36*
X511149Y3499459D02*
G01*
X511149Y3546144D01*
X454761Y3546144D01*
X460248Y3536035D01*
X467614Y3526231D01*
X476250Y3517595D01*
X486054Y3510229D01*
X496824Y3504387D01*
X508304Y3500069D01*
G37*
G36*
X454761Y3618839D02*
G01*
X511149Y3618839D01*
X511149Y3665524D01*
X508304Y3664915D01*
X496824Y3660597D01*
X486054Y3654755D01*
X476250Y3647389D01*
X467614Y3638702D01*
X460248Y3628898D01*
G37*
G36*
X613867Y3618839D02*
G01*
X670255Y3618839D01*
X664768Y3628898D01*
X657402Y3638702D01*
X648766Y3647389D01*
X638911Y3654755D01*
X628192Y3660597D01*
X616712Y3664915D01*
X613867Y3665524D01*
G37*
G36*
X864768Y3618839D02*
G01*
X926134Y3618839D01*
X926134Y3666591D01*
X918311Y3664915D01*
X906830Y3660597D01*
X896061Y3654755D01*
X886256Y3647389D01*
X877620Y3638702D01*
X870254Y3628898D01*
G37*
G36*
X1038860Y3618839D02*
G01*
X1100277Y3618839D01*
X1094740Y3628898D01*
X1087424Y3638702D01*
X1078738Y3647389D01*
X1068933Y3654755D01*
X1058164Y3660597D01*
X1046683Y3664915D01*
X1038860Y3666591D01*
G37*

%LPD*%
G36*
X2771851Y3450844D02*
G01*
X2768803Y3451351D01*
X2766060Y3452723D01*
X2757932Y3458362D01*
X2749092Y3462477D01*
X2739694Y3465017D01*
X2735834Y3465372D01*
X2732430Y3466287D01*
X2729534Y3468319D01*
X2713380Y3484422D01*
X2711246Y3487674D01*
X2710434Y3491433D01*
X2711094Y3495243D01*
X2713126Y3498545D01*
X2716276Y3500831D01*
X2717901Y3501593D01*
X2725877Y3507181D01*
X2729788Y3511092D01*
X2733090Y3513277D01*
X2737002Y3514090D01*
X2812999Y3514090D01*
X2816860Y3513277D01*
X2820162Y3511092D01*
X2824073Y3507181D01*
X2832049Y3501593D01*
X2840888Y3497478D01*
X2850286Y3494938D01*
X2859989Y3494125D01*
X2869692Y3494938D01*
X2879090Y3497478D01*
X2887929Y3501593D01*
X2895904Y3507181D01*
X2902762Y3514090D01*
X2908350Y3522065D01*
X2912465Y3530854D01*
X2915005Y3540302D01*
X2915869Y3549954D01*
X2915005Y3559657D01*
X2912465Y3569106D01*
X2908350Y3577894D01*
X2902762Y3585870D01*
X2895904Y3592779D01*
X2887929Y3598367D01*
X2879090Y3602482D01*
X2869692Y3605022D01*
X2859989Y3605834D01*
X2850286Y3605022D01*
X2840888Y3602482D01*
X2832049Y3598367D01*
X2824073Y3592779D01*
X2820162Y3588867D01*
X2816860Y3586683D01*
X2812999Y3585870D01*
X2737002Y3585870D01*
X2733090Y3586683D01*
X2729839Y3588867D01*
X2725877Y3592779D01*
X2717901Y3598367D01*
X2709113Y3602482D01*
X2699664Y3605022D01*
X2689961Y3605834D01*
X2680309Y3605022D01*
X2670860Y3602482D01*
X2662072Y3598367D01*
X2654096Y3592779D01*
X2647188Y3585870D01*
X2641600Y3577894D01*
X2640838Y3576269D01*
X2638552Y3573119D01*
X2635250Y3571087D01*
X2631440Y3570427D01*
X2627680Y3571240D01*
X2624429Y3573373D01*
X2554274Y3643528D01*
X2547721Y3648964D01*
X2543048Y3651961D01*
X2530144Y3664864D01*
X2527960Y3668115D01*
X2527147Y3672027D01*
X2527909Y3675887D01*
X2530144Y3679190D01*
X2533396Y3681425D01*
X2537256Y3682187D01*
X3491636Y3686606D01*
X3499916Y3687775D01*
X3507486Y3690315D01*
X3514496Y3694226D01*
X3520998Y3699611D01*
X3684930Y3863543D01*
X3688232Y3865778D01*
X3692144Y3866540D01*
X3800449Y3866337D01*
X3804259Y3865575D01*
X3807510Y3863390D01*
X3809746Y3860190D01*
X3810558Y3856380D01*
X3809898Y3852570D01*
X3807866Y3849217D01*
X3804716Y3846931D01*
X3797046Y3843375D01*
X3789070Y3837787D01*
X3782212Y3830878D01*
X3776624Y3822903D01*
X3772509Y3814114D01*
X3769969Y3804665D01*
X3769106Y3794963D01*
X3769969Y3785311D01*
X3772509Y3775862D01*
X3776624Y3767074D01*
X3782263Y3758996D01*
X3783634Y3756202D01*
X3784092Y3753154D01*
X3784092Y3506825D01*
X3783634Y3503777D01*
X3782263Y3500983D01*
X3776624Y3492906D01*
X3772509Y3484118D01*
X3770985Y3478428D01*
X3768953Y3474516D01*
X3765448Y3471875D01*
X3761130Y3470910D01*
X3330498Y3470910D01*
X3322015Y3470046D01*
X3314344Y3467760D01*
X3307283Y3463950D01*
X3300729Y3458565D01*
X3296005Y3453892D01*
X3292703Y3451656D01*
X3288842Y3450894D01*
G37*

%LPD*%
D10*
X3929989Y2534996D02*
G01*
X3929989Y3304992D01*
X4204990Y3579992D01*
X3849877Y2219960D02*
G01*
X4039870Y2029968D01*
X4039991Y1829996D01*
X3599941Y1389887D01*
X4204964Y3579873D02*
G01*
X4329993Y3704988D01*
X4119996Y3909060D01*
X3669992Y3909992D01*
X3489993Y3729992D01*
X1319987Y3719982D01*
D11*
X3824986Y3465068D02*
G01*
X3789992Y3429993D01*
X3329993Y3429993D01*
X3309993Y3409993D01*
X2729991Y3409950D01*
X2729994Y3409993D02*
G01*
X3479993Y2659994D01*
X3479993Y2419995D01*
D12*
X2689981Y3549977D02*
G01*
X2859986Y3549977D01*
X2859989Y3549980D01*
D11*
X3824993Y3794993D02*
G01*
X3824993Y3464994D01*
D12*
X3925061Y1985010D02*
G01*
X3689992Y2219995D01*
X3689992Y2714993D01*
X3070097Y3329939D01*
X1279997Y2469995D02*
G01*
X1359997Y2389995D01*
X1409997Y2389995D01*
X1689996Y2669994D01*
X1879996Y2669994D01*
X1989996Y2779994D01*
D10*
X1169926Y3389884D02*
G01*
X1170000Y3629992D01*
X1259989Y3719982D01*
X1319987Y3719982D01*
D12*
X1929996Y3109993D02*
G01*
X1929996Y2929994D01*
X2429995Y3049993D02*
G01*
X2429995Y3159993D01*
X2369995Y3219993D01*
X1999995Y3219993D01*
X1929996Y3149993D01*
X1929996Y3109993D01*
D10*
X1169923Y2910078D02*
G01*
X1080007Y2999994D01*
X899921Y2999994D01*
X829998Y3069993D01*
X829998Y3219993D01*
X902207Y3299968D01*
X1080007Y3299968D01*
X1169923Y3389884D01*
X4746980Y3834003D02*
G01*
X4617968Y3704991D01*
X4329991Y3704991D01*
X4204992Y3579992D01*
D11*
X2729991Y3409993D02*
G01*
X2525006Y3614978D01*
X1999995Y3614978D01*
D13*
G01*
X4747056Y3326104D03*
G01*
X4493056Y3326104D03*
G01*
X4747056Y3580104D03*
G01*
X4493056Y3580104D03*
G01*
X4747056Y3834104D03*
G01*
X4493056Y3834104D03*
D14*
G01*
X4743958Y2886963D03*
G01*
X4743958Y2632963D03*
D15*
G01*
X4489958Y2886963D03*
G01*
X4489958Y2632963D03*
G01*
X4235958Y2886963D03*
G01*
X4235958Y2632963D03*
D16*
G01*
X982522Y3582492D03*
G01*
X982522Y2717495D03*
D17*
G01*
X562508Y3582492D03*
G01*
X562508Y2717495D03*
D18*
G01*
X3599992Y1390014D03*
G01*
X3099993Y1390014D03*
D19*
G01*
X1750009Y2049983D03*
G01*
X1750009Y1549984D03*
G01*
X2450007Y2049983D03*
G01*
X2450007Y1549984D03*
D20*
G01*
X1170000Y3389985D03*
G01*
X1170000Y2910001D03*
G01*
X1319987Y3719982D03*
D21*
G01*
X1680006Y2499995D03*
G01*
X1929993Y2929991D03*
G01*
X2429992Y3049981D03*
G01*
X1929993Y3110001D03*
G01*
X2259990Y2969996D03*
G01*
X2180005Y3049981D03*
G01*
X2259990Y3049981D03*
G01*
X2099995Y2889986D03*
G01*
X2180005Y2889986D03*
G01*
X2259990Y2889986D03*
G01*
X2099995Y2969996D03*
G01*
X2099995Y3049981D03*
G01*
X2179980Y2969996D03*
G01*
X1280007Y2469997D03*
G01*
X1989988Y2780004D03*
G01*
X2799994Y2769996D03*
G01*
X2999993Y2769996D03*
G01*
X3099993Y2769996D03*
G01*
X2899994Y2769996D03*
G01*
X3219983Y2299995D03*
G01*
X3219983Y2199995D03*
G01*
X3119983Y2199995D03*
G01*
X2599994Y2480005D03*
G01*
X2599994Y2380005D03*
G01*
X2639999Y2280005D03*
G01*
X3250006Y2639999D03*
G01*
X3180003Y2710002D03*
G01*
X3299993Y2549982D03*
G01*
X1999995Y3614978D03*
G01*
X2729991Y3410000D03*
G01*
X3069996Y3329990D03*
G01*
X3924985Y1984984D03*
G01*
X2099995Y1859991D03*
G01*
X2099995Y2329992D03*
G01*
X4419981Y2169998D03*
G01*
X4359986Y2229993D03*
G01*
X4480001Y2229993D03*
G01*
X4480001Y2110003D03*
G01*
X4359986Y2110003D03*
G01*
X4480001Y1569999D03*
G01*
X4359986Y1569999D03*
G01*
X4419981Y1629994D03*
G01*
X4480001Y1689988D03*
G01*
X4359986Y1689988D03*
D20*
G01*
X4204995Y3580003D03*
D21*
G01*
X3824986Y3794988D03*
G01*
X3824986Y3464991D03*
G01*
X3299993Y2449982D03*
G01*
X3299993Y2349982D03*
G01*
X3019983Y2199995D03*
G01*
X2959988Y2119985D03*
G01*
X2869996Y2119985D03*
G01*
X2769997Y2119985D03*
G01*
X2699994Y2189987D03*
G01*
X2799994Y2859989D03*
D20*
G01*
X3929989Y2534996D03*
G01*
X3849979Y2219985D03*
D21*
G01*
X3219983Y1959990D03*
G01*
X3480003Y2419985D03*
G01*
X2689986Y3549980D03*
G01*
X2859989Y3549980D03*
G01*
X3739997Y3510000D03*
G01*
X3539997Y3510000D03*
G01*
X3519982Y3349980D03*
G01*
X3719982Y3349980D03*
G01*
X2949981Y3319983D03*
G01*
X3199993Y3319983D03*
G01*
X3159988Y3480003D03*
G01*
X2939999Y3480003D03*
G01*
X2799994Y3480003D03*
G01*
X3019983Y1959990D03*
G01*
X3510000Y2129993D03*
G01*
X3659987Y2129993D03*
G01*
X3589985Y1959990D03*
G01*
X3819982Y3029991D03*
G01*
X3819982Y2829991D03*
G01*
X3819982Y2629992D03*
G01*
X3389985Y3239998D03*
G01*
X3339998Y3510000D03*
G01*
X3010001Y2999994D03*
G01*
X3339998Y3880002D03*
G01*
X3159988Y3880002D03*
G01*
X2980004Y3880002D03*
G01*
X2799994Y3880002D03*
G01*
X2619984Y3880002D03*
G01*
X2440000Y3880002D03*
G01*
X2259990Y3880002D03*
G01*
X2080006Y3880002D03*
G01*
X1899996Y3880002D03*
G01*
X1359992Y3880002D03*
G01*
X4109999Y3810000D03*
G01*
X3759987Y2240000D03*
G01*
X2359990Y2489987D03*
G01*
X2519984Y2480005D03*
G01*
X3259988Y3010001D03*
G01*
X3359988Y2910001D03*
G01*
X3459988Y2810002D03*
G01*
X3569995Y2699994D03*
G01*
X3580002Y2549982D03*
G01*
X4029989Y2949981D03*
G01*
X4029989Y2759989D03*
G01*
X4029989Y2569997D03*
G01*
X2629992Y3634994D03*
G01*
X4239996Y2410002D03*
G01*
X2529992Y3429990D03*
G01*
X3710000Y3789984D03*
G01*
X3710000Y3699992D03*
G01*
X4319981Y3849979D03*
M02*
