G04 Layer: TopPasteMaskLayer*
G04 EasyEDA v6.5.39, 2024-01-14 11:16:20*
G04 7225f5b682534d558e40c38ebd35b67e,4e7111fa6b144b4da7037494b399c203,10*
G04 Gerber Generator version 0.2*
G04 Scale: 100 percent, Rotated: No, Reflected: No *
G04 Dimensions in millimeters *
G04 leading zeros omitted , absolute positions ,4 integer and 5 decimal *
%FSLAX45Y45*%
%MOMM*%

%AMMACRO1*21,1,$1,$2,0,0,$3*%
%ADD10R,0.4900X1.1570*%
%ADD11R,0.4900X1.1750*%
%ADD12R,1.7000X1.0000*%
%ADD13MACRO1,0.5999X0.28X-45.0000*%
%ADD14MACRO1,0.6001X0.28X-44.9829*%
%ADD15MACRO1,0.6001X0.2802X-44.9829*%
%ADD16MACRO1,0.2999X1.7001X135.0000*%
%ADD17R,1.2500X0.7000*%
%ADD18R,1.4000X1.2000*%
%ADD19R,0.0141X1.2000*%

%LPD*%
G36*
X982522Y3039973D02*
G01*
X982522Y3010001D01*
X1092504Y3010001D01*
X1092504Y3039973D01*
G37*
G36*
X982522Y2989986D02*
G01*
X982522Y2959963D01*
X1092504Y2959963D01*
X1092504Y2989986D01*
G37*
G36*
X982522Y3500018D02*
G01*
X982522Y3439972D01*
X1092504Y3439972D01*
X1092504Y3500018D01*
G37*
G36*
X982522Y3090011D02*
G01*
X982522Y3059988D01*
X1092504Y3059988D01*
X1092504Y3090011D01*
G37*
G36*
X982522Y2939999D02*
G01*
X982522Y2879953D01*
X1092504Y2879953D01*
X1092504Y2939999D01*
G37*
G36*
X982522Y2859989D02*
G01*
X982522Y2799994D01*
X1092504Y2799994D01*
X1092504Y2859989D01*
G37*
G36*
X982522Y3139998D02*
G01*
X982522Y3109976D01*
X1092504Y3109976D01*
X1092504Y3139998D01*
G37*
G36*
X982522Y3189986D02*
G01*
X982522Y3160014D01*
X1092504Y3160014D01*
X1092504Y3189986D01*
G37*
G36*
X982522Y3420008D02*
G01*
X982522Y3359962D01*
X1092504Y3359962D01*
X1092504Y3420008D01*
G37*
G36*
X982522Y3239973D02*
G01*
X982522Y3210001D01*
X1092504Y3210001D01*
X1092504Y3239973D01*
G37*
G36*
X982522Y3289960D02*
G01*
X982522Y3259988D01*
X1092504Y3259988D01*
X1092504Y3289960D01*
G37*
G36*
X982522Y3339998D02*
G01*
X982522Y3309975D01*
X1092504Y3309975D01*
X1092504Y3339998D01*
G37*
G36*
X942492Y2777490D02*
G01*
X936548Y2777185D01*
X930605Y2776321D01*
X924814Y2774848D01*
X919226Y2772765D01*
X913790Y2770174D01*
X908710Y2767076D01*
X903935Y2763469D01*
X899566Y2759405D01*
X895603Y2754884D01*
X892098Y2750058D01*
X889101Y2744876D01*
X886663Y2739440D01*
X884732Y2733751D01*
X883412Y2727909D01*
X882700Y2721965D01*
X882548Y2716022D01*
X882954Y2710027D01*
X884021Y2704134D01*
X885647Y2698394D01*
X887831Y2692806D01*
X890574Y2687472D01*
X893775Y2682494D01*
X897534Y2677820D01*
X901700Y2673502D01*
X906271Y2669692D01*
X911250Y2666288D01*
X916482Y2663444D01*
X921969Y2661107D01*
X927709Y2659329D01*
X933551Y2658160D01*
X939546Y2657551D01*
X1022502Y2657500D01*
X1028496Y2657805D01*
X1034389Y2658668D01*
X1040180Y2660142D01*
X1045819Y2662224D01*
X1051204Y2664815D01*
X1056284Y2667914D01*
X1061059Y2671521D01*
X1065479Y2675585D01*
X1069441Y2680106D01*
X1072896Y2684932D01*
X1075893Y2690114D01*
X1078382Y2695600D01*
X1080262Y2701239D01*
X1081582Y2707081D01*
X1082344Y2713024D01*
X1082497Y2718968D01*
X1082040Y2724962D01*
X1081024Y2730855D01*
X1079398Y2736596D01*
X1077214Y2742184D01*
X1074470Y2747518D01*
X1071219Y2752496D01*
X1067511Y2757170D01*
X1063294Y2761488D01*
X1058722Y2765348D01*
X1053795Y2768701D01*
X1048562Y2771546D01*
X1043025Y2773883D01*
X1037336Y2775661D01*
X1031443Y2776829D01*
X1025499Y2777439D01*
G37*
G36*
X942492Y3642512D02*
G01*
X936548Y3642207D01*
X930605Y3641293D01*
X924814Y3639820D01*
X919226Y3637787D01*
X913790Y3635197D01*
X908710Y3632047D01*
X903935Y3628440D01*
X899566Y3624376D01*
X895603Y3619906D01*
X892098Y3615029D01*
X889101Y3609848D01*
X886663Y3604412D01*
X884732Y3598722D01*
X883412Y3592931D01*
X882700Y3586987D01*
X882548Y3580993D01*
X882954Y3575050D01*
X884021Y3569157D01*
X885647Y3563365D01*
X887831Y3557828D01*
X890574Y3552494D01*
X893775Y3547465D01*
X897534Y3542792D01*
X901700Y3538524D01*
X906271Y3534664D01*
X911250Y3531311D01*
X916482Y3528415D01*
X921969Y3526129D01*
X927709Y3524351D01*
X933551Y3523183D01*
X939546Y3522573D01*
X1022502Y3522472D01*
X1028496Y3522776D01*
X1034389Y3523691D01*
X1040180Y3525164D01*
X1045819Y3527196D01*
X1051204Y3529787D01*
X1056284Y3532936D01*
X1061059Y3536543D01*
X1065479Y3540607D01*
X1069441Y3545078D01*
X1072896Y3549954D01*
X1075893Y3555136D01*
X1078382Y3560572D01*
X1080262Y3566261D01*
X1081582Y3572052D01*
X1082344Y3577996D01*
X1082497Y3583990D01*
X1082040Y3589934D01*
X1081024Y3595827D01*
X1079398Y3601618D01*
X1077214Y3607155D01*
X1074470Y3612489D01*
X1071219Y3617518D01*
X1067511Y3622192D01*
X1063294Y3626459D01*
X1058722Y3630320D01*
X1053795Y3633673D01*
X1048562Y3636568D01*
X1043025Y3638854D01*
X1037336Y3640632D01*
X1031443Y3641801D01*
X1025499Y3642410D01*
G37*
G36*
X547471Y3642512D02*
G01*
X541528Y3642207D01*
X535584Y3641293D01*
X529793Y3639820D01*
X524205Y3637787D01*
X518820Y3635197D01*
X513689Y3632047D01*
X508914Y3628440D01*
X504545Y3624376D01*
X500583Y3619906D01*
X497078Y3615029D01*
X494080Y3609848D01*
X491642Y3604412D01*
X489712Y3598722D01*
X488391Y3592931D01*
X487680Y3586987D01*
X487527Y3580993D01*
X487934Y3575050D01*
X489000Y3569157D01*
X490626Y3563365D01*
X492810Y3557828D01*
X495554Y3552494D01*
X498754Y3547465D01*
X502513Y3542792D01*
X506679Y3538524D01*
X511251Y3534664D01*
X516229Y3531311D01*
X521462Y3528415D01*
X526948Y3526129D01*
X532688Y3524351D01*
X538530Y3523183D01*
X544525Y3522573D01*
X577494Y3522472D01*
X583488Y3522776D01*
X589381Y3523691D01*
X595172Y3525164D01*
X600811Y3527196D01*
X606196Y3529787D01*
X611276Y3532936D01*
X616051Y3536543D01*
X620471Y3540607D01*
X624382Y3545078D01*
X627888Y3549954D01*
X630885Y3555136D01*
X633323Y3560572D01*
X635254Y3566261D01*
X636574Y3572052D01*
X637336Y3577996D01*
X637489Y3583990D01*
X637032Y3589934D01*
X636016Y3595827D01*
X634390Y3601618D01*
X632206Y3607155D01*
X629462Y3612489D01*
X626211Y3617518D01*
X622503Y3622192D01*
X618286Y3626459D01*
X613714Y3630320D01*
X608787Y3633673D01*
X603504Y3636568D01*
X598017Y3638854D01*
X592277Y3640632D01*
X586435Y3641801D01*
X580491Y3642410D01*
G37*
G36*
X547471Y2777490D02*
G01*
X541528Y2777185D01*
X535584Y2776321D01*
X529793Y2774848D01*
X524205Y2772765D01*
X518820Y2770174D01*
X513689Y2767076D01*
X508914Y2763469D01*
X504545Y2759405D01*
X500583Y2754884D01*
X497078Y2750058D01*
X494080Y2744876D01*
X491642Y2739440D01*
X489712Y2733751D01*
X488391Y2727909D01*
X487680Y2721965D01*
X487527Y2716022D01*
X487934Y2710027D01*
X489000Y2704134D01*
X490626Y2698394D01*
X492810Y2692806D01*
X495554Y2687472D01*
X498754Y2682494D01*
X502513Y2677820D01*
X506679Y2673502D01*
X511251Y2669692D01*
X516229Y2666288D01*
X521462Y2663444D01*
X526948Y2661107D01*
X532688Y2659329D01*
X538530Y2658160D01*
X544525Y2657551D01*
X577494Y2657500D01*
X583488Y2657805D01*
X589381Y2658668D01*
X595172Y2660142D01*
X600811Y2662224D01*
X606196Y2664815D01*
X611276Y2667914D01*
X616051Y2671521D01*
X620471Y2675585D01*
X624382Y2680106D01*
X627888Y2684932D01*
X630885Y2690114D01*
X633323Y2695600D01*
X635254Y2701239D01*
X636574Y2707081D01*
X637336Y2713024D01*
X637489Y2718968D01*
X637032Y2724962D01*
X636016Y2730855D01*
X634390Y2736596D01*
X632206Y2742184D01*
X629462Y2747518D01*
X626211Y2752496D01*
X622503Y2757170D01*
X618286Y2761488D01*
X613714Y2765348D01*
X608787Y2768701D01*
X603504Y2771546D01*
X598017Y2773883D01*
X592277Y2775661D01*
X586435Y2776829D01*
X580491Y2777439D01*
G37*
G36*
X2807004Y2237486D02*
G01*
X2801975Y2232507D01*
X2801975Y2187498D01*
X2807004Y2182520D01*
X2855010Y2182520D01*
X2861970Y2187498D01*
X2861970Y2232507D01*
X2855010Y2237486D01*
G37*
G36*
X2904998Y2237486D02*
G01*
X2897987Y2232507D01*
X2897987Y2187498D01*
X2904998Y2182520D01*
X2953004Y2182520D01*
X2957982Y2187498D01*
X2957982Y2232507D01*
X2953004Y2237486D01*
G37*
G36*
X3187496Y2547975D02*
G01*
X3182518Y2542997D01*
X3182518Y2494991D01*
X3187496Y2487980D01*
X3232505Y2487980D01*
X3237484Y2494991D01*
X3237484Y2542997D01*
X3232505Y2547975D01*
G37*
G36*
X3187496Y2452014D02*
G01*
X3182518Y2445004D01*
X3182518Y2396998D01*
X3187496Y2392019D01*
X3232505Y2392019D01*
X3237484Y2396998D01*
X3237484Y2445004D01*
X3232505Y2452014D01*
G37*
G36*
X3056991Y3257499D02*
G01*
X3052013Y3252470D01*
X3052013Y3207512D01*
X3056991Y3202482D01*
X3104997Y3202482D01*
X3112008Y3207512D01*
X3112008Y3252470D01*
X3104997Y3257499D01*
G37*
G36*
X3154984Y3257499D02*
G01*
X3147974Y3252470D01*
X3147974Y3207512D01*
X3154984Y3202482D01*
X3202990Y3202482D01*
X3207969Y3207512D01*
X3207969Y3252470D01*
X3202990Y3257499D01*
G37*
G36*
X1505000Y3357473D02*
G01*
X1497990Y3352495D01*
X1497990Y3307486D01*
X1505000Y3302508D01*
X1553006Y3302508D01*
X1557985Y3307486D01*
X1557985Y3352495D01*
X1553006Y3357473D01*
G37*
G36*
X1407007Y3357473D02*
G01*
X1401978Y3352495D01*
X1401978Y3307486D01*
X1407007Y3302508D01*
X1455013Y3302508D01*
X1462024Y3307486D01*
X1462024Y3352495D01*
X1455013Y3357473D01*
G37*
G36*
X1134973Y2607513D02*
G01*
X1128014Y2602484D01*
X1128014Y2557475D01*
X1134973Y2552496D01*
X1182979Y2552496D01*
X1188008Y2557475D01*
X1188008Y2602484D01*
X1182979Y2607513D01*
G37*
G36*
X1036980Y2607513D02*
G01*
X1032002Y2602484D01*
X1032002Y2557475D01*
X1036980Y2552496D01*
X1084986Y2552496D01*
X1091996Y2557475D01*
X1091996Y2602484D01*
X1084986Y2607513D01*
G37*
G36*
X2776982Y3087471D02*
G01*
X2772003Y3082493D01*
X2772003Y3037484D01*
X2776982Y3032506D01*
X2824988Y3032506D01*
X2831998Y3037484D01*
X2831998Y3082493D01*
X2824988Y3087471D01*
G37*
G36*
X2874975Y3087471D02*
G01*
X2868015Y3082493D01*
X2868015Y3037484D01*
X2874975Y3032506D01*
X2922981Y3032506D01*
X2928010Y3037484D01*
X2928010Y3082493D01*
X2922981Y3087471D01*
G37*
G36*
X1424990Y2837484D02*
G01*
X1417980Y2832506D01*
X1417980Y2787497D01*
X1424990Y2782519D01*
X1472996Y2782519D01*
X1477975Y2787497D01*
X1477975Y2832506D01*
X1472996Y2837484D01*
G37*
G36*
X1326997Y2837484D02*
G01*
X1322019Y2832506D01*
X1322019Y2787497D01*
X1326997Y2782519D01*
X1375003Y2782519D01*
X1382014Y2787497D01*
X1382014Y2832506D01*
X1375003Y2837484D01*
G37*
G36*
X1424990Y2957474D02*
G01*
X1417980Y2952496D01*
X1417980Y2907487D01*
X1424990Y2902508D01*
X1472996Y2902508D01*
X1477975Y2907487D01*
X1477975Y2952496D01*
X1472996Y2957474D01*
G37*
G36*
X1326997Y2957474D02*
G01*
X1322019Y2952496D01*
X1322019Y2907487D01*
X1326997Y2902508D01*
X1375003Y2902508D01*
X1382014Y2907487D01*
X1382014Y2952496D01*
X1375003Y2957474D01*
G37*
G36*
X1867001Y3517493D02*
G01*
X1861972Y3512515D01*
X1861972Y3467506D01*
X1867001Y3462477D01*
X1915007Y3462477D01*
X1921967Y3467506D01*
X1921967Y3512515D01*
X1915007Y3517493D01*
G37*
G36*
X1964994Y3517493D02*
G01*
X1957984Y3512515D01*
X1957984Y3467506D01*
X1964994Y3462477D01*
X2013000Y3462477D01*
X2017979Y3467506D01*
X2017979Y3512515D01*
X2013000Y3517493D01*
G37*
G36*
X2776982Y2977489D02*
G01*
X2772003Y2972511D01*
X2772003Y2927502D01*
X2776982Y2922473D01*
X2824988Y2922473D01*
X2831998Y2927502D01*
X2831998Y2972511D01*
X2824988Y2977489D01*
G37*
G36*
X2874975Y2977489D02*
G01*
X2868015Y2972511D01*
X2868015Y2927502D01*
X2874975Y2922473D01*
X2922981Y2922473D01*
X2928010Y2927502D01*
X2928010Y2972511D01*
X2922981Y2977489D01*
G37*
G36*
X2210003Y3517493D02*
G01*
X2202992Y3512515D01*
X2202992Y3467506D01*
X2210003Y3462477D01*
X2258009Y3462477D01*
X2262987Y3467506D01*
X2262987Y3512515D01*
X2258009Y3517493D01*
G37*
G36*
X2112010Y3517493D02*
G01*
X2106980Y3512515D01*
X2106980Y3467506D01*
X2112010Y3462477D01*
X2160016Y3462477D01*
X2166975Y3467506D01*
X2166975Y3512515D01*
X2160016Y3517493D01*
G37*
G36*
X2164994Y2477516D02*
G01*
X2157984Y2472486D01*
X2157984Y2427478D01*
X2164994Y2422499D01*
X2213000Y2422499D01*
X2217978Y2427478D01*
X2217978Y2472486D01*
X2213000Y2477516D01*
G37*
G36*
X2067001Y2477516D02*
G01*
X2061972Y2472486D01*
X2061972Y2427478D01*
X2067001Y2422499D01*
X2115007Y2422499D01*
X2122017Y2427478D01*
X2122017Y2472486D01*
X2115007Y2477516D01*
G37*
G36*
X1857502Y2468016D02*
G01*
X1852523Y2462987D01*
X1852523Y2414981D01*
X1857502Y2408021D01*
X1902510Y2408021D01*
X1907489Y2414981D01*
X1907489Y2462987D01*
X1902510Y2468016D01*
G37*
G36*
X1857502Y2372004D02*
G01*
X1852523Y2364994D01*
X1852523Y2316988D01*
X1857502Y2312009D01*
X1902510Y2312009D01*
X1907489Y2316988D01*
X1907489Y2364994D01*
X1902510Y2372004D01*
G37*
G36*
X1677517Y3351987D02*
G01*
X1672488Y3344976D01*
X1672488Y3296970D01*
X1677517Y3291992D01*
X1722475Y3291992D01*
X1727504Y3296970D01*
X1727504Y3344976D01*
X1722475Y3351987D01*
G37*
G36*
X1677517Y3447999D02*
G01*
X1672488Y3442970D01*
X1672488Y3395014D01*
X1677517Y3388004D01*
X1722475Y3388004D01*
X1727504Y3395014D01*
X1727504Y3442970D01*
X1722475Y3447999D01*
G37*
G36*
X1397508Y3738016D02*
G01*
X1392478Y3732987D01*
X1392478Y3684981D01*
X1397508Y3677970D01*
X1442516Y3677970D01*
X1447495Y3684981D01*
X1447495Y3732987D01*
X1442516Y3738016D01*
G37*
G36*
X1397508Y3642004D02*
G01*
X1392478Y3634994D01*
X1392478Y3586987D01*
X1397508Y3582009D01*
X1442516Y3582009D01*
X1447495Y3586987D01*
X1447495Y3634994D01*
X1442516Y3642004D01*
G37*
G36*
X1872488Y3652012D02*
G01*
X1867509Y3645001D01*
X1867509Y3596995D01*
X1872488Y3591966D01*
X1917496Y3591966D01*
X1922475Y3596995D01*
X1922475Y3645001D01*
X1917496Y3652012D01*
G37*
G36*
X1872488Y3747973D02*
G01*
X1867509Y3742994D01*
X1867509Y3694988D01*
X1872488Y3687978D01*
X1917496Y3687978D01*
X1922475Y3694988D01*
X1922475Y3742994D01*
X1917496Y3747973D01*
G37*
G36*
X837488Y3747008D02*
G01*
X833475Y3742994D01*
X833475Y3696970D01*
X837488Y3693007D01*
X887577Y3693007D01*
X891540Y3696970D01*
X891540Y3742994D01*
X887577Y3747008D01*
G37*
G36*
X752449Y3747008D02*
G01*
X748436Y3742994D01*
X748436Y3696970D01*
X752449Y3693007D01*
X802487Y3693007D01*
X806500Y3696970D01*
X806500Y3742994D01*
X802487Y3747008D01*
G37*
G36*
X837488Y2607005D02*
G01*
X833475Y2602992D01*
X833475Y2557018D01*
X837488Y2553004D01*
X887577Y2553004D01*
X891540Y2557018D01*
X891540Y2602992D01*
X887577Y2607005D01*
G37*
G36*
X752449Y2607005D02*
G01*
X748436Y2602992D01*
X748436Y2557018D01*
X752449Y2553004D01*
X802487Y2553004D01*
X806500Y2557018D01*
X806500Y2602992D01*
X802487Y2607005D01*
G37*
G36*
X1452422Y3106978D02*
G01*
X1448409Y3103016D01*
X1448409Y3056991D01*
X1452422Y3052978D01*
X1502511Y3052978D01*
X1506474Y3056991D01*
X1506474Y3103016D01*
X1502511Y3106978D01*
G37*
G36*
X1537512Y3106978D02*
G01*
X1533499Y3103016D01*
X1533499Y3056991D01*
X1537512Y3052978D01*
X1587550Y3052978D01*
X1591564Y3056991D01*
X1591564Y3103016D01*
X1587550Y3106978D01*
G37*
G36*
X1452422Y3207004D02*
G01*
X1448409Y3202990D01*
X1448409Y3157016D01*
X1452422Y3153003D01*
X1502511Y3153003D01*
X1506474Y3157016D01*
X1506474Y3202990D01*
X1502511Y3207004D01*
G37*
G36*
X1537512Y3207004D02*
G01*
X1533499Y3202990D01*
X1533499Y3157016D01*
X1537512Y3153003D01*
X1587550Y3153003D01*
X1591564Y3157016D01*
X1591564Y3202990D01*
X1587550Y3207004D01*
G37*
G36*
X2917494Y3256991D02*
G01*
X2913481Y3252978D01*
X2913481Y3207004D01*
X2917494Y3202990D01*
X2967532Y3202990D01*
X2971546Y3207004D01*
X2971546Y3252978D01*
X2967532Y3256991D01*
G37*
G36*
X2832404Y3256991D02*
G01*
X2828442Y3252978D01*
X2828442Y3207004D01*
X2832404Y3202990D01*
X2882493Y3202990D01*
X2886506Y3207004D01*
X2886506Y3252978D01*
X2882493Y3256991D01*
G37*
G36*
X1467002Y2211578D02*
G01*
X1462989Y2207564D01*
X1462989Y2157476D01*
X1467002Y2153513D01*
X1512976Y2153513D01*
X1516989Y2157476D01*
X1516989Y2207564D01*
X1512976Y2211578D01*
G37*
G36*
X1467002Y2126488D02*
G01*
X1462989Y2122474D01*
X1462989Y2072436D01*
X1467002Y2068423D01*
X1512976Y2068423D01*
X1516989Y2072436D01*
X1516989Y2122474D01*
X1512976Y2126488D01*
G37*
G36*
X3027476Y2696972D02*
G01*
X3023514Y2693009D01*
X3023514Y2646984D01*
X3027476Y2642971D01*
X3077565Y2642971D01*
X3081578Y2646984D01*
X3081578Y2693009D01*
X3077565Y2696972D01*
G37*
G36*
X2942437Y2696972D02*
G01*
X2938424Y2693009D01*
X2938424Y2646984D01*
X2942437Y2642971D01*
X2992475Y2642971D01*
X2996488Y2646984D01*
X2996488Y2693009D01*
X2992475Y2696972D01*
G37*
G36*
X4296968Y3691483D02*
G01*
X4293006Y3687470D01*
X4293006Y3637432D01*
X4296968Y3633419D01*
X4342993Y3633419D01*
X4347006Y3637432D01*
X4347006Y3687470D01*
X4342993Y3691483D01*
G37*
G36*
X4296968Y3776573D02*
G01*
X4293006Y3772560D01*
X4293006Y3722471D01*
X4296968Y3718509D01*
X4342993Y3718509D01*
X4347006Y3722471D01*
X4347006Y3772560D01*
X4342993Y3776573D01*
G37*
G36*
X3801973Y3636467D02*
G01*
X3798011Y3632504D01*
X3798011Y3582415D01*
X3801973Y3578402D01*
X3847998Y3578402D01*
X3852011Y3582415D01*
X3852011Y3632504D01*
X3847998Y3636467D01*
G37*
G36*
X3801973Y3721557D02*
G01*
X3798011Y3717544D01*
X3798011Y3667506D01*
X3801973Y3663492D01*
X3847998Y3663492D01*
X3852011Y3667506D01*
X3852011Y3717544D01*
X3847998Y3721557D01*
G37*
G36*
X4296968Y3526536D02*
G01*
X4293006Y3522573D01*
X4293006Y3472484D01*
X4296968Y3468471D01*
X4342993Y3468471D01*
X4347006Y3472484D01*
X4347006Y3522573D01*
X4342993Y3526536D01*
G37*
G36*
X4296968Y3441496D02*
G01*
X4293006Y3437483D01*
X4293006Y3387445D01*
X4296968Y3383432D01*
X4342993Y3383432D01*
X4347006Y3387445D01*
X4347006Y3437483D01*
X4342993Y3441496D01*
G37*
G36*
X3801973Y3306470D02*
G01*
X3798011Y3302508D01*
X3798011Y3252419D01*
X3801973Y3248406D01*
X3847998Y3248406D01*
X3852011Y3252419D01*
X3852011Y3302508D01*
X3847998Y3306470D01*
G37*
G36*
X3801973Y3391560D02*
G01*
X3798011Y3387547D01*
X3798011Y3337509D01*
X3801973Y3333496D01*
X3847998Y3333496D01*
X3852011Y3337509D01*
X3852011Y3387547D01*
X3847998Y3391560D01*
G37*
G36*
X2706979Y3256483D02*
G01*
X2703017Y3252470D01*
X2703017Y3202432D01*
X2706979Y3198418D01*
X2753004Y3198418D01*
X2757017Y3202432D01*
X2757017Y3252470D01*
X2753004Y3256483D01*
G37*
G36*
X2706979Y3341573D02*
G01*
X2703017Y3337560D01*
X2703017Y3287471D01*
X2706979Y3283508D01*
X2753004Y3283508D01*
X2757017Y3287471D01*
X2757017Y3337560D01*
X2753004Y3341573D01*
G37*
G36*
X1385824Y2346706D02*
G01*
X1353261Y2314194D01*
X1353261Y2308504D01*
X1388668Y2273147D01*
X1394358Y2273147D01*
X1426870Y2305659D01*
X1426870Y2311298D01*
X1391462Y2346706D01*
G37*
G36*
X1325676Y2406853D02*
G01*
X1293114Y2374341D01*
X1293114Y2368702D01*
X1328521Y2333294D01*
X1334211Y2333294D01*
X1366723Y2365806D01*
X1366723Y2371445D01*
X1331315Y2406853D01*
G37*
G36*
X3907485Y2461971D02*
G01*
X3903472Y2458008D01*
X3903472Y2411984D01*
X3907485Y2407970D01*
X3957574Y2407970D01*
X3961536Y2411984D01*
X3961536Y2458008D01*
X3957574Y2461971D01*
G37*
G36*
X3822446Y2461971D02*
G01*
X3818432Y2458008D01*
X3818432Y2411984D01*
X3822446Y2407970D01*
X3872484Y2407970D01*
X3876497Y2411984D01*
X3876497Y2458008D01*
X3872484Y2461971D01*
G37*
G36*
X3456990Y2266492D02*
G01*
X3452977Y2262479D01*
X3452977Y2212441D01*
X3456990Y2208428D01*
X3503015Y2208428D01*
X3506978Y2212441D01*
X3506978Y2262479D01*
X3503015Y2266492D01*
G37*
G36*
X3456990Y2351582D02*
G01*
X3452977Y2347569D01*
X3452977Y2297480D01*
X3456990Y2293518D01*
X3503015Y2293518D01*
X3506978Y2297480D01*
X3506978Y2347569D01*
X3503015Y2351582D01*
G37*
G36*
X1769973Y2959963D02*
G01*
X1769973Y2939999D01*
X1880006Y2939999D01*
X1880006Y2959963D01*
G37*
G36*
X1769973Y3239973D02*
G01*
X1769973Y3220008D01*
X1880006Y3220008D01*
X1880006Y3239973D01*
G37*
G36*
X1769973Y2919984D02*
G01*
X1769973Y2900019D01*
X1880006Y2900019D01*
X1880006Y2919984D01*
G37*
G36*
X1769973Y2719984D02*
G01*
X1769973Y2700020D01*
X1880006Y2700020D01*
X1880006Y2719984D01*
G37*
G36*
X1769973Y2999994D02*
G01*
X1769973Y2979978D01*
X1880006Y2979978D01*
X1880006Y2999994D01*
G37*
G36*
X1769973Y2880004D02*
G01*
X1769973Y2859989D01*
X1880006Y2859989D01*
X1880006Y2880004D01*
G37*
G36*
X1769973Y2759964D02*
G01*
X1769973Y2739999D01*
X1880006Y2739999D01*
X1880006Y2759964D01*
G37*
G36*
X1769973Y3039973D02*
G01*
X1769973Y3020009D01*
X1880006Y3020009D01*
X1880006Y3039973D01*
G37*
G36*
X1769973Y3199993D02*
G01*
X1769973Y3179978D01*
X1880006Y3179978D01*
X1880006Y3199993D01*
G37*
G36*
X1769973Y2799994D02*
G01*
X1769973Y2779979D01*
X1880006Y2779979D01*
X1880006Y2799994D01*
G37*
G36*
X1769973Y3080004D02*
G01*
X1769973Y3059988D01*
X1880006Y3059988D01*
X1880006Y3080004D01*
G37*
G36*
X1769973Y2839974D02*
G01*
X1769973Y2820009D01*
X1880006Y2820009D01*
X1880006Y2839974D01*
G37*
G36*
X1769973Y3119983D02*
G01*
X1769973Y3100019D01*
X1880006Y3100019D01*
X1880006Y3119983D01*
G37*
G36*
X1769973Y3159963D02*
G01*
X1769973Y3139998D01*
X1880006Y3139998D01*
X1880006Y3159963D01*
G37*
G36*
X1909978Y3379978D02*
G01*
X1909978Y3269996D01*
X1929993Y3269996D01*
X1929993Y3379978D01*
G37*
G36*
X1909978Y2669997D02*
G01*
X1909978Y2559964D01*
X1929993Y2559964D01*
X1929993Y2669997D01*
G37*
G36*
X1950008Y3379978D02*
G01*
X1950008Y3269996D01*
X1969973Y3269996D01*
X1969973Y3379978D01*
G37*
G36*
X1950008Y2669997D02*
G01*
X1950008Y2559964D01*
X1969973Y2559964D01*
X1969973Y2669997D01*
G37*
G36*
X1989988Y3379978D02*
G01*
X1989988Y3269996D01*
X2010003Y3269996D01*
X2010003Y3379978D01*
G37*
G36*
X1989988Y2669997D02*
G01*
X1989988Y2559964D01*
X2010003Y2559964D01*
X2010003Y2669997D01*
G37*
G36*
X2030018Y3379978D02*
G01*
X2030018Y3269996D01*
X2049983Y3269996D01*
X2049983Y3379978D01*
G37*
G36*
X2030018Y2669997D02*
G01*
X2030018Y2559964D01*
X2049983Y2559964D01*
X2049983Y2669997D01*
G37*
G36*
X2069998Y3379978D02*
G01*
X2069998Y3269996D01*
X2089962Y3269996D01*
X2089962Y3379978D01*
G37*
G36*
X2069998Y2669997D02*
G01*
X2069998Y2559964D01*
X2089962Y2559964D01*
X2089962Y2669997D01*
G37*
G36*
X2109978Y3379978D02*
G01*
X2109978Y3269996D01*
X2129993Y3269996D01*
X2129993Y3379978D01*
G37*
G36*
X2109978Y2669997D02*
G01*
X2109978Y2559964D01*
X2129993Y2559964D01*
X2129993Y2669997D01*
G37*
G36*
X2150008Y3379978D02*
G01*
X2150008Y3269996D01*
X2169972Y3269996D01*
X2169972Y3379978D01*
G37*
G36*
X2150008Y2669997D02*
G01*
X2150008Y2559964D01*
X2169972Y2559964D01*
X2169972Y2669997D01*
G37*
G36*
X2189988Y3379978D02*
G01*
X2189988Y3269996D01*
X2210003Y3269996D01*
X2210003Y3379978D01*
G37*
G36*
X2189988Y2669997D02*
G01*
X2189988Y2559964D01*
X2210003Y2559964D01*
X2210003Y2669997D01*
G37*
G36*
X2230018Y3379978D02*
G01*
X2230018Y3269996D01*
X2249982Y3269996D01*
X2249982Y3379978D01*
G37*
G36*
X2230018Y2669997D02*
G01*
X2230018Y2559964D01*
X2249982Y2559964D01*
X2249982Y2669997D01*
G37*
G36*
X2269998Y3379978D02*
G01*
X2269998Y3269996D01*
X2289962Y3269996D01*
X2289962Y3379978D01*
G37*
G36*
X2269998Y2669997D02*
G01*
X2269998Y2559964D01*
X2289962Y2559964D01*
X2289962Y2669997D01*
G37*
G36*
X2309977Y3379978D02*
G01*
X2309977Y3269996D01*
X2329992Y3269996D01*
X2329992Y3379978D01*
G37*
G36*
X2309977Y2669997D02*
G01*
X2309977Y2559964D01*
X2329992Y2559964D01*
X2329992Y2669997D01*
G37*
G36*
X2350008Y3379978D02*
G01*
X2350008Y3269996D01*
X2369972Y3269996D01*
X2369972Y3379978D01*
G37*
G36*
X2350008Y2669997D02*
G01*
X2350008Y2559964D01*
X2369972Y2559964D01*
X2369972Y2669997D01*
G37*
G36*
X2389987Y3379978D02*
G01*
X2389987Y3269996D01*
X2410002Y3269996D01*
X2410002Y3379978D01*
G37*
G36*
X2389987Y2669997D02*
G01*
X2389987Y2559964D01*
X2410002Y2559964D01*
X2410002Y2669997D01*
G37*
G36*
X2430018Y3379978D02*
G01*
X2430018Y3269996D01*
X2449982Y3269996D01*
X2449982Y3379978D01*
G37*
G36*
X2430018Y2669997D02*
G01*
X2430018Y2559964D01*
X2449982Y2559964D01*
X2449982Y2669997D01*
G37*
G36*
X2480005Y3239973D02*
G01*
X2480005Y3220008D01*
X2589987Y3220008D01*
X2589987Y3239973D01*
G37*
G36*
X2480005Y2999994D02*
G01*
X2480005Y2979978D01*
X2589987Y2979978D01*
X2589987Y2999994D01*
G37*
G36*
X2480005Y2719984D02*
G01*
X2480005Y2700020D01*
X2589987Y2700020D01*
X2589987Y2719984D01*
G37*
G36*
X2480005Y2959963D02*
G01*
X2480005Y2939999D01*
X2589987Y2939999D01*
X2589987Y2959963D01*
G37*
G36*
X2480005Y3199993D02*
G01*
X2480005Y3179978D01*
X2589987Y3179978D01*
X2589987Y3199993D01*
G37*
G36*
X2480005Y2919984D02*
G01*
X2480005Y2900019D01*
X2589987Y2900019D01*
X2589987Y2919984D01*
G37*
G36*
X2480005Y3159963D02*
G01*
X2480005Y3139998D01*
X2589987Y3139998D01*
X2589987Y3159963D01*
G37*
G36*
X2480005Y2880004D02*
G01*
X2480005Y2859989D01*
X2589987Y2859989D01*
X2589987Y2880004D01*
G37*
G36*
X2480005Y3039973D02*
G01*
X2480005Y3020009D01*
X2589987Y3020009D01*
X2589987Y3039973D01*
G37*
G36*
X2480005Y3119983D02*
G01*
X2480005Y3100019D01*
X2589987Y3100019D01*
X2589987Y3119983D01*
G37*
G36*
X2480005Y2759964D02*
G01*
X2480005Y2739999D01*
X2589987Y2739999D01*
X2589987Y2759964D01*
G37*
G36*
X2480005Y2839974D02*
G01*
X2480005Y2820009D01*
X2589987Y2820009D01*
X2589987Y2839974D01*
G37*
G36*
X2480005Y3080004D02*
G01*
X2480005Y3059988D01*
X2589987Y3059988D01*
X2589987Y3080004D01*
G37*
G36*
X2480005Y2799994D02*
G01*
X2480005Y2779979D01*
X2589987Y2779979D01*
X2589987Y2799994D01*
G37*
G36*
X2055977Y3093974D02*
G01*
X2055977Y2845968D01*
X2303983Y2845968D01*
X2303983Y3093974D01*
G37*
D10*
G01*
X1754987Y3825367D03*
G01*
X1659991Y3825367D03*
G01*
X1564995Y3825367D03*
D11*
G01*
X1564995Y3594633D03*
G01*
X1754987Y3594633D03*
D12*
G01*
X4089984Y1815007D03*
G01*
X4750003Y1815007D03*
G01*
X4089984Y1444980D03*
G01*
X4750003Y1444980D03*
G01*
X4089984Y2355011D03*
G01*
X4750003Y2355011D03*
G01*
X4089984Y1984984D03*
G01*
X4750003Y1984984D03*
D13*
G01*
X1553552Y2320366D03*
D14*
G01*
X1588909Y2355735D03*
D13*
G01*
X1624266Y2391079D03*
D14*
G01*
X1659623Y2426449D03*
D13*
G01*
X1340370Y2533548D03*
D14*
G01*
X1375727Y2568917D03*
D13*
G01*
X1411084Y2604261D03*
D15*
G01*
X1446441Y2639618D03*
D16*
G01*
X1499997Y2480005D03*
D17*
G01*
X3969994Y3794988D03*
G01*
X3969994Y3604996D03*
G01*
X4169994Y3699992D03*
G01*
X3969994Y3464991D03*
G01*
X3969994Y3274999D03*
G01*
X4169994Y3369995D03*
G01*
X3610000Y2424988D03*
G01*
X3610000Y2234996D03*
G01*
X3810000Y2329992D03*
D18*
G01*
X2829991Y2352497D03*
G01*
X3049981Y2352497D03*
G01*
X3049981Y2527503D03*
G01*
X2829991Y2527503D03*
M02*
