G04 Layer: TopSilkscreenLayer*
G04 EasyEDA v6.5.39, 2024-01-14 11:16:20*
G04 7225f5b682534d558e40c38ebd35b67e,4e7111fa6b144b4da7037494b399c203,10*
G04 Gerber Generator version 0.2*
G04 Scale: 100 percent, Rotated: No, Reflected: No *
G04 Dimensions in millimeters *
G04 leading zeros omitted , absolute positions ,4 integer and 5 decimal *
%FSLAX45Y45*%
%MOMM*%

%ADD10C,0.1530*%
%ADD11C,0.1520*%
%ADD12C,0.1524*%
%ADD13C,0.2540*%
%ADD14C,0.1520*%
%ADD15C,0.3000*%
%ADD16C,0.2000*%
%ADD17C,0.0114*%

%LPD*%
D10*
X2250109Y3835821D02*
G01*
X2250109Y3740571D01*
X2280081Y3835821D02*
G01*
X2280081Y3740571D01*
X2280081Y3835821D02*
G01*
X2320975Y3835821D01*
X2334691Y3831503D01*
X2339263Y3826931D01*
X2343835Y3817787D01*
X2343835Y3808643D01*
X2339263Y3799499D01*
X2334691Y3794927D01*
X2320975Y3790355D01*
X2280081Y3790355D02*
G01*
X2320975Y3790355D01*
X2334691Y3786037D01*
X2339263Y3781465D01*
X2343835Y3772321D01*
X2343835Y3758605D01*
X2339263Y3749461D01*
X2334691Y3744889D01*
X2320975Y3740571D01*
X2280081Y3740571D01*
X2373807Y3835821D02*
G01*
X2373807Y3740571D01*
X2373807Y3835821D02*
G01*
X2410129Y3740571D01*
X2446451Y3835821D02*
G01*
X2410129Y3740571D01*
X2446451Y3835821D02*
G01*
X2446451Y3740571D01*
X2600883Y3835821D02*
G01*
X2555671Y3835821D01*
X2551099Y3794927D01*
X2555671Y3799499D01*
X2569133Y3804071D01*
X2582849Y3804071D01*
X2596565Y3799499D01*
X2605455Y3790355D01*
X2610027Y3776893D01*
X2610027Y3767749D01*
X2605455Y3754033D01*
X2596565Y3744889D01*
X2582849Y3740571D01*
X2569133Y3740571D01*
X2555671Y3744889D01*
X2551099Y3749461D01*
X2546527Y3758605D01*
X2639999Y3817787D02*
G01*
X2649143Y3822359D01*
X2662859Y3835821D01*
X2662859Y3740571D01*
X2756585Y3835821D02*
G01*
X2711119Y3740571D01*
X2692831Y3835821D02*
G01*
X2756585Y3835821D01*
X2813735Y3835821D02*
G01*
X2800019Y3831503D01*
X2791129Y3817787D01*
X2786557Y3794927D01*
X2786557Y3781465D01*
X2791129Y3758605D01*
X2800019Y3744889D01*
X2813735Y3740571D01*
X2822879Y3740571D01*
X2836341Y3744889D01*
X2845485Y3758605D01*
X2850057Y3781465D01*
X2850057Y3794927D01*
X2845485Y3817787D01*
X2836341Y3831503D01*
X2822879Y3835821D01*
X2813735Y3835821D01*
X2950133Y3835821D02*
G01*
X2950133Y3740571D01*
X2950133Y3835821D02*
G01*
X2991027Y3835821D01*
X3004743Y3831503D01*
X3009061Y3826931D01*
X3013633Y3817787D01*
X3013633Y3804071D01*
X3009061Y3794927D01*
X3004743Y3790355D01*
X2991027Y3786037D01*
X2950133Y3786037D01*
X3111931Y3813215D02*
G01*
X3107359Y3822359D01*
X3098215Y3831503D01*
X3089071Y3835821D01*
X3071037Y3835821D01*
X3061893Y3831503D01*
X3052749Y3822359D01*
X3048177Y3813215D01*
X3043605Y3799499D01*
X3043605Y3776893D01*
X3048177Y3763177D01*
X3052749Y3754033D01*
X3061893Y3744889D01*
X3071037Y3740571D01*
X3089071Y3740571D01*
X3098215Y3744889D01*
X3107359Y3754033D01*
X3111931Y3763177D01*
X3141903Y3781465D02*
G01*
X3223691Y3781465D01*
X3289985Y3835821D02*
G01*
X3253663Y3740571D01*
X3289985Y3835821D02*
G01*
X3326561Y3740571D01*
X3267379Y3772321D02*
G01*
X3312845Y3772321D01*
X3388283Y3835821D02*
G01*
X3388283Y3740571D01*
X3356533Y3835821D02*
G01*
X3420033Y3835821D01*
X2250224Y3680861D02*
G01*
X2250224Y3585357D01*
X2250224Y3680861D02*
G01*
X2291118Y3680861D01*
X2304580Y3676289D01*
X2309152Y3671717D01*
X2313724Y3662827D01*
X2313724Y3653683D01*
X2309152Y3644539D01*
X2304580Y3639967D01*
X2291118Y3635395D01*
X2250224Y3635395D01*
X2281974Y3635395D02*
G01*
X2313724Y3585357D01*
X2343696Y3621933D02*
G01*
X2398306Y3621933D01*
X2398306Y3630823D01*
X2393734Y3639967D01*
X2389162Y3644539D01*
X2380272Y3649111D01*
X2366556Y3649111D01*
X2357412Y3644539D01*
X2348268Y3635395D01*
X2343696Y3621933D01*
X2343696Y3612789D01*
X2348268Y3599073D01*
X2357412Y3589929D01*
X2366556Y3585357D01*
X2380272Y3585357D01*
X2389162Y3589929D01*
X2398306Y3599073D01*
X2428278Y3649111D02*
G01*
X2455710Y3585357D01*
X2482888Y3649111D02*
G01*
X2455710Y3585357D01*
X2517432Y3658255D02*
G01*
X2517432Y3662827D01*
X2522004Y3671717D01*
X2526576Y3676289D01*
X2535720Y3680861D01*
X2553754Y3680861D01*
X2562898Y3676289D01*
X2567470Y3671717D01*
X2572042Y3662827D01*
X2572042Y3653683D01*
X2567470Y3644539D01*
X2558326Y3630823D01*
X2512860Y3585357D01*
X2576614Y3585357D01*
X2681008Y3658255D02*
G01*
X2681008Y3662827D01*
X2685580Y3671717D01*
X2690152Y3676289D01*
X2699296Y3680861D01*
X2717330Y3680861D01*
X2726474Y3676289D01*
X2731046Y3671717D01*
X2735618Y3662827D01*
X2735618Y3653683D01*
X2731046Y3644539D01*
X2721902Y3630823D01*
X2676436Y3585357D01*
X2740190Y3585357D01*
X2797340Y3680861D02*
G01*
X2783878Y3676289D01*
X2774734Y3662827D01*
X2770162Y3639967D01*
X2770162Y3626251D01*
X2774734Y3603645D01*
X2783878Y3589929D01*
X2797340Y3585357D01*
X2806484Y3585357D01*
X2820200Y3589929D01*
X2829344Y3603645D01*
X2833916Y3626251D01*
X2833916Y3639967D01*
X2829344Y3662827D01*
X2820200Y3676289D01*
X2806484Y3680861D01*
X2797340Y3680861D01*
X2868460Y3658255D02*
G01*
X2868460Y3662827D01*
X2872778Y3671717D01*
X2877350Y3676289D01*
X2886494Y3680861D01*
X2904782Y3680861D01*
X2913672Y3676289D01*
X2918244Y3671717D01*
X2922816Y3662827D01*
X2922816Y3653683D01*
X2918244Y3644539D01*
X2909354Y3630823D01*
X2863888Y3585357D01*
X2927388Y3585357D01*
X2966504Y3680861D02*
G01*
X3016542Y3680861D01*
X2989364Y3644539D01*
X3002826Y3644539D01*
X3011970Y3639967D01*
X3016542Y3635395D01*
X3021114Y3621933D01*
X3021114Y3612789D01*
X3016542Y3599073D01*
X3007398Y3589929D01*
X2993682Y3585357D01*
X2980220Y3585357D01*
X2966504Y3589929D01*
X2961932Y3594501D01*
X2957360Y3603645D01*
X3051086Y3626251D02*
G01*
X3132874Y3626251D01*
X3190278Y3680861D02*
G01*
X3176562Y3676289D01*
X3167418Y3662827D01*
X3162846Y3639967D01*
X3162846Y3626251D01*
X3167418Y3603645D01*
X3176562Y3589929D01*
X3190278Y3585357D01*
X3199168Y3585357D01*
X3212884Y3589929D01*
X3222028Y3603645D01*
X3226600Y3626251D01*
X3226600Y3639967D01*
X3222028Y3662827D01*
X3212884Y3676289D01*
X3199168Y3680861D01*
X3190278Y3680861D01*
X3320072Y3680861D02*
G01*
X3274606Y3585357D01*
X3256572Y3680861D02*
G01*
X3320072Y3680861D01*
X3350044Y3626251D02*
G01*
X3432086Y3626251D01*
X3462058Y3662827D02*
G01*
X3470948Y3667399D01*
X3484664Y3680861D01*
X3484664Y3585357D01*
X3578390Y3680861D02*
G01*
X3532924Y3585357D01*
X3514636Y3680861D02*
G01*
X3578390Y3680861D01*
X3423635Y3170816D02*
G01*
X3423635Y3093600D01*
X3428207Y3079884D01*
X3437351Y3075566D01*
X3446241Y3075566D01*
X3409919Y3139066D02*
G01*
X3441669Y3139066D01*
X3530823Y3139066D02*
G01*
X3530823Y3075566D01*
X3530823Y3125350D02*
G01*
X3521679Y3134494D01*
X3512789Y3139066D01*
X3499073Y3139066D01*
X3489929Y3134494D01*
X3480785Y3125350D01*
X3476213Y3111888D01*
X3476213Y3102744D01*
X3480785Y3089028D01*
X3489929Y3079884D01*
X3499073Y3075566D01*
X3512789Y3075566D01*
X3521679Y3079884D01*
X3530823Y3089028D01*
X3560795Y3139066D02*
G01*
X3560795Y3075566D01*
X3560795Y3111888D02*
G01*
X3565367Y3125350D01*
X3574511Y3134494D01*
X3583655Y3139066D01*
X3597371Y3139066D01*
X3681699Y3170816D02*
G01*
X3681699Y3075566D01*
X3681699Y3125350D02*
G01*
X3672809Y3134494D01*
X3663665Y3139066D01*
X3649949Y3139066D01*
X3640805Y3134494D01*
X3631915Y3125350D01*
X3627343Y3111888D01*
X3627343Y3102744D01*
X3631915Y3089028D01*
X3640805Y3079884D01*
X3649949Y3075566D01*
X3663665Y3075566D01*
X3672809Y3079884D01*
X3681699Y3089028D01*
X3711671Y3170816D02*
G01*
X3716243Y3166244D01*
X3720815Y3170816D01*
X3716243Y3175388D01*
X3711671Y3170816D01*
X3716243Y3139066D02*
G01*
X3716243Y3075566D01*
X3800825Y3125350D02*
G01*
X3796253Y3134494D01*
X3782791Y3139066D01*
X3769075Y3139066D01*
X3755359Y3134494D01*
X3750787Y3125350D01*
X3755359Y3116460D01*
X3764503Y3111888D01*
X3787363Y3107316D01*
X3796253Y3102744D01*
X3800825Y3093600D01*
X3800825Y3089028D01*
X3796253Y3079884D01*
X3782791Y3075566D01*
X3769075Y3075566D01*
X3755359Y3079884D01*
X3750787Y3089028D01*
X3835369Y3098172D02*
G01*
X3830797Y3093600D01*
X3835369Y3089028D01*
X3839941Y3093600D01*
X3835369Y3098172D01*
X3869913Y3170816D02*
G01*
X3874485Y3166244D01*
X3879057Y3170816D01*
X3874485Y3175388D01*
X3869913Y3170816D01*
X3874485Y3139066D02*
G01*
X3874485Y3075566D01*
X3931889Y3139066D02*
G01*
X3922745Y3134494D01*
X3913601Y3125350D01*
X3909029Y3111888D01*
X3909029Y3102744D01*
X3913601Y3089028D01*
X3922745Y3079884D01*
X3931889Y3075566D01*
X3945351Y3075566D01*
X3954495Y3079884D01*
X3963639Y3089028D01*
X3968211Y3102744D01*
X3968211Y3111888D01*
X3963639Y3125350D01*
X3954495Y3134494D01*
X3945351Y3139066D01*
X3931889Y3139066D01*
X4079971Y3189104D02*
G01*
X3998183Y3043562D01*
X4109943Y3139066D02*
G01*
X4109943Y3043562D01*
X4109943Y3125350D02*
G01*
X4119087Y3134494D01*
X4128231Y3139066D01*
X4141693Y3139066D01*
X4150837Y3134494D01*
X4159981Y3125350D01*
X4164553Y3111888D01*
X4164553Y3102744D01*
X4159981Y3089028D01*
X4150837Y3079884D01*
X4141693Y3075566D01*
X4128231Y3075566D01*
X4119087Y3079884D01*
X4109943Y3089028D01*
X4249135Y3125350D02*
G01*
X4239991Y3134494D01*
X4230847Y3139066D01*
X4217131Y3139066D01*
X4208241Y3134494D01*
X4199097Y3125350D01*
X4194525Y3111888D01*
X4194525Y3102744D01*
X4199097Y3089028D01*
X4208241Y3079884D01*
X4217131Y3075566D01*
X4230847Y3075566D01*
X4239991Y3079884D01*
X4249135Y3089028D01*
X4333717Y3139066D02*
G01*
X4333717Y3075566D01*
X4333717Y3125350D02*
G01*
X4324573Y3134494D01*
X4315429Y3139066D01*
X4301713Y3139066D01*
X4292823Y3134494D01*
X4283679Y3125350D01*
X4279107Y3111888D01*
X4279107Y3102744D01*
X4283679Y3089028D01*
X4292823Y3079884D01*
X4301713Y3075566D01*
X4315429Y3075566D01*
X4324573Y3079884D01*
X4333717Y3089028D01*
X4377151Y3170816D02*
G01*
X4377151Y3093600D01*
X4381723Y3079884D01*
X4390867Y3075566D01*
X4400011Y3075566D01*
X4363689Y3139066D02*
G01*
X4395439Y3139066D01*
X4429983Y3116460D02*
G01*
X4511771Y3116460D01*
X4596353Y3170816D02*
G01*
X4550887Y3170816D01*
X4546315Y3129922D01*
X4550887Y3134494D01*
X4564603Y3139066D01*
X4578065Y3139066D01*
X4591781Y3134494D01*
X4600925Y3125350D01*
X4605497Y3111888D01*
X4605497Y3102744D01*
X4600925Y3089028D01*
X4591781Y3079884D01*
X4578065Y3075566D01*
X4564603Y3075566D01*
X4550887Y3079884D01*
X4546315Y3084456D01*
X4541743Y3093600D01*
X4635469Y3152782D02*
G01*
X4644613Y3157354D01*
X4658075Y3170816D01*
X4658075Y3075566D01*
X4751801Y3170816D02*
G01*
X4706335Y3075566D01*
X4688047Y3170816D02*
G01*
X4751801Y3170816D01*
X4808951Y3170816D02*
G01*
X4795489Y3166244D01*
X4786345Y3152782D01*
X4781773Y3129922D01*
X4781773Y3116460D01*
X4786345Y3093600D01*
X4795489Y3079884D01*
X4808951Y3075566D01*
X4818095Y3075566D01*
X4831811Y3079884D01*
X4840955Y3093600D01*
X4845527Y3116460D01*
X4845527Y3129922D01*
X4840955Y3152782D01*
X4831811Y3166244D01*
X4818095Y3170816D01*
X4808951Y3170816D01*
D11*
X3347981Y2879356D02*
G01*
X3342650Y2889770D01*
X3332233Y2900182D01*
X3321829Y2905259D01*
X3301248Y2905259D01*
X3290831Y2900182D01*
X3280420Y2889770D01*
X3275083Y2879356D01*
X3270011Y2863862D01*
X3270011Y2837703D01*
X3275083Y2822206D01*
X3280420Y2811795D01*
X3290831Y2801378D01*
X3301248Y2796298D01*
X3321829Y2796298D01*
X3332233Y2801378D01*
X3342650Y2811795D01*
X3347981Y2822206D01*
X3382279Y2905259D02*
G01*
X3382279Y2796298D01*
X3382279Y2796298D02*
G01*
X3444504Y2796298D01*
X3478796Y2905259D02*
G01*
X3478796Y2796298D01*
X3551697Y2905259D02*
G01*
X3478796Y2832620D01*
X3504699Y2858528D02*
G01*
X3551697Y2796298D01*
X3666858Y2889506D02*
G01*
X3656446Y2899928D01*
X3640955Y2905257D01*
X3620117Y2905257D01*
X3604638Y2899928D01*
X3594221Y2889506D01*
X3594221Y2879092D01*
X3599296Y2868686D01*
X3604638Y2863603D01*
X3615042Y2858523D01*
X3646037Y2848107D01*
X3656446Y2842778D01*
X3661788Y2837695D01*
X3666858Y2827281D01*
X3666858Y2811536D01*
X3656446Y2801373D01*
X3640955Y2796034D01*
X3620117Y2796034D01*
X3604638Y2801373D01*
X3594221Y2811536D01*
X3701148Y2905257D02*
G01*
X3727058Y2796034D01*
X3753225Y2905257D02*
G01*
X3727058Y2796034D01*
X3753225Y2905257D02*
G01*
X3779126Y2796034D01*
X3805039Y2905257D02*
G01*
X3779126Y2796034D01*
X3839324Y2905257D02*
G01*
X3839324Y2796034D01*
X3839324Y2905257D02*
G01*
X3875653Y2905257D01*
X3891396Y2899928D01*
X3901808Y2889506D01*
X3906890Y2879092D01*
X3912217Y2863603D01*
X3912217Y2837695D01*
X3906890Y2821942D01*
X3901808Y2811536D01*
X3891396Y2801373D01*
X3875653Y2796034D01*
X3839324Y2796034D01*
X3980657Y2691137D02*
G01*
X3970235Y2686055D01*
X3959829Y2675643D01*
X3954749Y2665234D01*
X3954749Y2644406D01*
X3959829Y2633987D01*
X3970235Y2623573D01*
X3980657Y2618493D01*
X3996154Y2613157D01*
X4022062Y2613157D01*
X4037807Y2618493D01*
X4048221Y2623573D01*
X4058627Y2633987D01*
X4063710Y2644406D01*
X4063710Y2665234D01*
X4058627Y2675643D01*
X4048221Y2686055D01*
X4037807Y2691137D01*
X4022062Y2691137D01*
X4022062Y2665234D02*
G01*
X4022062Y2691137D01*
X3954749Y2725427D02*
G01*
X4063710Y2725427D01*
X3954749Y2725427D02*
G01*
X4063710Y2798325D01*
X3954749Y2798325D02*
G01*
X4063710Y2798325D01*
X3954749Y2832620D02*
G01*
X4063710Y2832620D01*
X3954749Y2832620D02*
G01*
X3954749Y2868937D01*
X3959829Y2884429D01*
X3970235Y2894853D01*
X3980657Y2899925D01*
X3996154Y2905257D01*
X4022062Y2905257D01*
X4037807Y2899925D01*
X4048221Y2894853D01*
X4058627Y2884429D01*
X4063710Y2868937D01*
X4063710Y2832620D01*
X3641458Y2722377D02*
G01*
X3641458Y2613159D01*
X3604884Y2722377D02*
G01*
X3677785Y2722377D01*
X3712070Y2722377D02*
G01*
X3784711Y2613159D01*
X3784711Y2722377D02*
G01*
X3712070Y2613159D01*
X3269960Y2723514D02*
G01*
X3269960Y2614546D01*
X3269960Y2723514D02*
G01*
X3316701Y2723514D01*
X3332452Y2718442D01*
X3337521Y2713108D01*
X3342604Y2702687D01*
X3342604Y2692529D01*
X3337521Y2682118D01*
X3332452Y2676779D01*
X3316701Y2671696D01*
X3269960Y2671696D01*
X3306287Y2671696D02*
G01*
X3342604Y2614546D01*
X3376902Y2723514D02*
G01*
X3449789Y2614546D01*
X3449789Y2723514D02*
G01*
X3376902Y2614546D01*
D10*
X2820113Y3470879D02*
G01*
X2820113Y3375375D01*
X2820113Y3470879D02*
G01*
X2861007Y3470879D01*
X2874469Y3466307D01*
X2879041Y3461735D01*
X2883613Y3452845D01*
X2883613Y3439129D01*
X2879041Y3429985D01*
X2874469Y3425413D01*
X2861007Y3420841D01*
X2820113Y3420841D01*
X2968195Y3439129D02*
G01*
X2968195Y3375375D01*
X2968195Y3425413D02*
G01*
X2959051Y3434557D01*
X2949907Y3439129D01*
X2936445Y3439129D01*
X2927301Y3434557D01*
X2918157Y3425413D01*
X2913585Y3411951D01*
X2913585Y3402807D01*
X2918157Y3389091D01*
X2927301Y3379947D01*
X2936445Y3375375D01*
X2949907Y3375375D01*
X2959051Y3379947D01*
X2968195Y3389091D01*
X2998167Y3439129D02*
G01*
X2998167Y3393663D01*
X3002739Y3379947D01*
X3011883Y3375375D01*
X3025345Y3375375D01*
X3034489Y3379947D01*
X3048205Y3393663D01*
X3048205Y3439129D02*
G01*
X3048205Y3375375D01*
X3078177Y3470879D02*
G01*
X3078177Y3375375D01*
X3178253Y3470879D02*
G01*
X3178253Y3375375D01*
X3178253Y3470879D02*
G01*
X3219147Y3470879D01*
X3232609Y3466307D01*
X3237181Y3461735D01*
X3241753Y3452845D01*
X3241753Y3443701D01*
X3237181Y3434557D01*
X3232609Y3429985D01*
X3219147Y3425413D01*
X3178253Y3425413D02*
G01*
X3219147Y3425413D01*
X3232609Y3420841D01*
X3237181Y3416269D01*
X3241753Y3407379D01*
X3241753Y3393663D01*
X3237181Y3384519D01*
X3232609Y3379947D01*
X3219147Y3375375D01*
X3178253Y3375375D01*
X3271725Y3439129D02*
G01*
X3271725Y3375375D01*
X3271725Y3411951D02*
G01*
X3276297Y3425413D01*
X3285441Y3434557D01*
X3294585Y3439129D01*
X3308301Y3439129D01*
X3392629Y3439129D02*
G01*
X3392629Y3375375D01*
X3392629Y3425413D02*
G01*
X3383739Y3434557D01*
X3374595Y3439129D01*
X3360879Y3439129D01*
X3351735Y3434557D01*
X3342845Y3425413D01*
X3338273Y3411951D01*
X3338273Y3402807D01*
X3342845Y3389091D01*
X3351735Y3379947D01*
X3360879Y3375375D01*
X3374595Y3375375D01*
X3383739Y3379947D01*
X3392629Y3389091D01*
X3422601Y3439129D02*
G01*
X3422601Y3375375D01*
X3422601Y3420841D02*
G01*
X3436317Y3434557D01*
X3445461Y3439129D01*
X3459177Y3439129D01*
X3468067Y3434557D01*
X3472639Y3420841D01*
X3472639Y3375375D01*
X3472639Y3420841D02*
G01*
X3486355Y3434557D01*
X3495499Y3439129D01*
X3508961Y3439129D01*
X3518105Y3434557D01*
X3522677Y3420841D01*
X3522677Y3375375D01*
X3552649Y3470879D02*
G01*
X3552649Y3375375D01*
X3552649Y3420841D02*
G01*
X3566365Y3434557D01*
X3575509Y3439129D01*
X3588971Y3439129D01*
X3598115Y3434557D01*
X3602687Y3420841D01*
X3602687Y3375375D01*
X3687269Y3439129D02*
G01*
X3687269Y3375375D01*
X3687269Y3425413D02*
G01*
X3678125Y3434557D01*
X3668981Y3439129D01*
X3655519Y3439129D01*
X3646375Y3434557D01*
X3637231Y3425413D01*
X3632659Y3411951D01*
X3632659Y3402807D01*
X3637231Y3389091D01*
X3646375Y3379947D01*
X3655519Y3375375D01*
X3668981Y3375375D01*
X3678125Y3379947D01*
X3687269Y3389091D01*
X3717241Y3470879D02*
G01*
X3717241Y3375375D01*
X3747213Y3470879D02*
G01*
X3747213Y3375375D01*
D12*
X3805930Y1337927D02*
G01*
X3805930Y1442067D01*
X3858000Y1389997D02*
G01*
X3754114Y1389997D01*
D13*
X5746935Y3986100D02*
G01*
X4897051Y3986100D01*
X5747052Y3174065D02*
G01*
X5747052Y3986100D01*
X4897051Y3174065D02*
G01*
X4897051Y3986100D01*
X4897051Y3174057D02*
G01*
X5747052Y3174100D01*
X4870958Y2505963D02*
G01*
X4108958Y2505963D01*
X4108958Y2505963D02*
G01*
X4108958Y3013963D01*
X4870958Y2505963D02*
G01*
X4870958Y2988563D01*
X4870958Y3013963D01*
X4845558Y3013963D01*
X4108958Y3013963D01*
D12*
X1812617Y3795113D02*
G01*
X1812617Y3624872D01*
X1507375Y3795113D02*
G01*
X1507375Y3624872D01*
X1612356Y3624872D02*
G01*
X1707636Y3624872D01*
D13*
X4319917Y1810085D02*
G01*
X4509909Y1810085D01*
X4600079Y1719915D01*
X4600079Y1540083D01*
X4500003Y1440007D01*
X4330077Y1440007D01*
X4239907Y1530177D01*
X4239907Y1730075D01*
X4319917Y1810085D01*
X4547501Y1885015D02*
G01*
X4637008Y1795508D01*
X4675009Y1746839D02*
G01*
X4675009Y1513159D01*
X4637008Y1464490D02*
G01*
X4547501Y1374983D01*
X4164977Y1746839D02*
G01*
X4164977Y1513159D01*
X4202978Y1464490D02*
G01*
X4292485Y1374983D01*
X4292485Y1885015D02*
G01*
X4202978Y1795508D01*
X4292485Y1374983D02*
G01*
X4547501Y1374983D01*
X4292485Y1885015D02*
G01*
X4547501Y1885015D01*
X4319917Y2350084D02*
G01*
X4509909Y2350084D01*
X4600079Y2259914D01*
X4600079Y2080082D01*
X4500003Y1980006D01*
X4330077Y1980006D01*
X4239907Y2070176D01*
X4239907Y2270074D01*
X4319917Y2350084D01*
X4547501Y2425014D02*
G01*
X4637008Y2335507D01*
X4675009Y2286838D02*
G01*
X4675009Y2053158D01*
X4637008Y2004489D02*
G01*
X4547501Y1914982D01*
X4164977Y2286838D02*
G01*
X4164977Y2053158D01*
X4202978Y2004489D02*
G01*
X4292485Y1914982D01*
X4292485Y2425014D02*
G01*
X4202978Y2335507D01*
X4292485Y1914982D02*
G01*
X4547501Y1914982D01*
X4292485Y2425014D02*
G01*
X4547501Y2425014D01*
X660303Y2692786D02*
G01*
X859698Y2692786D01*
X317400Y2692786D02*
G01*
X464698Y2692786D01*
X660615Y3599985D02*
G01*
X859388Y3599985D01*
X302501Y3599985D02*
G01*
X464385Y3599985D01*
X302501Y2699986D02*
G01*
X302501Y3599985D01*
D12*
X2981624Y2259855D02*
G01*
X2902615Y2259855D01*
X2902615Y2160135D02*
G01*
X2981624Y2160135D01*
X2996864Y2175375D02*
G01*
X2996864Y2244615D01*
X2778363Y2259855D02*
G01*
X2857372Y2259855D01*
X2857372Y2160135D02*
G01*
X2778363Y2160135D01*
X2763123Y2175375D02*
G01*
X2763123Y2244615D01*
X3259853Y2368364D02*
G01*
X3259853Y2447373D01*
X3160133Y2447373D02*
G01*
X3160133Y2368364D01*
X3175373Y2353124D02*
G01*
X3244613Y2353124D01*
X3259853Y2571625D02*
G01*
X3259853Y2492616D01*
X3160133Y2492616D02*
G01*
X3160133Y2571625D01*
X3175373Y2586865D02*
G01*
X3244613Y2586865D01*
X3231624Y3279853D02*
G01*
X3152614Y3279853D01*
X3152614Y3180133D02*
G01*
X3231624Y3180133D01*
X3246864Y3195373D02*
G01*
X3246864Y3264613D01*
X3028363Y3279853D02*
G01*
X3107372Y3279853D01*
X3107372Y3180133D02*
G01*
X3028363Y3180133D01*
X3013123Y3195373D02*
G01*
X3013123Y3264613D01*
X1378366Y3280133D02*
G01*
X1457375Y3280133D01*
X1457375Y3379853D02*
G01*
X1378366Y3379853D01*
X1363126Y3364613D02*
G01*
X1363126Y3295373D01*
X1581627Y3280133D02*
G01*
X1502618Y3280133D01*
X1502618Y3379853D02*
G01*
X1581627Y3379853D01*
X1596867Y3364613D02*
G01*
X1596867Y3295373D01*
X1008367Y2530134D02*
G01*
X1087376Y2530134D01*
X1087376Y2629855D02*
G01*
X1008367Y2629855D01*
X993127Y2614615D02*
G01*
X993127Y2545374D01*
X1211628Y2530134D02*
G01*
X1132619Y2530134D01*
X1132619Y2629855D02*
G01*
X1211628Y2629855D01*
X1226868Y2614615D02*
G01*
X1226868Y2545374D01*
X2951624Y3109854D02*
G01*
X2872615Y3109854D01*
X2872615Y3010133D02*
G01*
X2951624Y3010133D01*
X2966864Y3025373D02*
G01*
X2966864Y3094614D01*
X2748363Y3109854D02*
G01*
X2827373Y3109854D01*
X2827373Y3010133D02*
G01*
X2748363Y3010133D01*
X2733123Y3025373D02*
G01*
X2733123Y3094614D01*
X1298366Y2760134D02*
G01*
X1377375Y2760134D01*
X1377375Y2859854D02*
G01*
X1298366Y2859854D01*
X1283126Y2844614D02*
G01*
X1283126Y2775374D01*
X1501627Y2760134D02*
G01*
X1422618Y2760134D01*
X1422618Y2859854D02*
G01*
X1501627Y2859854D01*
X1516867Y2844614D02*
G01*
X1516867Y2775374D01*
X1298366Y2880133D02*
G01*
X1377375Y2880133D01*
X1377375Y2979854D02*
G01*
X1298366Y2979854D01*
X1283126Y2964614D02*
G01*
X1283126Y2895373D01*
X1501627Y2880133D02*
G01*
X1422618Y2880133D01*
X1422618Y2979854D02*
G01*
X1501627Y2979854D01*
X1516867Y2964614D02*
G01*
X1516867Y2895373D01*
X2041626Y3539853D02*
G01*
X1962617Y3539853D01*
X1962617Y3440132D02*
G01*
X2041626Y3440132D01*
X2056866Y3455372D02*
G01*
X2056866Y3524613D01*
X1838365Y3539853D02*
G01*
X1917374Y3539853D01*
X1917374Y3440132D02*
G01*
X1838365Y3440132D01*
X1823125Y3455372D02*
G01*
X1823125Y3524613D01*
X2951624Y2999854D02*
G01*
X2872615Y2999854D01*
X2872615Y2900133D02*
G01*
X2951624Y2900133D01*
X2966864Y2915373D02*
G01*
X2966864Y2984614D01*
X2748363Y2999854D02*
G01*
X2827373Y2999854D01*
X2827373Y2900133D02*
G01*
X2748363Y2900133D01*
X2733123Y2915373D02*
G01*
X2733123Y2984614D01*
X2083366Y3440132D02*
G01*
X2162375Y3440132D01*
X2162375Y3539853D02*
G01*
X2083366Y3539853D01*
X2068126Y3524613D02*
G01*
X2068126Y3455372D01*
X2286627Y3440132D02*
G01*
X2207618Y3440132D01*
X2207618Y3539853D02*
G01*
X2286627Y3539853D01*
X2301867Y3524613D02*
G01*
X2301867Y3455372D01*
X2038365Y2400134D02*
G01*
X2117374Y2400134D01*
X2117374Y2499855D02*
G01*
X2038365Y2499855D01*
X2023125Y2484615D02*
G01*
X2023125Y2415374D01*
X2241626Y2400134D02*
G01*
X2162616Y2400134D01*
X2162616Y2499855D02*
G01*
X2241626Y2499855D01*
X2256866Y2484615D02*
G01*
X2256866Y2415374D01*
X1929856Y2288364D02*
G01*
X1929856Y2367373D01*
X1830136Y2367373D02*
G01*
X1830136Y2288364D01*
X1845376Y2273124D02*
G01*
X1914616Y2273124D01*
X1929856Y2491625D02*
G01*
X1929856Y2412616D01*
X1830136Y2412616D02*
G01*
X1830136Y2491625D01*
X1845376Y2506865D02*
G01*
X1914616Y2506865D01*
X1650136Y3471623D02*
G01*
X1650136Y3392614D01*
X1749856Y3392614D02*
G01*
X1749856Y3471623D01*
X1734616Y3486863D02*
G01*
X1665376Y3486863D01*
X1650136Y3268362D02*
G01*
X1650136Y3347372D01*
X1749856Y3347372D02*
G01*
X1749856Y3268362D01*
X1734616Y3253122D02*
G01*
X1665376Y3253122D01*
X1469857Y3558362D02*
G01*
X1469857Y3637371D01*
X1370136Y3637371D02*
G01*
X1370136Y3558362D01*
X1385376Y3543122D02*
G01*
X1454617Y3543122D01*
X1469857Y3761623D02*
G01*
X1469857Y3682613D01*
X1370136Y3682613D02*
G01*
X1370136Y3761623D01*
X1385376Y3776863D02*
G01*
X1454617Y3776863D01*
X1845137Y3771623D02*
G01*
X1845137Y3692613D01*
X1944855Y3692613D02*
G01*
X1944855Y3771623D01*
X1929617Y3786863D02*
G01*
X1860377Y3786863D01*
X1845137Y3568362D02*
G01*
X1845137Y3647371D01*
X1944855Y3647371D02*
G01*
X1944855Y3568362D01*
X1929617Y3553122D02*
G01*
X1860377Y3553122D01*
X1687548Y2444658D02*
G01*
X1464642Y2667566D01*
X1312438Y2515362D02*
G01*
X1535346Y2292456D01*
D13*
X2500007Y2200008D02*
G01*
X2500007Y1400009D01*
X1700009Y1400009D01*
X1700009Y2200008D01*
X2500007Y2200008D01*
D12*
X3997370Y3547371D02*
G01*
X4142613Y3547371D01*
X4142613Y3650533D01*
X3997370Y3852613D02*
G01*
X4142613Y3852613D01*
X4142613Y3749451D01*
X3997370Y3654452D02*
G01*
X3997370Y3745532D01*
X3997370Y3217372D02*
G01*
X4142613Y3217372D01*
X4142613Y3320534D01*
X3997370Y3522614D02*
G01*
X4142613Y3522614D01*
X4142613Y3419452D01*
X3997370Y3324453D02*
G01*
X3997370Y3415532D01*
X3637371Y2177374D02*
G01*
X3782613Y2177374D01*
X3782613Y2280536D01*
X3637371Y2482616D02*
G01*
X3782613Y2482616D01*
X3782613Y2379454D01*
X3637371Y2284455D02*
G01*
X3637371Y2375535D01*
X797377Y3670132D02*
G01*
X725573Y3670132D01*
X725573Y3769852D01*
X797377Y3769852D01*
X842619Y3670132D02*
G01*
X914422Y3670132D01*
X914422Y3769852D01*
X842619Y3769852D01*
X797377Y2530134D02*
G01*
X725573Y2530134D01*
X725573Y2629855D01*
X797377Y2629855D01*
X842619Y2530134D02*
G01*
X914422Y2530134D01*
X914422Y2629855D01*
X842619Y2629855D01*
X1542618Y3129854D02*
G01*
X1614421Y3129854D01*
X1614421Y3030133D01*
X1542618Y3030133D01*
X1497375Y3129854D02*
G01*
X1425572Y3129854D01*
X1425572Y3030133D01*
X1497375Y3030133D01*
X1542618Y3229853D02*
G01*
X1614421Y3229853D01*
X1614421Y3130133D01*
X1542618Y3130133D01*
X1497375Y3229853D02*
G01*
X1425572Y3229853D01*
X1425572Y3130133D01*
X1497375Y3130133D01*
X2877372Y3180133D02*
G01*
X2805569Y3180133D01*
X2805569Y3279853D01*
X2877372Y3279853D01*
X2922615Y3180133D02*
G01*
X2994418Y3180133D01*
X2994418Y3279853D01*
X2922615Y3279853D01*
X1539857Y2117374D02*
G01*
X1539857Y2045571D01*
X1440136Y2045571D01*
X1440136Y2117374D01*
X1539857Y2162616D02*
G01*
X1539857Y2234420D01*
X1440136Y2234420D01*
X1440136Y2162616D01*
X2987372Y2620134D02*
G01*
X2915569Y2620134D01*
X2915569Y2719854D01*
X2987372Y2719854D01*
X3032615Y2620134D02*
G01*
X3104418Y2620134D01*
X3104418Y2719854D01*
X3032615Y2719854D01*
X4270131Y3727612D02*
G01*
X4270131Y3799415D01*
X4369851Y3799415D01*
X4369851Y3727612D01*
X4270131Y3682370D02*
G01*
X4270131Y3610566D01*
X4369851Y3610566D01*
X4369851Y3682370D01*
X3775133Y3672613D02*
G01*
X3775133Y3744417D01*
X3874853Y3744417D01*
X3874853Y3672613D01*
X3775133Y3627371D02*
G01*
X3775133Y3555568D01*
X3874853Y3555568D01*
X3874853Y3627371D01*
X4369851Y3432370D02*
G01*
X4369851Y3360567D01*
X4270131Y3360567D01*
X4270131Y3432370D01*
X4369851Y3477613D02*
G01*
X4369851Y3549416D01*
X4270131Y3549416D01*
X4270131Y3477613D01*
X3775133Y3342614D02*
G01*
X3775133Y3414417D01*
X3874853Y3414417D01*
X3874853Y3342614D01*
X3775133Y3297372D02*
G01*
X3775133Y3225568D01*
X3874853Y3225568D01*
X3874853Y3297372D01*
X2680134Y3292614D02*
G01*
X2680134Y3364417D01*
X2779854Y3364417D01*
X2779854Y3292614D01*
X2680134Y3247372D02*
G01*
X2680134Y3175568D01*
X2779854Y3175568D01*
X2779854Y3247372D01*
X1308745Y2320734D02*
G01*
X1257973Y2371506D01*
X1328486Y2442019D01*
X1379258Y2391247D01*
X1340736Y2288743D02*
G01*
X1391508Y2237971D01*
X1462021Y2308484D01*
X1411249Y2359256D01*
X3867370Y2385133D02*
G01*
X3795567Y2385133D01*
X3795567Y2484854D01*
X3867370Y2484854D01*
X3912613Y2385133D02*
G01*
X3984416Y2385133D01*
X3984416Y2484854D01*
X3912613Y2484854D01*
X3430132Y2302616D02*
G01*
X3430132Y2374419D01*
X3529853Y2374419D01*
X3529853Y2302616D01*
X3430132Y2257374D02*
G01*
X3430132Y2185570D01*
X3529853Y2185570D01*
X3529853Y2257374D01*
D13*
X1829993Y2645895D02*
G01*
X1839678Y2645895D01*
X1865586Y2619987D01*
X1886877Y2619987D02*
G01*
X1829993Y2676875D01*
X1886877Y2619987D02*
G01*
X1829993Y2619987D01*
X2529987Y2676875D02*
G01*
X2529987Y2629989D01*
X2529987Y2619987D01*
X2473104Y2619987D01*
X2473104Y3319985D02*
G01*
X2529987Y3319985D01*
X2529987Y3263102D01*
X1829993Y3263102D02*
G01*
X1829993Y3319985D01*
X1886877Y3319985D01*
X1829993Y2619987D02*
G01*
X1829993Y2676875D01*
D14*
X2711394Y2300307D02*
G01*
X2711394Y2249507D01*
X2762194Y2249507D01*
D12*
X2737048Y2272126D02*
G01*
X2737048Y2605120D01*
X3143194Y2605107D01*
X3143194Y2440007D01*
X3143194Y2274907D01*
X3143194Y2274907D01*
X2737048Y2272126D01*
G75*
G01*
X2981625Y2160135D02*
G03*
X2996865Y2175375I0J15240D01*
G75*
G01*
X2996865Y2244616D02*
G03*
X2981625Y2259856I-15240J0D01*
G75*
G01*
X2778364Y2160135D02*
G02*
X2763124Y2175375I0J15240D01*
G75*
G01*
X2763124Y2244616D02*
G02*
X2778364Y2259856I15240J0D01*
G75*
G01*
X3160133Y2368365D02*
G03*
X3175373Y2353125I15240J0D01*
G75*
G01*
X3244614Y2353125D02*
G03*
X3259854Y2368365I0J15240D01*
G75*
G01*
X3160133Y2571626D02*
G02*
X3175373Y2586866I15240J0D01*
G75*
G01*
X3244614Y2586866D02*
G02*
X3259854Y2571626I0J-15240D01*
G75*
G01*
X3231624Y3180133D02*
G03*
X3246864Y3195373I0J15240D01*
G75*
G01*
X3246864Y3264614D02*
G03*
X3231624Y3279854I-15240J0D01*
G75*
G01*
X3028363Y3180133D02*
G02*
X3013123Y3195373I0J15240D01*
G75*
G01*
X3013123Y3264614D02*
G02*
X3028363Y3279854I15240J0D01*
G75*
G01*
X1378367Y3379854D02*
G03*
X1363127Y3364614I0J-15240D01*
G75*
G01*
X1363127Y3295373D02*
G03*
X1378367Y3280133I15240J0D01*
G75*
G01*
X1581628Y3379854D02*
G02*
X1596868Y3364614I0J-15240D01*
G75*
G01*
X1596868Y3295373D02*
G02*
X1581628Y3280133I-15240J0D01*
G75*
G01*
X1008367Y2629855D02*
G03*
X993127Y2614615I0J-15240D01*
G75*
G01*
X993127Y2545375D02*
G03*
X1008367Y2530135I15240J0D01*
G75*
G01*
X1211628Y2629855D02*
G02*
X1226868Y2614615I0J-15240D01*
G75*
G01*
X1226868Y2545375D02*
G02*
X1211628Y2530135I-15240J0D01*
G75*
G01*
X2951625Y3010134D02*
G03*
X2966865Y3025374I0J15240D01*
G75*
G01*
X2966865Y3094614D02*
G03*
X2951625Y3109854I-15240J0D01*
G75*
G01*
X2748364Y3010134D02*
G02*
X2733124Y3025374I0J15240D01*
G75*
G01*
X2733124Y3094614D02*
G02*
X2748364Y3109854I15240J0D01*
G75*
G01*
X1298367Y2859855D02*
G03*
X1283127Y2844615I0J-15240D01*
G75*
G01*
X1283127Y2775374D02*
G03*
X1298367Y2760134I15240J0D01*
G75*
G01*
X1501628Y2859855D02*
G02*
X1516868Y2844615I0J-15240D01*
G75*
G01*
X1516868Y2775374D02*
G02*
X1501628Y2760134I-15240J0D01*
G75*
G01*
X1298367Y2979854D02*
G03*
X1283127Y2964614I0J-15240D01*
G75*
G01*
X1283127Y2895374D02*
G03*
X1298367Y2880134I15240J0D01*
G75*
G01*
X1501628Y2979854D02*
G02*
X1516868Y2964614I0J-15240D01*
G75*
G01*
X1516868Y2895374D02*
G02*
X1501628Y2880134I-15240J0D01*
G75*
G01*
X2041627Y3440133D02*
G03*
X2056867Y3455373I0J15240D01*
G75*
G01*
X2056867Y3524613D02*
G03*
X2041627Y3539853I-15240J0D01*
G75*
G01*
X1838366Y3440133D02*
G02*
X1823126Y3455373I0J15240D01*
G75*
G01*
X1823126Y3524613D02*
G02*
X1838366Y3539853I15240J0D01*
G75*
G01*
X2951625Y2900134D02*
G03*
X2966865Y2915374I0J15240D01*
G75*
G01*
X2966865Y2984614D02*
G03*
X2951625Y2999854I-15240J0D01*
G75*
G01*
X2748364Y2900134D02*
G02*
X2733124Y2915374I0J15240D01*
G75*
G01*
X2733124Y2984614D02*
G02*
X2748364Y2999854I15240J0D01*
G75*
G01*
X2083366Y3539853D02*
G03*
X2068126Y3524613I0J-15240D01*
G75*
G01*
X2068126Y3455373D02*
G03*
X2083366Y3440133I15240J0D01*
G75*
G01*
X2286627Y3539853D02*
G02*
X2301867Y3524613I0J-15240D01*
G75*
G01*
X2301867Y3455373D02*
G02*
X2286627Y3440133I-15240J0D01*
G75*
G01*
X2038365Y2499855D02*
G03*
X2023125Y2484615I0J-15240D01*
G75*
G01*
X2023125Y2415375D02*
G03*
X2038365Y2400135I15240J0D01*
G75*
G01*
X2241626Y2499855D02*
G02*
X2256866Y2484615I0J-15240D01*
G75*
G01*
X2256866Y2415375D02*
G02*
X2241626Y2400135I-15240J0D01*
G75*
G01*
X1830136Y2288365D02*
G03*
X1845376Y2273125I15240J0D01*
G75*
G01*
X1914616Y2273125D02*
G03*
X1929856Y2288365I0J15240D01*
G75*
G01*
X1830136Y2491626D02*
G02*
X1845376Y2506866I15240J0D01*
G75*
G01*
X1914616Y2506866D02*
G02*
X1929856Y2491626I0J-15240D01*
G75*
G01*
X1749857Y3471624D02*
G03*
X1734617Y3486864I-15240J0D01*
G75*
G01*
X1665376Y3486864D02*
G03*
X1650136Y3471624I0J-15240D01*
G75*
G01*
X1749857Y3268363D02*
G02*
X1734617Y3253123I-15240J0D01*
G75*
G01*
X1665376Y3253123D02*
G02*
X1650136Y3268363I0J15240D01*
G75*
G01*
X1370137Y3558362D02*
G03*
X1385377Y3543122I15240J0D01*
G75*
G01*
X1454617Y3543122D02*
G03*
X1469857Y3558362I0J15240D01*
G75*
G01*
X1370137Y3761623D02*
G02*
X1385377Y3776863I15240J0D01*
G75*
G01*
X1454617Y3776863D02*
G02*
X1469857Y3761623I0J-15240D01*
G75*
G01*
X1944855Y3771623D02*
G03*
X1929618Y3786863I-15240J0D01*
G75*
G01*
X1860377Y3786863D02*
G03*
X1845137Y3771623I0J-15240D01*
G75*
G01*
X1944855Y3568362D02*
G02*
X1929618Y3553122I-15240J0D01*
G75*
G01*
X1860377Y3553122D02*
G02*
X1845137Y3568362I0J15240D01*
D15*
G75*
G01
X1840103Y3824300D02*
G03X1840103Y3824300I-15011J0D01*
D13*
G75*
G01
X4547514Y1629994D02*
G03X4547514Y1629994I-127508J0D01*
G75*
G01
X4547514Y2169998D02*
G03X4547514Y2169998I-127508J0D01*
G75*
G01
X4050005Y1390015D02*
G03X4050005Y1390015I-699999J0D01*
G75*
G01
X3477006Y1390015D02*
G03X3477006Y1390015I-127000J0D01*
D16*
G75*
G01
X1599819Y2282419D02*
G03X1599819Y2282419I-10008J0D01*
D13*
G75*
G01
X1822679Y2569997D02*
G03X1822679Y2569997I-12700J0D01*
X3245002Y2937484D02*
G01*
X4090009Y2937484D01*
X4090009Y2582494D01*
X3245002Y2582494D01*
X3245002Y2937484D01*
M02*
