G04 Layer: TopSolderMaskLayer*
G04 EasyEDA v6.5.39, 2024-01-14 11:16:20*
G04 7225f5b682534d558e40c38ebd35b67e,4e7111fa6b144b4da7037494b399c203,10*
G04 Gerber Generator version 0.2*
G04 Scale: 100 percent, Rotated: No, Reflected: No *
G04 Dimensions in millimeters *
G04 leading zeros omitted , absolute positions ,4 integer and 5 decimal *
%FSLAX45Y45*%
%MOMM*%

%AMMACRO1*1,1,$1,$2,$3*1,1,$1,$4,$5*1,1,$1,0-$2,0-$3*1,1,$1,0-$4,0-$5*20,1,$1,$2,$3,$4,$5,0*20,1,$1,$4,$5,0-$2,0-$3,0*20,1,$1,0-$2,0-$3,0-$4,0-$5,0*20,1,$1,0-$4,0-$5,$2,$3,0*4,1,4,$2,$3,$4,$5,0-$2,0-$3,0-$4,0-$5,$2,$3,0*%
%ADD10C,1.8016*%
%ADD11MACRO1,0.1016X0.8X-0.8X-0.8X-0.8*%
%ADD12C,1.7016*%
%ADD13MACRO1,0.1016X0.245X-0.5785X-0.245X-0.5785*%
%ADD14MACRO1,0.1016X0.245X-0.5875X-0.245X-0.5875*%
%ADD15MACRO1,0.1016X-0.85X0.5X0.85X0.5*%
%ADD16MACRO1,0.1X0.55X0.3X0.55X-0.3*%
%ADD17MACRO1,0.1X0.55X0.15X0.55X-0.15*%
%ADD18O,2.1000212X1.3000228*%
%ADD19O,1.9000215999999999X1.3000228*%
%ADD20C,1.9016*%
%ADD21MACRO1,0.1016X-0.395X-0.27X-0.395X0.27*%
%ADD22MACRO1,0.1016X0.395X-0.27X0.395X0.27*%
%ADD23MACRO1,0.1016X-0.27X0.395X0.27X0.395*%
%ADD24MACRO1,0.1016X-0.27X-0.395X0.27X-0.395*%
%ADD25MACRO1,0.1016X0.395X0.27X0.395X-0.27*%
%ADD26MACRO1,0.1016X-0.395X0.27X-0.395X-0.27*%
%ADD27R,0.6416X0.8917*%
%ADD28MACRO1,0.1016X-0.1131X0.3111X0.3111X-0.1131*%
%ADD29MACRO1,0.1016X-0.495X-0.7071X-0.7071X-0.495*%
%ADD30C,3.1016*%
%ADD31MACRO1,0.1016X0.625X-0.35X-0.625X-0.35*%
%ADD32MACRO1,0.1016X-0.2828X-0.27X-0.2828X0.27*%
%ADD33MACRO1,0.1016X0.2828X-0.27X0.2828X0.27*%
%ADD34MACRO1,0.1016X0.2828X0.27X0.2828X-0.27*%
%ADD35MACRO1,0.1016X-0.2828X0.27X-0.2828X-0.27*%
%ADD36R,0.6416X0.6673*%
%ADD37MACRO1,0.1016X-0.27X0.2828X0.27X0.2828*%
%ADD38MACRO1,0.1016X-0.27X-0.2828X0.27X-0.2828*%
%ADD39MACRO1,0.1016X-0.3909X0.0091X-0.0091X0.3909*%
%ADD40MACRO1,0.1016X0.0091X-0.3909X0.3909X-0.0091*%
%ADD41R,0.3000X1.2000*%
%ADD42MACRO1,0.1X0.55X-0.1X-0.55X-0.1*%
%ADD43MACRO1,0.1X0.1X0.55X0.1X-0.55*%
%ADD44MACRO1,0.1X-0.55X0.1X0.55X0.1*%
%ADD45R,3.2000X3.2000*%
%ADD46MACRO1,0.1016X-0.7X0.6X0.7X0.6*%
%ADD47C,0.0178*%

%LPD*%
D10*
G01*
X4747056Y3326104D03*
G01*
X4493056Y3326104D03*
G01*
X4747056Y3580104D03*
G01*
X4493056Y3580104D03*
G01*
X4747056Y3834104D03*
G01*
X4493056Y3834104D03*
D11*
G01*
X4743957Y2886964D03*
G01*
X4743957Y2632964D03*
D12*
G01*
X4489958Y2886963D03*
G01*
X4489958Y2632963D03*
G01*
X4235958Y2886963D03*
G01*
X4235958Y2632963D03*
D13*
G01*
X1754992Y3825359D03*
G01*
X1659996Y3825359D03*
G01*
X1565000Y3825359D03*
D14*
G01*
X1565000Y3594625D03*
G01*
X1754992Y3594625D03*
D15*
G01*
X4089994Y1815015D03*
G01*
X4749993Y1815020D03*
G01*
X4089994Y1444978D03*
G01*
X4749993Y1444980D03*
G01*
X4089994Y2355014D03*
G01*
X4749993Y2355019D03*
G01*
X4089994Y1984976D03*
G01*
X4749993Y1984979D03*
D16*
G01*
X1037502Y3469995D03*
G01*
X1037502Y3389985D03*
D17*
G01*
X1037502Y3324987D03*
G01*
X1037502Y3274974D03*
G01*
X1037502Y3224987D03*
G01*
X1037502Y3175000D03*
G01*
X1037502Y3124987D03*
G01*
X1037502Y3075000D03*
G01*
X1037502Y3024987D03*
G01*
X1037502Y2974975D03*
D16*
G01*
X1037502Y2909976D03*
G01*
X1037502Y2829991D03*
D18*
G01*
X982522Y3582492D03*
G01*
X982522Y2717495D03*
D19*
G01*
X562508Y3582492D03*
G01*
X562508Y2717495D03*
D20*
G01*
X3599992Y1390014D03*
G01*
X3099993Y1390014D03*
D21*
G01*
X2934500Y2209995D03*
D22*
G01*
X2825488Y2209995D03*
D23*
G01*
X3209993Y2415489D03*
D24*
G01*
X3209993Y2524500D03*
D21*
G01*
X3184499Y3229993D03*
D22*
G01*
X3075487Y3229993D03*
D25*
G01*
X1425491Y3329993D03*
D26*
G01*
X1534502Y3329993D03*
D25*
G01*
X1055491Y2579994D03*
D26*
G01*
X1164503Y2579994D03*
D21*
G01*
X2904500Y3059993D03*
D22*
G01*
X2795488Y3059993D03*
D25*
G01*
X1345491Y2809994D03*
D26*
G01*
X1454503Y2809994D03*
D25*
G01*
X1345491Y2929994D03*
D26*
G01*
X1454503Y2929994D03*
D21*
G01*
X1994501Y3489993D03*
D22*
G01*
X1885490Y3489993D03*
D21*
G01*
X2904500Y2949994D03*
D22*
G01*
X2795488Y2949994D03*
D25*
G01*
X2130491Y3489993D03*
D26*
G01*
X2239502Y3489993D03*
D25*
G01*
X2085489Y2449995D03*
D26*
G01*
X2194501Y2449995D03*
D23*
G01*
X1879996Y2335489D03*
D24*
G01*
X1879996Y2444501D03*
D27*
G01*
X1699996Y3424504D03*
G01*
X1699996Y3315487D03*
D23*
G01*
X1419997Y3605486D03*
D24*
G01*
X1419997Y3714498D03*
D27*
G01*
X1894992Y3724503D03*
G01*
X1894992Y3615486D03*
D28*
G01*
X1553550Y2320375D03*
G01*
X1588914Y2355738D03*
G01*
X1624260Y2391084D03*
G01*
X1659624Y2426449D03*
G01*
X1340369Y2533554D03*
G01*
X1375733Y2568919D03*
G01*
X1411079Y2604265D03*
G01*
X1446443Y2639630D03*
D29*
G01*
X1499993Y2480001D03*
D30*
G01*
X1750009Y2049983D03*
G01*
X1750009Y1549984D03*
G01*
X2450007Y2049983D03*
G01*
X2450007Y1549984D03*
D31*
G01*
X3969992Y3794988D03*
G01*
X3969992Y3604997D03*
G01*
X4169991Y3699993D03*
G01*
X3969992Y3464989D03*
G01*
X3969992Y3274998D03*
G01*
X4169991Y3369994D03*
G01*
X3609992Y2424991D03*
G01*
X3609992Y2235000D03*
G01*
X3809992Y2329996D03*
D32*
G01*
X863281Y3719992D03*
D33*
G01*
X776715Y3719992D03*
D32*
G01*
X863281Y2579994D03*
D33*
G01*
X776715Y2579994D03*
D34*
G01*
X1476714Y3079993D03*
D35*
G01*
X1563279Y3079993D03*
D34*
G01*
X1476714Y3179993D03*
D35*
G01*
X1563279Y3179993D03*
D32*
G01*
X2943277Y3229993D03*
D33*
G01*
X2856711Y3229993D03*
D36*
G01*
X1489989Y2183282D03*
G01*
X1489989Y2096719D03*
D32*
G01*
X3053276Y2669994D03*
D33*
G01*
X2966711Y2669994D03*
D37*
G01*
X4319991Y3661708D03*
D38*
G01*
X4319991Y3748274D03*
D37*
G01*
X3824993Y3606709D03*
D38*
G01*
X3824993Y3693275D03*
D36*
G01*
X4319981Y3498265D03*
G01*
X4319981Y3411702D03*
D37*
G01*
X3824993Y3276710D03*
D38*
G01*
X3824993Y3363276D03*
D37*
G01*
X2729994Y3226710D03*
D38*
G01*
X2729994Y3313276D03*
D39*
G01*
X1390603Y2309389D03*
D40*
G01*
X1329391Y2370601D03*
D32*
G01*
X3933275Y2434993D03*
D33*
G01*
X3846709Y2434993D03*
D37*
G01*
X3479993Y2236712D03*
D38*
G01*
X3479993Y2323278D03*
D41*
G01*
X1919986Y2614980D03*
G01*
X1959990Y2614980D03*
G01*
X1999995Y2614980D03*
G01*
X2040000Y2614980D03*
G01*
X2079980Y2614980D03*
G01*
X2119985Y2614980D03*
G01*
X2159990Y2614980D03*
G01*
X2199995Y2614980D03*
G01*
X2240000Y2614980D03*
G01*
X2279980Y2614980D03*
G01*
X2319985Y2614980D03*
G01*
X2359990Y2614980D03*
G01*
X2399995Y2614980D03*
G01*
X2440000Y2614980D03*
D42*
G01*
X2534991Y2709999D03*
G01*
X2534991Y2749979D03*
G01*
X2534991Y2789984D03*
G01*
X2534991Y2829989D03*
G01*
X2534991Y2869994D03*
G01*
X2534991Y2909999D03*
G01*
X2534991Y2949978D03*
G01*
X2534991Y2989983D03*
G01*
X2534991Y3029988D03*
G01*
X2534991Y3069993D03*
G01*
X2534991Y3109998D03*
G01*
X2534991Y3149978D03*
G01*
X2534991Y3189983D03*
G01*
X2534991Y3229988D03*
D43*
G01*
X2440002Y3325002D03*
G01*
X2399997Y3325002D03*
G01*
X2359992Y3325002D03*
G01*
X2319987Y3325002D03*
G01*
X2279982Y3325002D03*
G01*
X2240003Y3325002D03*
G01*
X2199998Y3325002D03*
G01*
X2159993Y3325002D03*
G01*
X2119988Y3325002D03*
G01*
X2079983Y3325002D03*
G01*
X2040003Y3325002D03*
G01*
X1999998Y3325002D03*
G01*
X1959993Y3325002D03*
G01*
X1919988Y3325002D03*
D44*
G01*
X1825000Y3229988D03*
G01*
X1825000Y3189983D03*
G01*
X1825000Y3149978D03*
G01*
X1825000Y3109998D03*
G01*
X1825000Y3069993D03*
G01*
X1825000Y3029988D03*
G01*
X1825000Y2989983D03*
G01*
X1825000Y2949978D03*
G01*
X1825000Y2909999D03*
G01*
X1825000Y2869994D03*
G01*
X1825000Y2829989D03*
G01*
X1825000Y2789984D03*
G01*
X1825000Y2749979D03*
G01*
X1825000Y2709999D03*
D45*
G01*
X2179980Y2969996D03*
D46*
G01*
X2829994Y2352504D03*
G01*
X3049993Y2352504D03*
G01*
X3049993Y2527510D03*
G01*
X2829994Y2527505D03*
M02*
