G04 Layer: TopLayer*
G04 EasyEDA v6.5.39, 2024-01-14 11:16:20*
G04 7225f5b682534d558e40c38ebd35b67e,4e7111fa6b144b4da7037494b399c203,10*
G04 Gerber Generator version 0.2*
G04 Scale: 100 percent, Rotated: No, Reflected: No *
G04 Dimensions in millimeters *
G04 leading zeros omitted , absolute positions ,4 integer and 5 decimal *
%FSLAX45Y45*%
%MOMM*%

%AMMACRO1*21,1,$1,$2,0,0,$3*%
%ADD10C,0.3500*%
%ADD11C,0.2000*%
%ADD12C,0.3000*%
%ADD13C,0.1700*%
%ADD14R,0.4900X1.1570*%
%ADD15R,0.4900X1.1750*%
%ADD16R,1.7000X1.0000*%
%ADD17R,1.1000X0.6000*%
%ADD18R,1.1000X0.3000*%
%ADD19MACRO1,0.54X0.7901X90.0000*%
%ADD20MACRO1,0.54X0.7901X0.0000*%
%ADD21R,0.5400X0.7901*%
%ADD22MACRO1,0.54X0.7901X-90.0000*%
%ADD23MACRO1,0.6X0.28X-45.0017*%
%ADD24MACRO1,0.6X0.28X-45.0000*%
%ADD25MACRO1,0.6X0.28X-44.9983*%
%ADD26MACRO1,0.3X1.7X134.9966*%
%ADD27R,1.2500X0.7000*%
%ADD28MACRO1,0.54X0.5656X90.0000*%
%ADD29MACRO1,0.54X0.5656X-90.0000*%
%ADD30MACRO1,0.54X0.5656X0.0000*%
%ADD31R,0.5400X0.5657*%
%ADD32MACRO1,0.54X0.5656X45.0000*%
%ADD33R,0.2000X1.1000*%
%ADD34R,1.1000X0.2000*%
%ADD35R,3.1000X3.1000*%
%ADD36R,1.4000X1.2000*%
%ADD37C,1.7000*%
%ADD38R,1.6000X1.6000*%
%ADD39C,1.6000*%
%ADD40O,1.9999959999999999X1.1999976*%
%ADD41O,1.7999964X1.1999976*%
%ADD42C,1.8000*%
%ADD43C,3.0000*%
%ADD44C,0.7000*%
%ADD45C,0.6000*%
%ADD46C,0.0121*%

%LPD*%
G36*
X3349751Y665937D02*
G01*
X3312464Y666902D01*
X3275279Y669798D01*
X3238296Y674573D01*
X3201568Y681278D01*
X3165297Y689864D01*
X3129483Y700328D01*
X3094278Y712571D01*
X3059734Y726643D01*
X3025952Y742492D01*
X2993034Y760018D01*
X2961081Y779221D01*
X2930144Y800100D01*
X2900324Y822502D01*
X2871673Y846378D01*
X2844342Y871728D01*
X2818282Y898448D01*
X2793695Y926490D01*
X2770784Y955548D01*
X2730144Y1016253D01*
X2709824Y1041603D01*
X2687929Y1065682D01*
X2664612Y1088339D01*
X2639974Y1109472D01*
X2614015Y1129080D01*
X2586939Y1147064D01*
X2558796Y1163320D01*
X2529687Y1177798D01*
X2499766Y1190447D01*
X2469083Y1201267D01*
X2437841Y1210106D01*
X2406091Y1217015D01*
X2373934Y1221994D01*
X2341575Y1224940D01*
X2309825Y1225905D01*
X1900529Y1225905D01*
X1869897Y1226870D01*
X1840280Y1229715D01*
X1810867Y1234389D01*
X1781810Y1240891D01*
X1753209Y1249222D01*
X1725168Y1259332D01*
X1697837Y1271168D01*
X1671320Y1284732D01*
X1645716Y1299921D01*
X1621078Y1316634D01*
X1597558Y1334922D01*
X1575257Y1354632D01*
X1554175Y1375714D01*
X1534515Y1398066D01*
X1516278Y1421587D01*
X1499565Y1446225D01*
X1484426Y1471879D01*
X1470914Y1498447D01*
X1459077Y1525778D01*
X1449019Y1553819D01*
X1440738Y1582420D01*
X1434287Y1611477D01*
X1429613Y1640890D01*
X1426819Y1670557D01*
X1425905Y1700530D01*
X1425905Y1799843D01*
X1424787Y1833930D01*
X1421638Y1866849D01*
X1416405Y1899462D01*
X1409141Y1931670D01*
X1399844Y1963369D01*
X1388618Y1994458D01*
X1375460Y2024735D01*
X1360373Y2054148D01*
X1343507Y2082546D01*
X1324914Y2109876D01*
X1304594Y2135936D01*
X1282700Y2160676D01*
X1259332Y2183993D01*
X1234490Y2205786D01*
X1208328Y2226005D01*
X1180998Y2244496D01*
X1152550Y2261311D01*
X1123086Y2276246D01*
X1092708Y2289302D01*
X1061618Y2300427D01*
X1029868Y2309571D01*
X997610Y2316734D01*
X964996Y2321864D01*
X932078Y2324912D01*
X899820Y2325878D01*
X800201Y2325928D01*
X769924Y2326894D01*
X740257Y2329688D01*
X710844Y2334361D01*
X681786Y2340914D01*
X653186Y2349246D01*
X625195Y2359355D01*
X597865Y2371191D01*
X571347Y2384704D01*
X545693Y2399893D01*
X521106Y2416657D01*
X497585Y2434945D01*
X475234Y2454656D01*
X454202Y2475687D01*
X434543Y2498039D01*
X416306Y2521610D01*
X399542Y2546248D01*
X384403Y2571902D01*
X370890Y2598420D01*
X359105Y2625750D01*
X349046Y2653792D01*
X340766Y2682392D01*
X334264Y2711500D01*
X329641Y2740914D01*
X326847Y2770530D01*
X325932Y2800553D01*
X325932Y3499459D01*
X326898Y3530092D01*
X329692Y3559708D01*
X334365Y3589121D01*
X340918Y3618179D01*
X349250Y3646779D01*
X359359Y3674821D01*
X371195Y3702151D01*
X384708Y3728669D01*
X399897Y3754272D01*
X416661Y3778910D01*
X434949Y3802430D01*
X454659Y3824732D01*
X475691Y3845814D01*
X498043Y3865473D01*
X521614Y3883710D01*
X546252Y3900424D01*
X571906Y3915562D01*
X598424Y3929075D01*
X625754Y3940911D01*
X653796Y3950970D01*
X682396Y3959250D01*
X711504Y3965701D01*
X740918Y3970375D01*
X770534Y3973169D01*
X800557Y3974084D01*
X4963922Y3974084D01*
X4967833Y3973322D01*
X4971084Y3971086D01*
X4973320Y3967835D01*
X4974082Y3963924D01*
X4974082Y1700530D01*
X4973116Y1669897D01*
X4970272Y1640281D01*
X4965598Y1610868D01*
X4959096Y1581810D01*
X4950764Y1553210D01*
X4940655Y1525168D01*
X4928819Y1497838D01*
X4915255Y1471320D01*
X4900066Y1445717D01*
X4883353Y1421079D01*
X4879086Y1415592D01*
X4876139Y1413052D01*
X4872482Y1411782D01*
X4868621Y1411986D01*
X4865065Y1413611D01*
X4798822Y1413611D01*
X4798822Y1369060D01*
X4814265Y1369060D01*
X4818227Y1368247D01*
X4821580Y1365961D01*
X4823764Y1362506D01*
X4824425Y1358493D01*
X4823460Y1354531D01*
X4820970Y1351280D01*
X4801920Y1334516D01*
X4778400Y1316278D01*
X4753762Y1299565D01*
X4728108Y1284427D01*
X4701540Y1270914D01*
X4674209Y1259078D01*
X4646168Y1249019D01*
X4617567Y1240739D01*
X4588510Y1234287D01*
X4559096Y1229614D01*
X4529429Y1226820D01*
X4499457Y1225905D01*
X4390136Y1225905D01*
X4356608Y1224838D01*
X4324248Y1221740D01*
X4292092Y1216710D01*
X4260392Y1209649D01*
X4229150Y1200708D01*
X4198518Y1189786D01*
X4168597Y1177036D01*
X4139590Y1162456D01*
X4111498Y1146098D01*
X4084472Y1128014D01*
X4058615Y1108354D01*
X4033977Y1087069D01*
X4010761Y1064361D01*
X3988968Y1040231D01*
X3968292Y1014171D01*
X3929227Y955548D01*
X3905961Y926084D01*
X3881323Y898093D01*
X3855313Y871372D01*
X3827932Y846023D01*
X3799281Y822147D01*
X3769410Y799795D01*
X3738473Y778967D01*
X3706520Y759764D01*
X3673601Y742238D01*
X3639769Y726440D01*
X3605225Y712419D01*
X3570020Y700176D01*
X3534206Y689762D01*
X3497884Y681177D01*
X3461207Y674522D01*
X3424224Y669747D01*
X3387039Y666851D01*
G37*

%LPC*%
G36*
X3592728Y1274318D02*
G01*
X3607257Y1274318D01*
X3621684Y1276146D01*
X3635806Y1279804D01*
X3649319Y1285138D01*
X3662070Y1292148D01*
X3673856Y1300683D01*
X3684473Y1310690D01*
X3693769Y1321866D01*
X3701542Y1334160D01*
X3707739Y1347317D01*
X3712260Y1361186D01*
X3714953Y1375460D01*
X3715867Y1389989D01*
X3714953Y1404518D01*
X3712260Y1418793D01*
X3707739Y1432661D01*
X3701542Y1445818D01*
X3693769Y1458112D01*
X3684473Y1469339D01*
X3673856Y1479296D01*
X3662070Y1487830D01*
X3649319Y1494840D01*
X3635806Y1500225D01*
X3621684Y1503832D01*
X3607257Y1505661D01*
X3592728Y1505661D01*
X3578301Y1503832D01*
X3564178Y1500225D01*
X3550665Y1494840D01*
X3537915Y1487830D01*
X3526129Y1479296D01*
X3515512Y1469339D01*
X3506215Y1458112D01*
X3498443Y1445818D01*
X3492246Y1432661D01*
X3487724Y1418793D01*
X3485032Y1404518D01*
X3484118Y1389989D01*
X3485032Y1375460D01*
X3487724Y1361186D01*
X3492246Y1347317D01*
X3498443Y1334160D01*
X3506215Y1321866D01*
X3515512Y1310690D01*
X3526129Y1300683D01*
X3537915Y1292148D01*
X3550665Y1285138D01*
X3564178Y1279804D01*
X3578301Y1276146D01*
G37*
G36*
X3151327Y1286256D02*
G01*
X3162096Y1292148D01*
X3173882Y1300683D01*
X3184448Y1310690D01*
X3193745Y1321866D01*
X3201568Y1334160D01*
X3203651Y1338630D01*
X3151327Y1338630D01*
G37*
G36*
X3048660Y1286256D02*
G01*
X3048660Y1338630D01*
X2996336Y1338630D01*
X2998419Y1334160D01*
X3006242Y1321866D01*
X3015538Y1310690D01*
X3026105Y1300683D01*
X3037890Y1292148D01*
G37*
G36*
X4138828Y1369060D02*
G01*
X4174439Y1369060D01*
X4180738Y1369771D01*
X4186224Y1371701D01*
X4191101Y1374749D01*
X4195216Y1378864D01*
X4198264Y1383741D01*
X4200194Y1389227D01*
X4200906Y1395526D01*
X4200906Y1413611D01*
X4138828Y1413611D01*
G37*
G36*
X4005579Y1369060D02*
G01*
X4041140Y1369060D01*
X4041140Y1413611D01*
X3979062Y1413611D01*
X3979062Y1395526D01*
X3979773Y1389227D01*
X3981704Y1383741D01*
X3984802Y1378864D01*
X3988866Y1374749D01*
X3993794Y1371701D01*
X3999229Y1369771D01*
G37*
G36*
X4665573Y1369060D02*
G01*
X4701133Y1369060D01*
X4701133Y1413611D01*
X4639106Y1413611D01*
X4639106Y1395526D01*
X4639818Y1389227D01*
X4641697Y1383792D01*
X4644796Y1378864D01*
X4648860Y1374800D01*
X4653788Y1371701D01*
X4659223Y1369771D01*
G37*
G36*
X2368651Y1394256D02*
G01*
X2368651Y1468628D01*
X2294280Y1468628D01*
X2299208Y1459433D01*
X2309317Y1444447D01*
X2320899Y1430528D01*
X2333853Y1417878D01*
X2348077Y1406652D01*
X2363368Y1396898D01*
G37*
G36*
X1668627Y1394256D02*
G01*
X1668627Y1468628D01*
X1594307Y1468628D01*
X1599184Y1459433D01*
X1609293Y1444447D01*
X1620926Y1430528D01*
X1633880Y1417878D01*
X1648104Y1406652D01*
X1663344Y1396898D01*
G37*
G36*
X1831339Y1394256D02*
G01*
X1836623Y1396898D01*
X1851914Y1406652D01*
X1866138Y1417878D01*
X1879092Y1430528D01*
X1890674Y1444447D01*
X1900783Y1459433D01*
X1905711Y1468628D01*
X1831339Y1468628D01*
G37*
G36*
X2531364Y1394256D02*
G01*
X2536647Y1396898D01*
X2551887Y1406652D01*
X2566111Y1417878D01*
X2579065Y1430528D01*
X2590698Y1444447D01*
X2600807Y1459433D01*
X2605684Y1468628D01*
X2531364Y1468628D01*
G37*
G36*
X2996336Y1441348D02*
G01*
X3048660Y1441348D01*
X3048660Y1493774D01*
X3037890Y1487830D01*
X3026105Y1479296D01*
X3015538Y1469339D01*
X3006242Y1458112D01*
X2998419Y1445818D01*
G37*
G36*
X3151327Y1441348D02*
G01*
X3203651Y1441348D01*
X3201568Y1445818D01*
X3193745Y1458112D01*
X3184448Y1469339D01*
X3173882Y1479296D01*
X3162096Y1487830D01*
X3151327Y1493774D01*
G37*
G36*
X4138828Y1476349D02*
G01*
X4200906Y1476349D01*
X4200906Y1494383D01*
X4200194Y1500733D01*
X4198264Y1506169D01*
X4195216Y1511096D01*
X4191101Y1515160D01*
X4186224Y1518259D01*
X4180738Y1520190D01*
X4174439Y1520901D01*
X4138828Y1520901D01*
G37*
G36*
X4639106Y1476349D02*
G01*
X4701133Y1476349D01*
X4701133Y1520901D01*
X4665573Y1520901D01*
X4659223Y1520190D01*
X4653788Y1518259D01*
X4648860Y1515160D01*
X4644796Y1511096D01*
X4641697Y1506169D01*
X4639818Y1500733D01*
X4639106Y1494434D01*
G37*
G36*
X4798822Y1476349D02*
G01*
X4860899Y1476349D01*
X4860899Y1494434D01*
X4860188Y1500733D01*
X4858258Y1506169D01*
X4855210Y1511096D01*
X4851095Y1515160D01*
X4846218Y1518259D01*
X4840732Y1520190D01*
X4834432Y1520901D01*
X4798822Y1520901D01*
G37*
G36*
X3979062Y1476349D02*
G01*
X4041140Y1476349D01*
X4041140Y1520901D01*
X4005579Y1520901D01*
X3999229Y1520190D01*
X3993794Y1518259D01*
X3988866Y1515160D01*
X3984802Y1511096D01*
X3981704Y1506169D01*
X3979773Y1500733D01*
X3979062Y1494383D01*
G37*
G36*
X2294128Y1631340D02*
G01*
X2368651Y1631340D01*
X2368651Y1706219D01*
X2367381Y1705102D01*
X2355596Y1698396D01*
X2340813Y1687931D01*
X2327249Y1675942D01*
X2314905Y1662684D01*
X2304084Y1648206D01*
X2294737Y1632661D01*
G37*
G36*
X1594104Y1631340D02*
G01*
X1668627Y1631340D01*
X1668627Y1706219D01*
X1667408Y1705102D01*
X1655572Y1698396D01*
X1640839Y1687931D01*
X1627225Y1675942D01*
X1614932Y1662684D01*
X1604060Y1648206D01*
X1594713Y1632661D01*
G37*
G36*
X1831339Y1631340D02*
G01*
X1905863Y1631340D01*
X1905254Y1632661D01*
X1895906Y1648206D01*
X1885086Y1662684D01*
X1872742Y1675942D01*
X1859178Y1687931D01*
X1844395Y1698396D01*
X1832610Y1705102D01*
X1831339Y1706219D01*
G37*
G36*
X2531364Y1631340D02*
G01*
X2605887Y1631340D01*
X2605278Y1632661D01*
X2595930Y1648206D01*
X2585059Y1662684D01*
X2572766Y1675942D01*
X2559151Y1687931D01*
X2544419Y1698396D01*
X2532583Y1705102D01*
X2531364Y1706219D01*
G37*
G36*
X1670608Y1719580D02*
G01*
X1671624Y1721104D01*
X1674926Y1723339D01*
X1678787Y1724101D01*
X1821180Y1724101D01*
X1825091Y1723339D01*
X1828393Y1721104D01*
X1829358Y1719580D01*
X1829816Y1720443D01*
X1833321Y1723136D01*
X1837588Y1724101D01*
X2362403Y1724101D01*
X2366670Y1723136D01*
X2370175Y1720443D01*
X2370632Y1719580D01*
X2371598Y1721104D01*
X2374900Y1723339D01*
X2378811Y1724101D01*
X2521204Y1724101D01*
X2525064Y1723339D01*
X2528366Y1721104D01*
X2529382Y1719580D01*
X2529789Y1720443D01*
X2533294Y1723136D01*
X2537612Y1724101D01*
X3899458Y1724101D01*
X3907434Y1724914D01*
X3914597Y1727250D01*
X3921201Y1731060D01*
X3925671Y1734870D01*
X3961892Y1771091D01*
X3964990Y1773224D01*
X3968648Y1774037D01*
X3972407Y1773478D01*
X3975658Y1771599D01*
X3978046Y1768652D01*
X3979164Y1765046D01*
X3979773Y1759254D01*
X3981704Y1753819D01*
X3984802Y1748891D01*
X3988866Y1744827D01*
X3993794Y1741728D01*
X3999229Y1739798D01*
X4005579Y1739087D01*
X4174439Y1739087D01*
X4180738Y1739798D01*
X4186224Y1741728D01*
X4191101Y1744827D01*
X4195216Y1748891D01*
X4198264Y1753819D01*
X4200194Y1759254D01*
X4200906Y1765604D01*
X4200906Y1768957D01*
X4201668Y1772818D01*
X4203903Y1776120D01*
X4207154Y1778355D01*
X4211066Y1779117D01*
X4628946Y1779117D01*
X4632807Y1778355D01*
X4636109Y1776120D01*
X4638294Y1772818D01*
X4639106Y1768957D01*
X4639106Y1765604D01*
X4639818Y1759254D01*
X4641697Y1753819D01*
X4644796Y1748891D01*
X4648860Y1744827D01*
X4653788Y1741728D01*
X4659223Y1739849D01*
X4665573Y1739087D01*
X4834432Y1739087D01*
X4840732Y1739849D01*
X4846218Y1741728D01*
X4851095Y1744827D01*
X4855210Y1748891D01*
X4858258Y1753819D01*
X4860188Y1759254D01*
X4860899Y1765604D01*
X4860899Y1864461D01*
X4860188Y1870760D01*
X4858258Y1876247D01*
X4855210Y1881124D01*
X4851095Y1885238D01*
X4846218Y1888286D01*
X4840173Y1890420D01*
X4836617Y1892554D01*
X4834229Y1895957D01*
X4833366Y1900021D01*
X4834229Y1904085D01*
X4836617Y1907438D01*
X4840173Y1909572D01*
X4846218Y1911705D01*
X4851095Y1914753D01*
X4855210Y1918868D01*
X4858258Y1923745D01*
X4860188Y1929231D01*
X4860899Y1935530D01*
X4860899Y2034387D01*
X4860188Y2040737D01*
X4858258Y2046173D01*
X4855210Y2051100D01*
X4851095Y2055164D01*
X4846218Y2058263D01*
X4840732Y2060193D01*
X4834432Y2060905D01*
X4665573Y2060905D01*
X4659223Y2060193D01*
X4653788Y2058263D01*
X4648860Y2055164D01*
X4644796Y2051100D01*
X4641697Y2046173D01*
X4639818Y2040737D01*
X4639106Y2034387D01*
X4639106Y2031034D01*
X4638294Y2027174D01*
X4636109Y2023872D01*
X4632807Y2021687D01*
X4628946Y2020874D01*
X4211066Y2020874D01*
X4207154Y2021687D01*
X4203903Y2023872D01*
X4201668Y2027174D01*
X4200906Y2031034D01*
X4200906Y2034387D01*
X4199991Y2043023D01*
X4199991Y2145030D01*
X4200753Y2148890D01*
X4202988Y2152192D01*
X4514951Y2464206D01*
X4520031Y2470454D01*
X4523435Y2477109D01*
X4525416Y2484475D01*
X4525873Y2490368D01*
X4525873Y2526538D01*
X4526534Y2530246D01*
X4528515Y2533396D01*
X4531512Y2535682D01*
X4542891Y2541270D01*
X4554423Y2548940D01*
X4564837Y2558084D01*
X4573981Y2568498D01*
X4581652Y2580030D01*
X4587798Y2592425D01*
X4592218Y2605582D01*
X4594961Y2619146D01*
X4595825Y2632964D01*
X4594961Y2646781D01*
X4592218Y2660345D01*
X4587798Y2673502D01*
X4581652Y2685897D01*
X4573981Y2697429D01*
X4564837Y2707843D01*
X4554423Y2716987D01*
X4542891Y2724658D01*
X4530496Y2730804D01*
X4517339Y2735224D01*
X4503775Y2737967D01*
X4489958Y2738831D01*
X4476140Y2737967D01*
X4462576Y2735224D01*
X4449419Y2730804D01*
X4437024Y2724658D01*
X4425492Y2716987D01*
X4415078Y2707843D01*
X4405934Y2697429D01*
X4398264Y2685897D01*
X4392117Y2673502D01*
X4387697Y2660345D01*
X4384954Y2646781D01*
X4384090Y2632964D01*
X4384954Y2619146D01*
X4387697Y2605582D01*
X4392117Y2592425D01*
X4398264Y2580030D01*
X4405934Y2568498D01*
X4415078Y2558084D01*
X4425492Y2548940D01*
X4437024Y2541270D01*
X4448403Y2535682D01*
X4451400Y2533396D01*
X4453382Y2530246D01*
X4454042Y2526538D01*
X4454042Y2509062D01*
X4453280Y2505151D01*
X4451096Y2501849D01*
X4379620Y2430424D01*
X4376166Y2428138D01*
X4372102Y2427427D01*
X4368139Y2428392D01*
X4364837Y2430881D01*
X4358944Y2441194D01*
X4355134Y2445664D01*
X4279290Y2521559D01*
X4277106Y2524709D01*
X4276293Y2528468D01*
X4276902Y2532227D01*
X4278884Y2535529D01*
X4281982Y2537866D01*
X4288891Y2541270D01*
X4300423Y2548940D01*
X4310837Y2558084D01*
X4319981Y2568498D01*
X4327652Y2580030D01*
X4333798Y2592425D01*
X4338218Y2605582D01*
X4340961Y2619146D01*
X4341825Y2632964D01*
X4340961Y2646781D01*
X4338218Y2660345D01*
X4333798Y2673502D01*
X4327652Y2685897D01*
X4319981Y2697429D01*
X4310837Y2707843D01*
X4300423Y2716987D01*
X4288891Y2724658D01*
X4276496Y2730804D01*
X4263339Y2735224D01*
X4249775Y2737967D01*
X4235958Y2738831D01*
X4222140Y2737967D01*
X4208576Y2735224D01*
X4195419Y2730804D01*
X4183024Y2724658D01*
X4171492Y2716987D01*
X4161078Y2707843D01*
X4151934Y2697429D01*
X4144264Y2685897D01*
X4138117Y2673502D01*
X4133697Y2660345D01*
X4130954Y2646781D01*
X4130090Y2632964D01*
X4130954Y2619146D01*
X4133697Y2605582D01*
X4138117Y2592425D01*
X4144264Y2580030D01*
X4151934Y2568498D01*
X4161078Y2558084D01*
X4171492Y2548940D01*
X4183024Y2541270D01*
X4200194Y2532634D01*
X4202633Y2529382D01*
X4203598Y2525420D01*
X4204106Y2509164D01*
X4204563Y2504338D01*
X4205173Y2501493D01*
X4206544Y2497074D01*
X4207713Y2494432D01*
X4209948Y2490419D01*
X4211624Y2488082D01*
X4214825Y2484424D01*
X4287012Y2412187D01*
X4289247Y2408885D01*
X4290009Y2405024D01*
X4289247Y2401112D01*
X4287012Y2397810D01*
X4215841Y2326640D01*
X4212539Y2324455D01*
X4208678Y2323642D01*
X4138828Y2323642D01*
X4138828Y2300173D01*
X4138066Y2296261D01*
X4135882Y2292959D01*
X4132579Y2290775D01*
X4128668Y2290013D01*
X4051300Y2290013D01*
X4047439Y2290775D01*
X4044137Y2292959D01*
X4041901Y2296261D01*
X4041140Y2300173D01*
X4041140Y2323642D01*
X3995165Y2323642D01*
X3991254Y2324455D01*
X3987952Y2326640D01*
X3985768Y2329942D01*
X3985006Y2333802D01*
X3985006Y2376220D01*
X3985768Y2380081D01*
X3987952Y2383383D01*
X3991254Y2385568D01*
X3995165Y2386380D01*
X4041140Y2386380D01*
X4041140Y2430932D01*
X4005579Y2430932D01*
X3998772Y2430170D01*
X3994556Y2430576D01*
X3990848Y2432659D01*
X3988358Y2436114D01*
X3987444Y2440279D01*
X3987444Y2461412D01*
X3986733Y2467762D01*
X3984853Y2473198D01*
X3981754Y2478125D01*
X3979672Y2480208D01*
X3977436Y2483510D01*
X3976674Y2487371D01*
X3976674Y2492502D01*
X3977132Y2495448D01*
X3978351Y2498090D01*
X3983532Y2506014D01*
X3987546Y2515209D01*
X3990035Y2524963D01*
X3990848Y2534970D01*
X3990035Y2545029D01*
X3987546Y2554782D01*
X3983532Y2563977D01*
X3978046Y2572410D01*
X3971239Y2579776D01*
X3963263Y2585974D01*
X3954424Y2590749D01*
X3944924Y2594000D01*
X3935018Y2595676D01*
X3924960Y2595676D01*
X3915054Y2594000D01*
X3905554Y2590749D01*
X3896715Y2585974D01*
X3888740Y2579776D01*
X3881932Y2572410D01*
X3876446Y2563977D01*
X3872433Y2554782D01*
X3869944Y2545029D01*
X3869131Y2534970D01*
X3869944Y2524963D01*
X3872433Y2515209D01*
X3876446Y2506014D01*
X3878021Y2503627D01*
X3879545Y2499563D01*
X3879291Y2495245D01*
X3877208Y2491435D01*
X3873754Y2488844D01*
X3869537Y2487879D01*
X3818991Y2487879D01*
X3812692Y2487168D01*
X3807206Y2485288D01*
X3802329Y2482189D01*
X3798214Y2478125D01*
X3795166Y2473198D01*
X3793236Y2467762D01*
X3792524Y2461412D01*
X3792524Y2408580D01*
X3793236Y2402179D01*
X3792829Y2397963D01*
X3790696Y2394305D01*
X3787292Y2391765D01*
X3783126Y2390902D01*
X3748379Y2390902D01*
X3744671Y2391613D01*
X3741470Y2393594D01*
X3701643Y2430576D01*
X3699256Y2433980D01*
X3698392Y2438044D01*
X3698392Y2459431D01*
X3697681Y2465730D01*
X3695801Y2471216D01*
X3692702Y2476093D01*
X3688587Y2480208D01*
X3683711Y2483256D01*
X3678224Y2485186D01*
X3671925Y2485898D01*
X3548075Y2485898D01*
X3541725Y2485186D01*
X3536289Y2483256D01*
X3531362Y2480208D01*
X3527298Y2476093D01*
X3523691Y2470353D01*
X3520846Y2467406D01*
X3517087Y2465832D01*
X3513023Y2465832D01*
X3509264Y2467457D01*
X3507943Y2468372D01*
X3499104Y2472486D01*
X3489706Y2475026D01*
X3480003Y2475839D01*
X3470300Y2475026D01*
X3460902Y2472486D01*
X3452063Y2468372D01*
X3444087Y2462784D01*
X3437229Y2455875D01*
X3431641Y2447899D01*
X3427526Y2439111D01*
X3424986Y2429662D01*
X3424123Y2419959D01*
X3424986Y2410307D01*
X3427526Y2400858D01*
X3431641Y2392070D01*
X3437229Y2383993D01*
X3438753Y2380843D01*
X3439058Y2377338D01*
X3438144Y2373934D01*
X3436112Y2371039D01*
X3432810Y2367686D01*
X3429711Y2362758D01*
X3427780Y2357323D01*
X3427069Y2350973D01*
X3427069Y2295550D01*
X3427780Y2289251D01*
X3429863Y2283358D01*
X3430422Y2280005D01*
X3429863Y2276652D01*
X3427780Y2270760D01*
X3427069Y2264410D01*
X3427069Y2238806D01*
X3426307Y2234895D01*
X3424123Y2231593D01*
X3271367Y2078888D01*
X3268065Y2076653D01*
X3264204Y2075891D01*
X2739085Y2075891D01*
X2735173Y2076653D01*
X2731871Y2078888D01*
X2478887Y2331872D01*
X2476703Y2335174D01*
X2475890Y2339086D01*
X2475890Y2519832D01*
X2476703Y2523744D01*
X2478887Y2526995D01*
X2482189Y2529230D01*
X2486050Y2529992D01*
X2633929Y2529992D01*
X2637790Y2529230D01*
X2641092Y2526995D01*
X2643327Y2523744D01*
X2644089Y2519832D01*
X2644089Y2390546D01*
X2644902Y2382520D01*
X2647238Y2375408D01*
X2651048Y2368804D01*
X2654909Y2364333D01*
X2691739Y2327452D01*
X2696210Y2323846D01*
X2699004Y2320290D01*
X2700020Y2315921D01*
X2700020Y2240991D01*
X2700985Y2239975D01*
X2749905Y2239975D01*
X2753817Y2239213D01*
X2757119Y2237028D01*
X2759303Y2233726D01*
X2760065Y2229815D01*
X2760065Y2183587D01*
X2760776Y2177237D01*
X2762707Y2171801D01*
X2765755Y2166874D01*
X2769870Y2162810D01*
X2774746Y2159711D01*
X2780233Y2157780D01*
X2786532Y2157069D01*
X2864408Y2157069D01*
X2870758Y2157780D01*
X2876651Y2159863D01*
X2880004Y2160422D01*
X2883357Y2159863D01*
X2889250Y2157780D01*
X2895549Y2157069D01*
X2908401Y2157069D01*
X2908401Y2190140D01*
X2901086Y2190140D01*
X2897174Y2190902D01*
X2893872Y2193137D01*
X2891688Y2196439D01*
X2890875Y2200300D01*
X2890875Y2219706D01*
X2891688Y2223566D01*
X2893872Y2226868D01*
X2897174Y2229053D01*
X2901086Y2229866D01*
X2908401Y2229866D01*
X2909163Y2233726D01*
X2911398Y2237028D01*
X2914650Y2239213D01*
X2918561Y2239975D01*
X2950464Y2239975D01*
X2954324Y2239213D01*
X2957626Y2237028D01*
X2959811Y2233726D01*
X2960624Y2229866D01*
X2999892Y2229866D01*
X3000705Y2233726D01*
X3002889Y2237028D01*
X3006191Y2239213D01*
X3010052Y2239975D01*
X3179013Y2239975D01*
X3179978Y2240991D01*
X3179978Y2339898D01*
X3180791Y2343810D01*
X3182975Y2347112D01*
X3186277Y2349296D01*
X3190138Y2350058D01*
X3190138Y2389378D01*
X3186277Y2390140D01*
X3182975Y2392375D01*
X3180791Y2395677D01*
X3179978Y2399538D01*
X3179978Y2431440D01*
X3180791Y2435301D01*
X3182975Y2438603D01*
X3186277Y2440838D01*
X3190138Y2441600D01*
X3190138Y2448915D01*
X3190900Y2452827D01*
X3193135Y2456129D01*
X3196437Y2458313D01*
X3200298Y2459075D01*
X3219704Y2459075D01*
X3223564Y2458313D01*
X3226866Y2456129D01*
X3229051Y2452827D01*
X3229864Y2448915D01*
X3229864Y2441600D01*
X3262884Y2441600D01*
X3262884Y2454402D01*
X3262172Y2460752D01*
X3260140Y2466644D01*
X3259531Y2469997D01*
X3260140Y2473350D01*
X3262172Y2479243D01*
X3262884Y2485542D01*
X3262884Y2563418D01*
X3262172Y2569768D01*
X3260293Y2575204D01*
X3257194Y2580132D01*
X3253130Y2584196D01*
X3248202Y2587294D01*
X3241903Y2589479D01*
X3238093Y2591917D01*
X3100679Y2729280D01*
X3099003Y2729992D01*
X2770174Y2729992D01*
X2766263Y2730754D01*
X2762961Y2732989D01*
X2760776Y2736291D01*
X2760014Y2740152D01*
X2760014Y2886913D01*
X2760776Y2890824D01*
X2762961Y2894126D01*
X2766263Y2896311D01*
X2770174Y2897073D01*
X2834436Y2897073D01*
X2840736Y2897784D01*
X2846628Y2899867D01*
X2849981Y2900426D01*
X2853334Y2899867D01*
X2859227Y2897784D01*
X2865577Y2897073D01*
X2878378Y2897073D01*
X2878378Y2930144D01*
X2871063Y2930144D01*
X2867152Y2930906D01*
X2863900Y2933141D01*
X2861665Y2936392D01*
X2860903Y2940304D01*
X2860903Y2959658D01*
X2861665Y2963570D01*
X2863900Y2966872D01*
X2867152Y2969056D01*
X2871063Y2969818D01*
X2878378Y2969818D01*
X2878378Y3040126D01*
X2871063Y3040126D01*
X2867152Y3040938D01*
X2863900Y3043123D01*
X2861665Y3046425D01*
X2860903Y3050286D01*
X2860903Y3069691D01*
X2861665Y3073552D01*
X2863900Y3076854D01*
X2867152Y3079089D01*
X2871063Y3079851D01*
X2880309Y3079851D01*
X2882544Y3082137D01*
X2885389Y3083560D01*
X2888538Y3084068D01*
X2920441Y3084068D01*
X2923590Y3083560D01*
X2926435Y3082137D01*
X2928721Y3079851D01*
X2971800Y3079851D01*
X2974086Y3082137D01*
X2976930Y3083560D01*
X2980080Y3084068D01*
X3983939Y3084068D01*
X3987800Y3083306D01*
X3991101Y3081121D01*
X4135323Y2936900D01*
X4137456Y2933801D01*
X4138320Y2930144D01*
X4137761Y2926435D01*
X4133697Y2914345D01*
X4130954Y2900781D01*
X4130090Y2886964D01*
X4130954Y2873146D01*
X4133697Y2859582D01*
X4138117Y2846425D01*
X4144264Y2834030D01*
X4151934Y2822498D01*
X4161078Y2812084D01*
X4171492Y2802940D01*
X4183024Y2795270D01*
X4195419Y2789123D01*
X4208576Y2784703D01*
X4222140Y2781960D01*
X4235958Y2781096D01*
X4249775Y2781960D01*
X4263339Y2784703D01*
X4276496Y2789123D01*
X4288891Y2795270D01*
X4300423Y2802940D01*
X4310837Y2812084D01*
X4319981Y2822498D01*
X4327652Y2834030D01*
X4333798Y2846425D01*
X4338218Y2859582D01*
X4340961Y2873146D01*
X4341825Y2886964D01*
X4340961Y2900781D01*
X4338218Y2914345D01*
X4333798Y2927502D01*
X4327652Y2939897D01*
X4319981Y2951429D01*
X4310837Y2961843D01*
X4300423Y2970987D01*
X4288891Y2978658D01*
X4276496Y2984804D01*
X4263339Y2989224D01*
X4249775Y2991967D01*
X4235958Y2992831D01*
X4222140Y2991967D01*
X4208576Y2989224D01*
X4196588Y2985211D01*
X4192879Y2984652D01*
X4189222Y2985516D01*
X4186174Y2987598D01*
X4067048Y3106724D01*
X4064812Y3110026D01*
X4064050Y3113938D01*
X4064812Y3117799D01*
X4067048Y3121101D01*
X4070350Y3123336D01*
X4074210Y3124098D01*
X4197908Y3124098D01*
X4201820Y3123336D01*
X4205122Y3121101D01*
X4389323Y2936900D01*
X4391456Y2933801D01*
X4392320Y2930144D01*
X4391761Y2926435D01*
X4387697Y2914345D01*
X4384954Y2900781D01*
X4384090Y2886964D01*
X4384954Y2873146D01*
X4387697Y2859582D01*
X4392117Y2846425D01*
X4398264Y2834030D01*
X4405934Y2822498D01*
X4415078Y2812084D01*
X4425492Y2802940D01*
X4437024Y2795270D01*
X4449419Y2789123D01*
X4462576Y2784703D01*
X4476140Y2781960D01*
X4489958Y2781096D01*
X4503775Y2781960D01*
X4517339Y2784703D01*
X4530496Y2789123D01*
X4542891Y2795270D01*
X4554423Y2802940D01*
X4564837Y2812084D01*
X4573981Y2822498D01*
X4581652Y2834030D01*
X4587798Y2846425D01*
X4592218Y2859582D01*
X4594961Y2873146D01*
X4595825Y2886964D01*
X4594961Y2900781D01*
X4592218Y2914345D01*
X4587798Y2927502D01*
X4581652Y2939897D01*
X4573981Y2951429D01*
X4564837Y2961843D01*
X4554423Y2970987D01*
X4542891Y2978658D01*
X4530496Y2984804D01*
X4517339Y2989224D01*
X4503775Y2991967D01*
X4489958Y2992831D01*
X4476140Y2991967D01*
X4462576Y2989224D01*
X4450588Y2985211D01*
X4446879Y2984652D01*
X4443222Y2985516D01*
X4440174Y2987598D01*
X4242765Y3185007D01*
X4236516Y3190036D01*
X4229862Y3193440D01*
X4222496Y3195421D01*
X4216603Y3195878D01*
X4044035Y3195878D01*
X4040073Y3196691D01*
X4036771Y3198977D01*
X4034586Y3202381D01*
X4033875Y3206394D01*
X4034840Y3210306D01*
X4037228Y3213608D01*
X4040682Y3215640D01*
X4043730Y3216706D01*
X4048607Y3219805D01*
X4052722Y3223869D01*
X4055770Y3228797D01*
X4057700Y3234232D01*
X4058412Y3240582D01*
X4058412Y3261969D01*
X4059275Y3266033D01*
X4061663Y3269386D01*
X4101490Y3306368D01*
X4104690Y3308400D01*
X4108399Y3309061D01*
X4231894Y3309061D01*
X4238244Y3309772D01*
X4243679Y3311702D01*
X4248607Y3314801D01*
X4252671Y3318865D01*
X4255770Y3323793D01*
X4257700Y3329228D01*
X4258411Y3335578D01*
X4258411Y3357168D01*
X4259173Y3361080D01*
X4261358Y3364382D01*
X4264660Y3366566D01*
X4268571Y3367328D01*
X4272432Y3366566D01*
X4276902Y3363214D01*
X4281779Y3360165D01*
X4287215Y3358235D01*
X4293565Y3357524D01*
X4346397Y3357524D01*
X4352747Y3358235D01*
X4358182Y3360165D01*
X4363110Y3363214D01*
X4365193Y3365347D01*
X4368495Y3367532D01*
X4372406Y3368294D01*
X4376420Y3368294D01*
X4380026Y3367684D01*
X4383125Y3365804D01*
X4385411Y3362960D01*
X4386529Y3359505D01*
X4386326Y3355898D01*
X4383582Y3343808D01*
X4382211Y3329635D01*
X4382668Y3315462D01*
X4384954Y3301441D01*
X4388967Y3287826D01*
X4394758Y3274822D01*
X4402124Y3262680D01*
X4410964Y3251555D01*
X4421174Y3241649D01*
X4432554Y3233166D01*
X4444949Y3226206D01*
X4458106Y3220872D01*
X4471873Y3217265D01*
X4485944Y3215436D01*
X4500168Y3215436D01*
X4514240Y3217265D01*
X4528007Y3220872D01*
X4541164Y3226206D01*
X4553559Y3233166D01*
X4564938Y3241649D01*
X4575149Y3251555D01*
X4583988Y3262680D01*
X4591354Y3274822D01*
X4597095Y3287826D01*
X4601159Y3301441D01*
X4603445Y3315462D01*
X4603902Y3329635D01*
X4602530Y3343808D01*
X4599330Y3357676D01*
X4594453Y3370986D01*
X4587900Y3383584D01*
X4579721Y3395218D01*
X4570171Y3405784D01*
X4559350Y3414979D01*
X4547463Y3422700D01*
X4534662Y3428898D01*
X4521200Y3433368D01*
X4507230Y3436061D01*
X4493056Y3436975D01*
X4478883Y3436061D01*
X4464913Y3433368D01*
X4457446Y3430879D01*
X4453737Y3430371D01*
X4450130Y3431235D01*
X4447082Y3433318D01*
X4436668Y3443630D01*
X4430115Y3448608D01*
X4422952Y3452164D01*
X4415231Y3454349D01*
X4406798Y3455111D01*
X4382516Y3455111D01*
X4378401Y3456025D01*
X4374946Y3458514D01*
X4372864Y3462223D01*
X4372457Y3466439D01*
X4372914Y3470554D01*
X4372914Y3525977D01*
X4372406Y3530193D01*
X4372813Y3534156D01*
X4371035Y3536187D01*
X4367123Y3542741D01*
X4364075Y3546856D01*
X4362196Y3559911D01*
X4359656Y3567480D01*
X4355439Y3575050D01*
X4354271Y3578555D01*
X4354423Y3582212D01*
X4360418Y3594354D01*
X4362602Y3602024D01*
X4363313Y3609695D01*
X4363923Y3612286D01*
X4365142Y3614623D01*
X4368139Y3618839D01*
X4371035Y3623868D01*
X4373118Y3626358D01*
X4372559Y3630828D01*
X4372914Y3633978D01*
X4372914Y3689400D01*
X4372457Y3693566D01*
X4372864Y3697782D01*
X4374946Y3701491D01*
X4378401Y3703980D01*
X4382516Y3704844D01*
X4408881Y3704894D01*
X4417161Y3706063D01*
X4424781Y3708603D01*
X4431741Y3712464D01*
X4438294Y3717899D01*
X4447133Y3726738D01*
X4450080Y3728821D01*
X4453585Y3729736D01*
X4457192Y3729329D01*
X4468368Y3726027D01*
X4482388Y3723741D01*
X4496612Y3723284D01*
X4510735Y3724656D01*
X4524603Y3727805D01*
X4537913Y3732733D01*
X4550511Y3739286D01*
X4562195Y3747414D01*
X4572711Y3756964D01*
X4581906Y3767785D01*
X4589678Y3779672D01*
X4595825Y3792474D01*
X4600295Y3805986D01*
X4603038Y3819906D01*
X4603953Y3834129D01*
X4603038Y3848303D01*
X4600295Y3862222D01*
X4595825Y3875735D01*
X4589678Y3888536D01*
X4581906Y3900424D01*
X4572711Y3911244D01*
X4562195Y3920794D01*
X4550511Y3928922D01*
X4537913Y3935526D01*
X4524603Y3940403D01*
X4510735Y3943553D01*
X4496612Y3944924D01*
X4482388Y3944467D01*
X4468368Y3942232D01*
X4454753Y3938168D01*
X4441748Y3932428D01*
X4429607Y3925062D01*
X4418482Y3916172D01*
X4408627Y3906012D01*
X4400143Y3894582D01*
X4393133Y3882237D01*
X4387799Y3869029D01*
X4384192Y3855313D01*
X4382414Y3841191D01*
X4382414Y3827018D01*
X4384192Y3812895D01*
X4386427Y3804412D01*
X4386732Y3800703D01*
X4385665Y3797198D01*
X4383379Y3794251D01*
X4380230Y3792321D01*
X4376623Y3791661D01*
X4372406Y3791661D01*
X4368495Y3792423D01*
X4365193Y3794658D01*
X4363110Y3796741D01*
X4358182Y3799840D01*
X4352747Y3801770D01*
X4346397Y3802481D01*
X4293565Y3802481D01*
X4287215Y3801770D01*
X4281779Y3799840D01*
X4276902Y3796741D01*
X4274769Y3794658D01*
X4271467Y3792423D01*
X4267606Y3791661D01*
X4216603Y3791610D01*
X4208322Y3790492D01*
X4200702Y3787952D01*
X4193743Y3784041D01*
X4187240Y3778605D01*
X4172458Y3763873D01*
X4169156Y3761689D01*
X4165295Y3760876D01*
X4108399Y3760876D01*
X4104690Y3761587D01*
X4101490Y3763619D01*
X4061663Y3800601D01*
X4059275Y3803954D01*
X4058412Y3808018D01*
X4058412Y3829405D01*
X4057700Y3835755D01*
X4055770Y3841191D01*
X4052722Y3846118D01*
X4048607Y3850182D01*
X4043730Y3853281D01*
X4038244Y3855212D01*
X4031945Y3855923D01*
X3908044Y3855923D01*
X3901744Y3855212D01*
X3896258Y3853281D01*
X3891381Y3850182D01*
X3887266Y3846118D01*
X3883863Y3840683D01*
X3881577Y3838143D01*
X3878630Y3836466D01*
X3875278Y3835908D01*
X3866794Y3835908D01*
X3863746Y3836365D01*
X3860952Y3837736D01*
X3852926Y3843375D01*
X3844086Y3847490D01*
X3834688Y3850030D01*
X3824986Y3850843D01*
X3815283Y3850030D01*
X3805885Y3847490D01*
X3797046Y3843375D01*
X3789070Y3837787D01*
X3782212Y3830878D01*
X3776624Y3822903D01*
X3772509Y3814114D01*
X3769969Y3804665D01*
X3769106Y3794963D01*
X3769969Y3785311D01*
X3772509Y3775862D01*
X3776624Y3767074D01*
X3782263Y3758996D01*
X3783634Y3756202D01*
X3784092Y3753154D01*
X3784092Y3748176D01*
X3783329Y3744264D01*
X3781094Y3740962D01*
X3777792Y3737660D01*
X3774694Y3732784D01*
X3772814Y3727297D01*
X3772103Y3720998D01*
X3772103Y3665575D01*
X3772814Y3659225D01*
X3773881Y3656126D01*
X3774440Y3652316D01*
X3773525Y3648557D01*
X3771341Y3645408D01*
X3768090Y3643325D01*
X3764279Y3642614D01*
X2827223Y3642614D01*
X2819247Y3641750D01*
X2812135Y3639464D01*
X2805531Y3635654D01*
X2801010Y3631793D01*
X2750566Y3581298D01*
X2746857Y3578961D01*
X2742488Y3578402D01*
X2738272Y3579723D01*
X2735021Y3582670D01*
X2732786Y3585870D01*
X2725877Y3592779D01*
X2717901Y3598367D01*
X2709113Y3602482D01*
X2699664Y3605022D01*
X2689961Y3605834D01*
X2680309Y3605022D01*
X2670860Y3602482D01*
X2662072Y3598367D01*
X2654096Y3592779D01*
X2647188Y3585870D01*
X2641600Y3577894D01*
X2637485Y3569106D01*
X2634945Y3559657D01*
X2634132Y3549954D01*
X2633522Y3545636D01*
X2631186Y3541928D01*
X2594965Y3505758D01*
X2589936Y3499510D01*
X2586532Y3492855D01*
X2584551Y3485489D01*
X2584094Y3479596D01*
X2584094Y3330448D01*
X2583332Y3326536D01*
X2581097Y3323234D01*
X2577795Y3321050D01*
X2573934Y3320287D01*
X2570022Y3321050D01*
X2566720Y3323234D01*
X2425700Y3464306D01*
X2423972Y3464966D01*
X2315057Y3464966D01*
X2311196Y3465779D01*
X2307894Y3467963D01*
X2305710Y3471265D01*
X2304897Y3475126D01*
X2304897Y3516426D01*
X2304186Y3522726D01*
X2302306Y3528212D01*
X2299208Y3533089D01*
X2295144Y3537204D01*
X2290216Y3540302D01*
X2284780Y3542182D01*
X2278430Y3542893D01*
X2200554Y3542893D01*
X2194255Y3542182D01*
X2188362Y3540150D01*
X2185009Y3539540D01*
X2181656Y3540150D01*
X2175764Y3542182D01*
X2169414Y3542893D01*
X2156612Y3542893D01*
X2156612Y3509822D01*
X2163927Y3509822D01*
X2167839Y3509060D01*
X2171090Y3506876D01*
X2173325Y3503574D01*
X2174087Y3499662D01*
X2174087Y3480308D01*
X2173325Y3476396D01*
X2171090Y3473094D01*
X2167839Y3470910D01*
X2163927Y3470148D01*
X2155291Y3470148D01*
X2153005Y3467404D01*
X2149957Y3465626D01*
X2146452Y3464966D01*
X2114550Y3464966D01*
X2111044Y3465626D01*
X2107996Y3467404D01*
X2105710Y3470148D01*
X2019300Y3470148D01*
X2017014Y3467404D01*
X2013966Y3465626D01*
X2010460Y3464966D01*
X1978558Y3464966D01*
X1975053Y3465626D01*
X1972005Y3467404D01*
X1969719Y3470148D01*
X1961083Y3470148D01*
X1957171Y3470910D01*
X1953869Y3473094D01*
X1951685Y3476396D01*
X1950923Y3480308D01*
X1950923Y3499662D01*
X1951685Y3503574D01*
X1953869Y3506876D01*
X1957171Y3509060D01*
X1961083Y3509822D01*
X1968398Y3509822D01*
X1968398Y3542893D01*
X1956054Y3542893D01*
X1952193Y3543655D01*
X1948891Y3545890D01*
X1946656Y3549192D01*
X1945893Y3553053D01*
X1945893Y3563924D01*
X1946656Y3567785D01*
X1948891Y3571087D01*
X1952193Y3573272D01*
X1956054Y3574084D01*
X1961235Y3573576D01*
X1964029Y3572256D01*
X1972056Y3566617D01*
X1981200Y3562400D01*
X1990293Y3559962D01*
X1999996Y3559098D01*
X2009546Y3559962D01*
X2013712Y3559454D01*
X2014778Y3558794D01*
X2015489Y3559962D01*
X2018639Y3562248D01*
X2027936Y3566617D01*
X2035911Y3572205D01*
X2042769Y3579063D01*
X2048357Y3587038D01*
X2052472Y3595878D01*
X2055012Y3605276D01*
X2055875Y3614978D01*
X2055012Y3624681D01*
X2052472Y3634079D01*
X2048357Y3642918D01*
X2042769Y3650894D01*
X2035911Y3657752D01*
X2027936Y3663340D01*
X2019096Y3667455D01*
X2009698Y3669995D01*
X1999996Y3670858D01*
X1990293Y3669995D01*
X1980895Y3667455D01*
X1972056Y3663340D01*
X1964029Y3657701D01*
X1961235Y3656380D01*
X1956104Y3655872D01*
X1952040Y3656736D01*
X1948637Y3659124D01*
X1946503Y3662679D01*
X1945132Y3666642D01*
X1944573Y3669995D01*
X1945132Y3673348D01*
X1947214Y3679240D01*
X1947925Y3685540D01*
X1947925Y3698392D01*
X1914855Y3698392D01*
X1914855Y3691077D01*
X1914093Y3687165D01*
X1911857Y3683863D01*
X1908556Y3681679D01*
X1904695Y3680917D01*
X1885289Y3680917D01*
X1881428Y3681679D01*
X1878126Y3683863D01*
X1875942Y3687165D01*
X1875129Y3691077D01*
X1875129Y3698392D01*
X1842109Y3698392D01*
X1842109Y3686048D01*
X1841296Y3682187D01*
X1839112Y3678885D01*
X1835810Y3676650D01*
X1831949Y3675887D01*
X1794560Y3675887D01*
X1791207Y3676446D01*
X1785264Y3678580D01*
X1778914Y3679291D01*
X1775206Y3679291D01*
X1771294Y3680053D01*
X1767992Y3682237D01*
X1765807Y3685540D01*
X1765046Y3689451D01*
X1765807Y3693312D01*
X1767992Y3696614D01*
X1786839Y3715512D01*
X1791868Y3722166D01*
X1795424Y3729329D01*
X1797659Y3737152D01*
X1798370Y3743198D01*
X1798828Y3749294D01*
X1799945Y3751834D01*
X1802790Y3756304D01*
X1804670Y3761790D01*
X1805381Y3768090D01*
X1805381Y3882644D01*
X1804670Y3888943D01*
X1802790Y3894429D01*
X1799691Y3899306D01*
X1795627Y3903421D01*
X1790700Y3906520D01*
X1785264Y3908399D01*
X1778914Y3909110D01*
X1731060Y3909110D01*
X1724761Y3908399D01*
X1719275Y3906520D01*
X1713433Y3902811D01*
X1710842Y3901643D01*
X1706981Y3901236D01*
X1704187Y3901643D01*
X1701596Y3902811D01*
X1695704Y3906520D01*
X1690268Y3908399D01*
X1683918Y3909110D01*
X1678584Y3909110D01*
X1678584Y3860647D01*
X1694434Y3860647D01*
X1698294Y3859885D01*
X1701596Y3857650D01*
X1703832Y3854348D01*
X1704593Y3850487D01*
X1704593Y3800246D01*
X1703832Y3796385D01*
X1701596Y3793083D01*
X1698294Y3790848D01*
X1694434Y3790086D01*
X1678584Y3790086D01*
X1678584Y3773576D01*
X1677822Y3769664D01*
X1675638Y3766362D01*
X1672336Y3764178D01*
X1668424Y3763416D01*
X1651558Y3763416D01*
X1647647Y3764178D01*
X1644396Y3766362D01*
X1642160Y3769664D01*
X1641398Y3773576D01*
X1641398Y3790086D01*
X1625549Y3790086D01*
X1621688Y3790848D01*
X1618386Y3793083D01*
X1616202Y3796385D01*
X1615389Y3800246D01*
X1615389Y3850487D01*
X1616202Y3854348D01*
X1618386Y3857650D01*
X1621688Y3859885D01*
X1625549Y3860647D01*
X1641398Y3860647D01*
X1641398Y3909110D01*
X1636064Y3909110D01*
X1629765Y3908399D01*
X1624279Y3906520D01*
X1618437Y3902811D01*
X1615846Y3901643D01*
X1611985Y3901236D01*
X1609191Y3901643D01*
X1606600Y3902811D01*
X1600708Y3906520D01*
X1595221Y3908399D01*
X1588922Y3909110D01*
X1541068Y3909110D01*
X1534769Y3908399D01*
X1529283Y3906520D01*
X1524406Y3903421D01*
X1520291Y3899306D01*
X1517192Y3894429D01*
X1515313Y3888943D01*
X1514602Y3882644D01*
X1514602Y3773576D01*
X1513840Y3769664D01*
X1511604Y3766362D01*
X1508302Y3764178D01*
X1504442Y3763416D01*
X1477060Y3763416D01*
X1473657Y3763975D01*
X1470710Y3765600D01*
X1468424Y3768140D01*
X1467205Y3770122D01*
X1463090Y3774186D01*
X1458214Y3777284D01*
X1452727Y3779215D01*
X1446428Y3779926D01*
X1393545Y3779926D01*
X1387246Y3779215D01*
X1381760Y3777284D01*
X1376883Y3774186D01*
X1369771Y3766972D01*
X1365859Y3765397D01*
X1361643Y3765550D01*
X1357884Y3767378D01*
X1353261Y3770934D01*
X1344422Y3775710D01*
X1334922Y3779012D01*
X1325016Y3780637D01*
X1314958Y3780637D01*
X1305052Y3779012D01*
X1295552Y3775710D01*
X1286713Y3770934D01*
X1278737Y3764787D01*
X1271930Y3757371D01*
X1266444Y3748938D01*
X1262430Y3739743D01*
X1259941Y3729990D01*
X1259128Y3719982D01*
X1259941Y3709974D01*
X1262430Y3700221D01*
X1266444Y3691026D01*
X1271930Y3682593D01*
X1278737Y3675176D01*
X1286713Y3669029D01*
X1295552Y3664254D01*
X1305052Y3660952D01*
X1314958Y3659327D01*
X1325016Y3659327D01*
X1334922Y3660952D01*
X1344422Y3664254D01*
X1357020Y3671011D01*
X1360830Y3671366D01*
X1364488Y3670300D01*
X1367485Y3667912D01*
X1369872Y3663340D01*
X1370431Y3659987D01*
X1369872Y3656634D01*
X1367790Y3650742D01*
X1367078Y3644442D01*
X1367078Y3631590D01*
X1400149Y3631590D01*
X1400149Y3638905D01*
X1400911Y3642817D01*
X1403146Y3646119D01*
X1406398Y3648303D01*
X1410309Y3649065D01*
X1429664Y3649065D01*
X1433576Y3648303D01*
X1436878Y3646119D01*
X1439062Y3642817D01*
X1439824Y3638905D01*
X1439824Y3631590D01*
X1472895Y3631590D01*
X1472895Y3644442D01*
X1472184Y3650742D01*
X1470152Y3656634D01*
X1469542Y3659987D01*
X1470152Y3663340D01*
X1472387Y3669792D01*
X1474520Y3673348D01*
X1477924Y3675735D01*
X1481988Y3676599D01*
X1507083Y3676599D01*
X1510893Y3675837D01*
X1514094Y3673754D01*
X1516329Y3670604D01*
X1517243Y3666896D01*
X1516684Y3663086D01*
X1515313Y3659124D01*
X1514602Y3652774D01*
X1514602Y3536442D01*
X1515313Y3530092D01*
X1517192Y3524656D01*
X1520291Y3519779D01*
X1524406Y3515664D01*
X1529283Y3512565D01*
X1534769Y3510686D01*
X1541068Y3509975D01*
X1670862Y3509975D01*
X1675130Y3509060D01*
X1678635Y3506419D01*
X1680667Y3502456D01*
X1680921Y3503726D01*
X1683105Y3507028D01*
X1686407Y3509213D01*
X1690319Y3509975D01*
X1709674Y3509975D01*
X1713585Y3509213D01*
X1716887Y3507028D01*
X1719072Y3503726D01*
X1719834Y3499815D01*
X1719834Y3450590D01*
X1723745Y3449828D01*
X1727047Y3447643D01*
X1729232Y3444341D01*
X1729993Y3440429D01*
X1729993Y3408578D01*
X1729232Y3404666D01*
X1727047Y3401364D01*
X1723745Y3399180D01*
X1719834Y3398418D01*
X1719834Y3391052D01*
X1719072Y3387191D01*
X1716887Y3383889D01*
X1713585Y3381654D01*
X1709674Y3380892D01*
X1690319Y3380892D01*
X1686407Y3381654D01*
X1683105Y3383889D01*
X1680921Y3387191D01*
X1680159Y3391052D01*
X1680159Y3398418D01*
X1647088Y3398418D01*
X1647088Y3385565D01*
X1647799Y3379266D01*
X1649882Y3373374D01*
X1650441Y3369970D01*
X1649882Y3366617D01*
X1648358Y3362299D01*
X1646377Y3358946D01*
X1643329Y3356610D01*
X1639620Y3355543D01*
X1635760Y3355949D01*
X1632356Y3357778D01*
X1629511Y3360064D01*
X1622856Y3363468D01*
X1615490Y3365449D01*
X1609598Y3365906D01*
X1604365Y3365906D01*
X1601012Y3366465D01*
X1598015Y3368141D01*
X1595729Y3370630D01*
X1594205Y3373120D01*
X1590141Y3377184D01*
X1585214Y3380282D01*
X1579778Y3382213D01*
X1573428Y3382924D01*
X1495552Y3382924D01*
X1489252Y3382213D01*
X1483360Y3380130D01*
X1480007Y3379571D01*
X1476654Y3380130D01*
X1470761Y3382213D01*
X1464411Y3382924D01*
X1451610Y3382924D01*
X1451610Y3349853D01*
X1458925Y3349853D01*
X1462836Y3349091D01*
X1466138Y3346856D01*
X1468323Y3343554D01*
X1469085Y3339693D01*
X1469085Y3320287D01*
X1468323Y3316427D01*
X1466138Y3313125D01*
X1462836Y3310940D01*
X1458925Y3310128D01*
X1451610Y3310128D01*
X1451610Y3277108D01*
X1464411Y3277108D01*
X1470761Y3277819D01*
X1476654Y3279851D01*
X1480007Y3280410D01*
X1483360Y3279851D01*
X1489252Y3277819D01*
X1495552Y3277108D01*
X1573428Y3277108D01*
X1584401Y3278632D01*
X1588109Y3277717D01*
X1591259Y3275533D01*
X1593342Y3272282D01*
X1594104Y3268472D01*
X1594104Y3250539D01*
X1594764Y3244138D01*
X1594307Y3239922D01*
X1592224Y3236264D01*
X1588770Y3233775D01*
X1584655Y3232912D01*
X1535582Y3232912D01*
X1529232Y3232200D01*
X1523339Y3230118D01*
X1519986Y3229559D01*
X1516634Y3230118D01*
X1510741Y3232200D01*
X1504442Y3232912D01*
X1449019Y3232912D01*
X1442669Y3232200D01*
X1437233Y3230270D01*
X1432306Y3227222D01*
X1429004Y3223869D01*
X1425702Y3221685D01*
X1421790Y3220923D01*
X1251153Y3220923D01*
X1247241Y3221685D01*
X1243990Y3223869D01*
X1214272Y3253536D01*
X1207719Y3258972D01*
X1200658Y3262731D01*
X1192987Y3265068D01*
X1184503Y3265881D01*
X1128572Y3265881D01*
X1124661Y3266643D01*
X1121410Y3268878D01*
X1119174Y3272180D01*
X1118412Y3276041D01*
X1118412Y3289401D01*
X1117701Y3295751D01*
X1116838Y3299968D01*
X1117701Y3304235D01*
X1118412Y3310534D01*
X1118412Y3332479D01*
X1119428Y3336848D01*
X1122172Y3340404D01*
X1126236Y3342386D01*
X1130757Y3342386D01*
X1134821Y3340506D01*
X1136700Y3339033D01*
X1145540Y3334258D01*
X1155039Y3330956D01*
X1164996Y3329330D01*
X1175004Y3329330D01*
X1184960Y3330956D01*
X1194460Y3334258D01*
X1203299Y3339033D01*
X1211224Y3345179D01*
X1218031Y3352596D01*
X1223518Y3361029D01*
X1227582Y3370224D01*
X1230020Y3379978D01*
X1230884Y3389985D01*
X1230020Y3399993D01*
X1227582Y3409746D01*
X1223518Y3418941D01*
X1218031Y3427374D01*
X1211224Y3434791D01*
X1203299Y3440937D01*
X1194460Y3445713D01*
X1184960Y3449015D01*
X1175004Y3450640D01*
X1164996Y3450640D01*
X1155039Y3449015D01*
X1145540Y3445713D01*
X1136700Y3440937D01*
X1134821Y3439464D01*
X1130757Y3437585D01*
X1126236Y3437585D01*
X1122172Y3439566D01*
X1119428Y3443122D01*
X1118412Y3448659D01*
X1068120Y3448659D01*
X1064920Y3446627D01*
X1061212Y3445916D01*
X1013815Y3445916D01*
X1010056Y3446627D01*
X1006856Y3448659D01*
X998524Y3448659D01*
X994206Y3449624D01*
X990701Y3452317D01*
X988720Y3456279D01*
X988060Y3458768D01*
X984046Y3467963D01*
X979017Y3475634D01*
X978255Y3477666D01*
X975614Y3479546D01*
X971753Y3483762D01*
X963777Y3489960D01*
X954989Y3494684D01*
X944880Y3498087D01*
X934669Y3499764D01*
X931316Y3500983D01*
X928573Y3503218D01*
X926795Y3506317D01*
X926134Y3509822D01*
X926134Y3546144D01*
X864768Y3546144D01*
X870254Y3536035D01*
X877620Y3526231D01*
X886256Y3517595D01*
X896061Y3510229D01*
X898906Y3508705D01*
X902157Y3505860D01*
X903986Y3501898D01*
X903935Y3497579D01*
X902157Y3493668D01*
X898855Y3490823D01*
X897229Y3489960D01*
X889253Y3483762D01*
X882446Y3476396D01*
X876960Y3467963D01*
X872947Y3458768D01*
X870458Y3449015D01*
X869645Y3438956D01*
X870458Y3428949D01*
X872947Y3419195D01*
X876960Y3410000D01*
X882446Y3401568D01*
X889253Y3394201D01*
X897229Y3388004D01*
X906068Y3383229D01*
X915568Y3379978D01*
X925474Y3378301D01*
X935532Y3378301D01*
X944778Y3379876D01*
X949147Y3379622D01*
X953008Y3377590D01*
X955649Y3374085D01*
X956614Y3369818D01*
X956614Y3360572D01*
X957326Y3354222D01*
X958189Y3350006D01*
X957326Y3345738D01*
X956614Y3339439D01*
X956614Y3321050D01*
X955802Y3317138D01*
X953617Y3313836D01*
X950315Y3311651D01*
X946454Y3310890D01*
X854100Y3310890D01*
X850188Y3311651D01*
X846937Y3313836D01*
X815594Y3345179D01*
X813409Y3348482D01*
X812647Y3352342D01*
X812647Y3659276D01*
X813358Y3663086D01*
X815441Y3666337D01*
X818591Y3668522D01*
X822350Y3669436D01*
X826160Y3668877D01*
X829259Y3667810D01*
X835558Y3667099D01*
X842771Y3667099D01*
X842771Y3700119D01*
X841044Y3700119D01*
X837184Y3700932D01*
X833882Y3703116D01*
X831697Y3706418D01*
X830884Y3710279D01*
X830884Y3729685D01*
X831697Y3733546D01*
X833882Y3736848D01*
X837184Y3739083D01*
X841044Y3739845D01*
X842771Y3739845D01*
X842771Y3772915D01*
X835558Y3772915D01*
X829259Y3772204D01*
X823366Y3770122D01*
X820013Y3769563D01*
X816660Y3770122D01*
X810768Y3772204D01*
X804418Y3772915D01*
X748995Y3772915D01*
X742696Y3772204D01*
X737209Y3770274D01*
X732332Y3767175D01*
X728218Y3763111D01*
X725170Y3758184D01*
X723239Y3752748D01*
X722528Y3746398D01*
X722528Y3693566D01*
X723239Y3687216D01*
X725170Y3681780D01*
X728218Y3676904D01*
X732332Y3672789D01*
X736041Y3670452D01*
X738581Y3668166D01*
X740257Y3665169D01*
X740816Y3661816D01*
X740816Y3333800D01*
X741629Y3325825D01*
X743966Y3318713D01*
X747776Y3312109D01*
X751586Y3307587D01*
X809244Y3249980D01*
X815492Y3244900D01*
X822147Y3241497D01*
X829564Y3239516D01*
X835406Y3239058D01*
X877214Y3239058D01*
X881126Y3238296D01*
X884428Y3236112D01*
X886612Y3232810D01*
X887374Y3228898D01*
X886612Y3225038D01*
X884428Y3221736D01*
X881430Y3218738D01*
X876046Y3212134D01*
X872236Y3205073D01*
X869899Y3197453D01*
X869086Y3188970D01*
X869086Y3160623D01*
X869899Y3152140D01*
X872236Y3144469D01*
X876046Y3137408D01*
X881430Y3130804D01*
X915822Y3096412D01*
X922426Y3091027D01*
X929487Y3087217D01*
X937158Y3084931D01*
X946454Y3084068D01*
X950315Y3083306D01*
X953617Y3081121D01*
X955802Y3077819D01*
X956614Y3073908D01*
X956614Y3060547D01*
X957326Y3054248D01*
X958189Y3049981D01*
X957326Y3045714D01*
X956614Y3039414D01*
X956614Y3021025D01*
X955802Y3017164D01*
X953617Y3013862D01*
X950315Y3011678D01*
X946454Y3010865D01*
X835507Y3010865D01*
X827532Y3010052D01*
X820419Y3007715D01*
X813765Y3003905D01*
X809294Y3000095D01*
X751687Y2942488D01*
X746658Y2936240D01*
X743254Y2929585D01*
X741273Y2922168D01*
X740816Y2916326D01*
X740816Y2638145D01*
X740257Y2634792D01*
X738581Y2631795D01*
X736041Y2629560D01*
X732332Y2627223D01*
X728218Y2623108D01*
X725170Y2618232D01*
X723239Y2612745D01*
X722528Y2606446D01*
X722528Y2553563D01*
X723239Y2547264D01*
X725170Y2541778D01*
X728218Y2536901D01*
X732332Y2532786D01*
X737209Y2529687D01*
X742696Y2527808D01*
X748995Y2527096D01*
X804418Y2527096D01*
X810768Y2527808D01*
X816660Y2529840D01*
X820013Y2530449D01*
X823366Y2529840D01*
X829259Y2527808D01*
X835558Y2527096D01*
X842771Y2527096D01*
X842771Y2560167D01*
X841044Y2560167D01*
X837184Y2560929D01*
X833882Y2563114D01*
X831697Y2566416D01*
X830884Y2570327D01*
X830884Y2589682D01*
X831697Y2593594D01*
X833882Y2596845D01*
X837184Y2599080D01*
X841044Y2599842D01*
X842771Y2599842D01*
X842771Y2632913D01*
X835558Y2632913D01*
X829259Y2632202D01*
X826160Y2631084D01*
X822350Y2630525D01*
X818591Y2631440D01*
X815441Y2633675D01*
X813358Y2636926D01*
X812647Y2640685D01*
X812647Y2897632D01*
X813409Y2901543D01*
X815594Y2904794D01*
X846886Y2936087D01*
X850188Y2938272D01*
X854049Y2939084D01*
X910234Y2939084D01*
X914196Y2938272D01*
X917549Y2935986D01*
X919734Y2932531D01*
X920394Y2928569D01*
X919429Y2924606D01*
X917041Y2921355D01*
X913536Y2919272D01*
X906068Y2916732D01*
X897229Y2911957D01*
X889253Y2905760D01*
X882446Y2898394D01*
X876960Y2889961D01*
X872947Y2880766D01*
X870458Y2871012D01*
X869645Y2860954D01*
X870458Y2850946D01*
X872947Y2841193D01*
X876960Y2831998D01*
X882446Y2823565D01*
X889253Y2816199D01*
X897229Y2810002D01*
X898855Y2809138D01*
X902157Y2806293D01*
X903935Y2802382D01*
X903935Y2798064D01*
X902157Y2794101D01*
X898906Y2791256D01*
X896061Y2789732D01*
X886256Y2782366D01*
X877569Y2773730D01*
X870254Y2763926D01*
X864768Y2753817D01*
X926134Y2753817D01*
X926134Y2790139D01*
X926795Y2793644D01*
X928573Y2796743D01*
X931316Y2798978D01*
X934669Y2800197D01*
X945438Y2801975D01*
X954938Y2805226D01*
X963777Y2810002D01*
X971753Y2816199D01*
X975614Y2820416D01*
X978255Y2822295D01*
X979017Y2824378D01*
X984046Y2831998D01*
X988060Y2841193D01*
X988720Y2843682D01*
X990701Y2847644D01*
X994206Y2850388D01*
X998575Y2851353D01*
X1006856Y2851353D01*
X1010056Y2853385D01*
X1013815Y2854096D01*
X1061212Y2854096D01*
X1064920Y2853385D01*
X1068120Y2851353D01*
X1118412Y2851353D01*
X1119428Y2856890D01*
X1122172Y2860395D01*
X1126236Y2862376D01*
X1130757Y2862427D01*
X1134821Y2860497D01*
X1136700Y2859024D01*
X1145540Y2854248D01*
X1155039Y2850997D01*
X1164996Y2849321D01*
X1175004Y2849321D01*
X1184960Y2850997D01*
X1194460Y2854248D01*
X1203299Y2859024D01*
X1211224Y2865221D01*
X1218031Y2872587D01*
X1223518Y2881020D01*
X1227582Y2890215D01*
X1230020Y2899968D01*
X1230884Y2909976D01*
X1230020Y2920034D01*
X1227582Y2929788D01*
X1223518Y2938983D01*
X1218031Y2947416D01*
X1211224Y2954782D01*
X1203299Y2960979D01*
X1194460Y2965754D01*
X1184960Y2969006D01*
X1175004Y2970682D01*
X1164996Y2970682D01*
X1155039Y2969006D01*
X1145540Y2965754D01*
X1136700Y2960979D01*
X1134821Y2959506D01*
X1130757Y2957576D01*
X1126236Y2957626D01*
X1122172Y2959608D01*
X1119428Y2963113D01*
X1118412Y2967482D01*
X1118412Y2989427D01*
X1117701Y2995726D01*
X1116838Y2999994D01*
X1117701Y3004261D01*
X1118412Y3010560D01*
X1118412Y3023920D01*
X1119174Y3027832D01*
X1121359Y3031134D01*
X1124661Y3033318D01*
X1128572Y3034080D01*
X1164488Y3034080D01*
X1172972Y3034944D01*
X1180642Y3037230D01*
X1187704Y3041040D01*
X1194308Y3046425D01*
X1233982Y3086100D01*
X1237284Y3088335D01*
X1241145Y3089097D01*
X1321511Y3089097D01*
X1324965Y3088487D01*
X1328013Y3086709D01*
X1373581Y3048762D01*
X1377289Y3045968D01*
X1380439Y3044088D01*
X1384401Y3042208D01*
X1387805Y3040938D01*
X1392072Y3039872D01*
X1395628Y3039313D01*
X1400251Y3039110D01*
X1421790Y3039110D01*
X1425702Y3038297D01*
X1429004Y3036112D01*
X1432306Y3032810D01*
X1437233Y3029712D01*
X1442669Y3027781D01*
X1449019Y3027070D01*
X1504442Y3027070D01*
X1510741Y3027781D01*
X1516634Y3029864D01*
X1519986Y3030423D01*
X1523339Y3029864D01*
X1529232Y3027781D01*
X1535582Y3027070D01*
X1591056Y3027070D01*
X1595120Y3026562D01*
X1598625Y3024479D01*
X1601063Y3021177D01*
X1601978Y3017215D01*
X1601216Y3013202D01*
X1598980Y3009747D01*
X1558086Y2968853D01*
X1554784Y2966669D01*
X1550924Y2965907D01*
X1524355Y2965907D01*
X1521002Y2966466D01*
X1518005Y2968142D01*
X1515770Y2970631D01*
X1514195Y2973120D01*
X1510131Y2977184D01*
X1505204Y2980283D01*
X1499768Y2982214D01*
X1493418Y2982925D01*
X1415592Y2982925D01*
X1409242Y2982214D01*
X1403350Y2980131D01*
X1399997Y2979572D01*
X1396644Y2980131D01*
X1390751Y2982214D01*
X1384401Y2982925D01*
X1371600Y2982925D01*
X1371600Y2949854D01*
X1378915Y2949854D01*
X1382826Y2949092D01*
X1386128Y2946857D01*
X1388313Y2943555D01*
X1389075Y2939694D01*
X1389075Y2920288D01*
X1388313Y2916428D01*
X1386128Y2913126D01*
X1382826Y2910941D01*
X1378915Y2910128D01*
X1371600Y2910128D01*
X1371600Y2829864D01*
X1378915Y2829864D01*
X1382826Y2829052D01*
X1386128Y2826867D01*
X1388313Y2823565D01*
X1389075Y2819704D01*
X1389075Y2800299D01*
X1388313Y2796438D01*
X1386128Y2793136D01*
X1382826Y2790901D01*
X1378915Y2790139D01*
X1371600Y2790139D01*
X1371600Y2780436D01*
X1370990Y2776982D01*
X1369212Y2773934D01*
X1366520Y2771648D01*
X1359712Y2767736D01*
X1355394Y2764028D01*
X1336751Y2745384D01*
X1333296Y2743047D01*
X1331061Y2739745D01*
X1306068Y2714701D01*
X1301191Y2708706D01*
X1297940Y2702306D01*
X1296009Y2695244D01*
X1295603Y2689606D01*
X1295603Y2615184D01*
X1296416Y2607513D01*
X1300276Y2596083D01*
X1299870Y2591968D01*
X1297889Y2588310D01*
X1294587Y2585821D01*
X1290574Y2584805D01*
X1286459Y2585516D01*
X1283004Y2587752D01*
X1265783Y2605024D01*
X1259535Y2610053D01*
X1252829Y2613456D01*
X1245463Y2615438D01*
X1239621Y2615895D01*
X1234338Y2615895D01*
X1230985Y2616454D01*
X1228039Y2618130D01*
X1225753Y2620670D01*
X1224229Y2623108D01*
X1220114Y2627223D01*
X1215237Y2630271D01*
X1209751Y2632202D01*
X1203452Y2632913D01*
X1125575Y2632913D01*
X1119225Y2632202D01*
X1113332Y2630119D01*
X1109980Y2629560D01*
X1106627Y2630119D01*
X1100734Y2632202D01*
X1094435Y2632913D01*
X1083005Y2632913D01*
X1081582Y2633218D01*
X1081582Y2599842D01*
X1088948Y2599842D01*
X1092809Y2599080D01*
X1096111Y2596845D01*
X1098296Y2593594D01*
X1099108Y2589682D01*
X1099108Y2570327D01*
X1098296Y2566416D01*
X1096111Y2563114D01*
X1092809Y2560929D01*
X1088948Y2560167D01*
X1081582Y2560167D01*
X1081582Y2527096D01*
X1094435Y2527096D01*
X1100734Y2527808D01*
X1106627Y2529840D01*
X1109980Y2530449D01*
X1113332Y2529840D01*
X1119225Y2527808D01*
X1125575Y2527096D01*
X1203452Y2527096D01*
X1209751Y2527808D01*
X1215237Y2529687D01*
X1220114Y2532786D01*
X1224381Y2535936D01*
X1228293Y2536748D01*
X1232154Y2535936D01*
X1235456Y2533751D01*
X1241094Y2528112D01*
X1243330Y2524810D01*
X1244092Y2520899D01*
X1244092Y2516987D01*
X1243330Y2513126D01*
X1241094Y2509824D01*
X1237234Y2505913D01*
X1231646Y2497937D01*
X1227531Y2489098D01*
X1224991Y2479700D01*
X1224127Y2469997D01*
X1224991Y2460294D01*
X1227531Y2450896D01*
X1231646Y2442057D01*
X1237234Y2434082D01*
X1241145Y2430170D01*
X1243380Y2426817D01*
X1244142Y2422855D01*
X1244092Y2420975D01*
X1244854Y2412949D01*
X1247089Y2405837D01*
X1250797Y2399182D01*
X1254912Y2394305D01*
X1262532Y2386685D01*
X1264513Y2383891D01*
X1265478Y2380640D01*
X1265275Y2377236D01*
X1264615Y2374392D01*
X1264615Y2368600D01*
X1265885Y2362962D01*
X1268425Y2357780D01*
X1272387Y2352802D01*
X1311554Y2313584D01*
X1316532Y2309622D01*
X1322171Y2306929D01*
X1324965Y2304948D01*
X1326896Y2302154D01*
X1329639Y2296566D01*
X1333601Y2291588D01*
X1372768Y2252370D01*
X1377746Y2248408D01*
X1382979Y2245918D01*
X1388618Y2244598D01*
X1394409Y2244598D01*
X1397203Y2245258D01*
X1400606Y2245461D01*
X1403908Y2244496D01*
X1406652Y2242566D01*
X1414221Y2234996D01*
X1420571Y2229866D01*
X1425295Y2227275D01*
X1430578Y2225548D01*
X1433626Y2223973D01*
X1435963Y2221433D01*
X1437335Y2218232D01*
X1437538Y2214778D01*
X1437081Y2210968D01*
X1437081Y2155545D01*
X1437792Y2149246D01*
X1439875Y2143353D01*
X1440434Y2140000D01*
X1439875Y2136648D01*
X1437792Y2130755D01*
X1437081Y2124405D01*
X1437081Y2068982D01*
X1437792Y2062683D01*
X1439722Y2057196D01*
X1442770Y2052320D01*
X1446885Y2048205D01*
X1449324Y2046681D01*
X1451864Y2044446D01*
X1453489Y2041448D01*
X1454099Y2038096D01*
X1454099Y1930552D01*
X1454912Y1922525D01*
X1457248Y1915414D01*
X1461058Y1908810D01*
X1464868Y1904339D01*
X1634236Y1734972D01*
X1640484Y1729943D01*
X1647139Y1726539D01*
X1654505Y1724558D01*
X1662379Y1724101D01*
X1666697Y1723136D01*
X1670202Y1720443D01*
G37*
G36*
X2960624Y2157069D02*
G01*
X2973425Y2157069D01*
X2979775Y2157780D01*
X2985211Y2159711D01*
X2990138Y2162810D01*
X2994202Y2166874D01*
X2997301Y2171801D01*
X2999181Y2177237D01*
X2999892Y2183587D01*
X2999892Y2190140D01*
X2960624Y2190140D01*
G37*
G36*
X4665573Y2279091D02*
G01*
X4701133Y2279091D01*
X4701133Y2323693D01*
X4639106Y2323693D01*
X4639106Y2305608D01*
X4639818Y2299258D01*
X4641697Y2293823D01*
X4644796Y2288895D01*
X4648860Y2284831D01*
X4653788Y2281732D01*
X4659223Y2279802D01*
G37*
G36*
X4798822Y2279091D02*
G01*
X4834432Y2279091D01*
X4840732Y2279802D01*
X4846218Y2281732D01*
X4851095Y2284831D01*
X4855210Y2288895D01*
X4858258Y2293823D01*
X4860188Y2299258D01*
X4860899Y2305608D01*
X4860899Y2323693D01*
X4798822Y2323693D01*
G37*
G36*
X3229864Y2350058D02*
G01*
X3236417Y2350058D01*
X3242767Y2350770D01*
X3248202Y2352700D01*
X3253130Y2355799D01*
X3257194Y2359863D01*
X3260293Y2364790D01*
X3262172Y2370226D01*
X3262884Y2376576D01*
X3262884Y2389378D01*
X3229864Y2389378D01*
G37*
G36*
X4138828Y2386380D02*
G01*
X4200906Y2386380D01*
X4200906Y2404465D01*
X4200194Y2410764D01*
X4198264Y2416251D01*
X4195216Y2421128D01*
X4191101Y2425242D01*
X4186224Y2428290D01*
X4180738Y2430221D01*
X4174439Y2430932D01*
X4138828Y2430932D01*
G37*
G36*
X4798822Y2386380D02*
G01*
X4860899Y2386380D01*
X4860899Y2404465D01*
X4860188Y2410764D01*
X4858258Y2416251D01*
X4855210Y2421128D01*
X4851095Y2425242D01*
X4846218Y2428290D01*
X4840732Y2430221D01*
X4834432Y2430932D01*
X4798822Y2430932D01*
G37*
G36*
X4639106Y2386380D02*
G01*
X4701133Y2386380D01*
X4701133Y2430932D01*
X4665573Y2430932D01*
X4659223Y2430221D01*
X4653788Y2428290D01*
X4648860Y2425242D01*
X4644796Y2421128D01*
X4641697Y2416251D01*
X4639818Y2410764D01*
X4639106Y2404465D01*
G37*
G36*
X4664506Y2527046D02*
G01*
X4697628Y2527046D01*
X4697628Y2586634D01*
X4638040Y2586634D01*
X4638040Y2553512D01*
X4638751Y2547213D01*
X4640681Y2541727D01*
X4643729Y2536850D01*
X4647844Y2532735D01*
X4652721Y2529687D01*
X4658207Y2527757D01*
G37*
G36*
X4790287Y2527046D02*
G01*
X4823409Y2527046D01*
X4829708Y2527757D01*
X4835194Y2529687D01*
X4840071Y2532735D01*
X4844186Y2536850D01*
X4847234Y2541727D01*
X4849164Y2547213D01*
X4849876Y2553512D01*
X4849876Y2586634D01*
X4790287Y2586634D01*
G37*
G36*
X883767Y2527096D02*
G01*
X890981Y2527096D01*
X897331Y2527808D01*
X902766Y2529687D01*
X907694Y2532786D01*
X911758Y2536901D01*
X914857Y2541778D01*
X916736Y2547264D01*
X917448Y2553563D01*
X917448Y2560167D01*
X883767Y2560167D01*
G37*
G36*
X1016558Y2527096D02*
G01*
X1029411Y2527096D01*
X1029411Y2560167D01*
X990092Y2560167D01*
X990092Y2553563D01*
X990803Y2547264D01*
X992682Y2541778D01*
X995781Y2536901D01*
X999896Y2532786D01*
X1004773Y2529687D01*
X1010259Y2527808D01*
G37*
G36*
X990092Y2599842D02*
G01*
X1029411Y2599842D01*
X1029411Y2611729D01*
X1022502Y2611272D01*
X990600Y2611272D01*
X990092Y2606446D01*
G37*
G36*
X883767Y2599842D02*
G01*
X917448Y2599842D01*
X917448Y2606446D01*
X916736Y2612745D01*
X913485Y2621889D01*
X913587Y2625852D01*
X915212Y2629408D01*
X918057Y2632151D01*
X921715Y2633573D01*
X926134Y2633370D01*
X926134Y2681122D01*
X864768Y2681122D01*
X870254Y2671064D01*
X877569Y2661259D01*
X886256Y2652572D01*
X888085Y2651201D01*
X890727Y2648305D01*
X892048Y2644597D01*
X891895Y2640685D01*
X890269Y2637129D01*
X887425Y2634437D01*
X883767Y2633065D01*
G37*
G36*
X613867Y2634488D02*
G01*
X616712Y2635097D01*
X628192Y2639364D01*
X638911Y2645257D01*
X648766Y2652572D01*
X657402Y2661259D01*
X664768Y2671064D01*
X670255Y2681122D01*
X613867Y2681122D01*
G37*
G36*
X511149Y2634488D02*
G01*
X511149Y2681122D01*
X454761Y2681122D01*
X460248Y2671064D01*
X467614Y2661259D01*
X476250Y2652572D01*
X486054Y2645257D01*
X496824Y2639364D01*
X508304Y2635097D01*
G37*
G36*
X1077061Y2651302D02*
G01*
X1078738Y2652572D01*
X1087424Y2661259D01*
X1094740Y2671064D01*
X1100277Y2681122D01*
X1038860Y2681122D01*
X1038860Y2653080D01*
X1039571Y2653233D01*
X1071422Y2653233D01*
X1075334Y2652471D01*
G37*
G36*
X4790287Y2679293D02*
G01*
X4849876Y2679293D01*
X4849876Y2712415D01*
X4849164Y2718714D01*
X4847234Y2724200D01*
X4844186Y2729077D01*
X4840071Y2733192D01*
X4835194Y2736240D01*
X4829708Y2738170D01*
X4823409Y2738882D01*
X4790287Y2738882D01*
G37*
G36*
X4638040Y2679293D02*
G01*
X4697628Y2679293D01*
X4697628Y2738882D01*
X4664506Y2738882D01*
X4658207Y2738170D01*
X4652721Y2736240D01*
X4647844Y2733192D01*
X4643729Y2729077D01*
X4640681Y2724200D01*
X4638751Y2718714D01*
X4638040Y2712415D01*
G37*
G36*
X454761Y2753817D02*
G01*
X511149Y2753817D01*
X511149Y2800502D01*
X508304Y2799892D01*
X496824Y2795625D01*
X486054Y2789732D01*
X476250Y2782366D01*
X467614Y2773730D01*
X460248Y2763926D01*
G37*
G36*
X613867Y2753817D02*
G01*
X670255Y2753817D01*
X664768Y2763926D01*
X657402Y2773730D01*
X648766Y2782366D01*
X638911Y2789732D01*
X628192Y2795625D01*
X616712Y2799892D01*
X613867Y2800502D01*
G37*
G36*
X1061567Y2753817D02*
G01*
X1100277Y2753817D01*
X1096060Y2761488D01*
X1094841Y2765704D01*
X1095502Y2770022D01*
X1097889Y2773680D01*
X1101598Y2775966D01*
X1103731Y2776677D01*
X1108608Y2779776D01*
X1112723Y2783890D01*
X1115771Y2788767D01*
X1117701Y2794254D01*
X1118412Y2800553D01*
X1118412Y2808630D01*
X1071372Y2808630D01*
X1071372Y2763926D01*
X1070559Y2760014D01*
X1068374Y2756712D01*
X1065072Y2754528D01*
G37*
G36*
X1306576Y2757068D02*
G01*
X1319377Y2757068D01*
X1319377Y2790139D01*
X1280058Y2790139D01*
X1280058Y2783586D01*
X1280769Y2777236D01*
X1282700Y2771800D01*
X1285798Y2766872D01*
X1289862Y2762808D01*
X1294790Y2759710D01*
X1300226Y2757779D01*
G37*
G36*
X4790287Y2781046D02*
G01*
X4823409Y2781046D01*
X4829708Y2781757D01*
X4835194Y2783687D01*
X4840071Y2786735D01*
X4844186Y2790850D01*
X4847234Y2795727D01*
X4849164Y2801213D01*
X4849876Y2807512D01*
X4849876Y2840634D01*
X4790287Y2840634D01*
G37*
G36*
X4664506Y2781046D02*
G01*
X4697628Y2781046D01*
X4697628Y2840634D01*
X4638040Y2840634D01*
X4638040Y2807512D01*
X4638751Y2801213D01*
X4640681Y2795727D01*
X4643729Y2790850D01*
X4647844Y2786735D01*
X4652721Y2783687D01*
X4658207Y2781757D01*
G37*
G36*
X1280058Y2829864D02*
G01*
X1319377Y2829864D01*
X1319377Y2910128D01*
X1280058Y2910128D01*
X1280058Y2903575D01*
X1280769Y2897225D01*
X1282700Y2891790D01*
X1285798Y2886862D01*
X1289862Y2882798D01*
X1298702Y2877464D01*
X1301089Y2874060D01*
X1301953Y2869996D01*
X1301089Y2865932D01*
X1298702Y2862529D01*
X1289862Y2857195D01*
X1285798Y2853131D01*
X1282700Y2848203D01*
X1280769Y2842768D01*
X1280058Y2836418D01*
G37*
G36*
X2930601Y2897073D02*
G01*
X2943453Y2897073D01*
X2949752Y2897784D01*
X2955239Y2899714D01*
X2960116Y2902813D01*
X2964230Y2906877D01*
X2967278Y2911805D01*
X2969209Y2917240D01*
X2969920Y2923540D01*
X2969920Y2930144D01*
X2930601Y2930144D01*
G37*
G36*
X4790287Y2933293D02*
G01*
X4849876Y2933293D01*
X4849876Y2966415D01*
X4849164Y2972714D01*
X4847234Y2978200D01*
X4844186Y2983077D01*
X4840071Y2987192D01*
X4835194Y2990240D01*
X4829708Y2992170D01*
X4823409Y2992882D01*
X4790287Y2992882D01*
G37*
G36*
X4638040Y2933293D02*
G01*
X4697628Y2933293D01*
X4697628Y2992882D01*
X4664506Y2992882D01*
X4658207Y2992170D01*
X4652721Y2990240D01*
X4647844Y2987192D01*
X4643729Y2983077D01*
X4640681Y2978200D01*
X4638751Y2972714D01*
X4638040Y2966415D01*
G37*
G36*
X1280058Y2949854D02*
G01*
X1319377Y2949854D01*
X1319377Y2982925D01*
X1306576Y2982925D01*
X1300226Y2982214D01*
X1294790Y2980283D01*
X1289862Y2977184D01*
X1285798Y2973120D01*
X1282700Y2968193D01*
X1280769Y2962757D01*
X1280058Y2956407D01*
G37*
G36*
X2930601Y2969818D02*
G01*
X2969920Y2969818D01*
X2969920Y2976422D01*
X2969209Y2982722D01*
X2967278Y2988208D01*
X2964230Y2993085D01*
X2959506Y2997809D01*
X2957322Y3001111D01*
X2956509Y3004972D01*
X2957322Y3008884D01*
X2959506Y3012186D01*
X2964230Y3016859D01*
X2967278Y3021787D01*
X2969209Y3027222D01*
X2969920Y3033572D01*
X2969920Y3040126D01*
X2930601Y3040126D01*
G37*
G36*
X4739944Y3215436D02*
G01*
X4754168Y3215436D01*
X4768240Y3217265D01*
X4782007Y3220872D01*
X4795164Y3226206D01*
X4807559Y3233166D01*
X4818938Y3241649D01*
X4829149Y3251555D01*
X4837988Y3262680D01*
X4845354Y3274822D01*
X4851095Y3287826D01*
X4855159Y3301441D01*
X4857445Y3315462D01*
X4857902Y3329635D01*
X4856530Y3343808D01*
X4853330Y3357676D01*
X4848453Y3370986D01*
X4841900Y3383584D01*
X4833721Y3395218D01*
X4824171Y3405784D01*
X4813350Y3414979D01*
X4801463Y3422700D01*
X4788662Y3428898D01*
X4775200Y3433368D01*
X4761230Y3436061D01*
X4747056Y3436975D01*
X4732883Y3436061D01*
X4718913Y3433368D01*
X4705451Y3428898D01*
X4692650Y3422700D01*
X4680712Y3414979D01*
X4669891Y3405784D01*
X4660341Y3395218D01*
X4652213Y3383584D01*
X4645660Y3370986D01*
X4640732Y3357676D01*
X4637582Y3343808D01*
X4636211Y3329635D01*
X4636668Y3315462D01*
X4638954Y3301441D01*
X4642967Y3287826D01*
X4648758Y3274822D01*
X4656124Y3262680D01*
X4664964Y3251555D01*
X4675174Y3241649D01*
X4686554Y3233166D01*
X4698949Y3226206D01*
X4712106Y3220872D01*
X4725873Y3217265D01*
G37*
G36*
X1386535Y3277108D02*
G01*
X1399387Y3277108D01*
X1399387Y3310128D01*
X1360068Y3310128D01*
X1360068Y3303574D01*
X1360779Y3297224D01*
X1362710Y3291789D01*
X1365758Y3286861D01*
X1369872Y3282797D01*
X1374749Y3279698D01*
X1380236Y3277819D01*
G37*
G36*
X1360068Y3349853D02*
G01*
X1399387Y3349853D01*
X1399387Y3382924D01*
X1386535Y3382924D01*
X1380236Y3382213D01*
X1374749Y3380282D01*
X1369872Y3377184D01*
X1365758Y3373120D01*
X1362710Y3368192D01*
X1360779Y3362756D01*
X1360068Y3356406D01*
G37*
G36*
X1647088Y3450590D02*
G01*
X1680159Y3450590D01*
X1680159Y3496310D01*
X1679295Y3494176D01*
X1676146Y3491128D01*
X1672031Y3489756D01*
X1667256Y3489198D01*
X1661769Y3487267D01*
X1656892Y3484219D01*
X1652778Y3480104D01*
X1649730Y3475228D01*
X1647799Y3469741D01*
X1647088Y3463442D01*
G37*
G36*
X4739944Y3469436D02*
G01*
X4754168Y3469436D01*
X4768240Y3471265D01*
X4782007Y3474872D01*
X4795164Y3480206D01*
X4807559Y3487165D01*
X4818938Y3495649D01*
X4829149Y3505555D01*
X4837988Y3516680D01*
X4845354Y3528822D01*
X4851095Y3541826D01*
X4855159Y3555441D01*
X4857445Y3569462D01*
X4857902Y3583635D01*
X4856530Y3597808D01*
X4853330Y3611676D01*
X4848453Y3624986D01*
X4841900Y3637584D01*
X4833721Y3649218D01*
X4824171Y3659784D01*
X4813350Y3668979D01*
X4801463Y3676700D01*
X4788662Y3682898D01*
X4775200Y3687368D01*
X4761230Y3690061D01*
X4747056Y3690975D01*
X4732883Y3690061D01*
X4718913Y3687368D01*
X4705451Y3682898D01*
X4692650Y3676700D01*
X4680712Y3668979D01*
X4669891Y3659784D01*
X4660341Y3649218D01*
X4652213Y3637584D01*
X4645660Y3624986D01*
X4640732Y3611676D01*
X4637582Y3597808D01*
X4636211Y3583635D01*
X4636668Y3569462D01*
X4638954Y3555441D01*
X4642967Y3541826D01*
X4648758Y3528822D01*
X4656124Y3516680D01*
X4664964Y3505555D01*
X4675174Y3495649D01*
X4686554Y3487165D01*
X4698949Y3480206D01*
X4712106Y3474872D01*
X4725873Y3471265D01*
G37*
G36*
X4444187Y3480612D02*
G01*
X4444187Y3531260D01*
X4393641Y3531260D01*
X4394758Y3528822D01*
X4402124Y3516680D01*
X4410964Y3505555D01*
X4421174Y3495649D01*
X4432554Y3487165D01*
G37*
G36*
X4541926Y3480612D02*
G01*
X4553559Y3487165D01*
X4564938Y3495649D01*
X4575149Y3505555D01*
X4583988Y3516680D01*
X4591354Y3528822D01*
X4592421Y3531260D01*
X4541926Y3531260D01*
G37*
G36*
X1071372Y3491331D02*
G01*
X1118412Y3491331D01*
X1118412Y3499408D01*
X1117701Y3505758D01*
X1115771Y3511194D01*
X1112723Y3516122D01*
X1108608Y3520186D01*
X1103731Y3523284D01*
X1101648Y3523996D01*
X1097889Y3526282D01*
X1095502Y3529939D01*
X1094841Y3534257D01*
X1096060Y3538474D01*
X1100277Y3546144D01*
X1062431Y3546144D01*
X1065936Y3545027D01*
X1068781Y3542792D01*
X1070711Y3539642D01*
X1071372Y3536035D01*
G37*
G36*
X613867Y3499459D02*
G01*
X616712Y3500069D01*
X628192Y3504387D01*
X638911Y3510229D01*
X648766Y3517595D01*
X657402Y3526231D01*
X664768Y3536035D01*
X670255Y3546144D01*
X613867Y3546144D01*
G37*
G36*
X511149Y3499459D02*
G01*
X511149Y3546144D01*
X454761Y3546144D01*
X460248Y3536035D01*
X467614Y3526231D01*
X476250Y3517595D01*
X486054Y3510229D01*
X496824Y3504387D01*
X508304Y3500069D01*
G37*
G36*
X2020620Y3509822D02*
G01*
X2104390Y3509822D01*
X2104390Y3542893D01*
X2091537Y3542893D01*
X2085238Y3542182D01*
X2079752Y3540302D01*
X2074925Y3537254D01*
X2069795Y3531920D01*
X2066442Y3529634D01*
X2062480Y3528872D01*
X2058517Y3529634D01*
X2055215Y3531920D01*
X2050034Y3537254D01*
X2045207Y3540302D01*
X2039772Y3542182D01*
X2033422Y3542893D01*
X2022957Y3542893D01*
X2020620Y3543350D01*
G37*
G36*
X1393545Y3540048D02*
G01*
X1400149Y3540048D01*
X1400149Y3579368D01*
X1367078Y3579368D01*
X1367078Y3566566D01*
X1367790Y3560216D01*
X1369720Y3554780D01*
X1372768Y3549853D01*
X1376883Y3545789D01*
X1381760Y3542690D01*
X1387246Y3540810D01*
G37*
G36*
X1439824Y3540048D02*
G01*
X1446428Y3540048D01*
X1452727Y3540810D01*
X1458214Y3542690D01*
X1463090Y3545789D01*
X1467205Y3549853D01*
X1470304Y3554780D01*
X1472184Y3560216D01*
X1472895Y3566566D01*
X1472895Y3579368D01*
X1439824Y3579368D01*
G37*
G36*
X454761Y3618839D02*
G01*
X511149Y3618839D01*
X511149Y3665524D01*
X508304Y3664915D01*
X496824Y3660597D01*
X486054Y3654755D01*
X476250Y3647389D01*
X467614Y3638702D01*
X460248Y3628898D01*
G37*
G36*
X613867Y3618839D02*
G01*
X670255Y3618839D01*
X664768Y3628898D01*
X657402Y3638702D01*
X648766Y3647389D01*
X638911Y3654755D01*
X628192Y3660597D01*
X616712Y3664915D01*
X613867Y3665524D01*
G37*
G36*
X1038860Y3618839D02*
G01*
X1100277Y3618839D01*
X1094740Y3628898D01*
X1087424Y3638702D01*
X1078738Y3647389D01*
X1068933Y3654755D01*
X1058164Y3660597D01*
X1046683Y3664915D01*
X1038860Y3666591D01*
G37*
G36*
X864768Y3618839D02*
G01*
X926134Y3618839D01*
X926134Y3666591D01*
X921715Y3666388D01*
X918006Y3667861D01*
X915162Y3670554D01*
X913587Y3674160D01*
X913434Y3678072D01*
X916736Y3687216D01*
X917448Y3693566D01*
X917448Y3700119D01*
X883767Y3700119D01*
X883767Y3666947D01*
X887425Y3665524D01*
X890269Y3662883D01*
X891946Y3659276D01*
X892098Y3655364D01*
X890778Y3651707D01*
X888136Y3648811D01*
X886256Y3647389D01*
X877620Y3638702D01*
X870254Y3628898D01*
G37*
G36*
X4393742Y3628948D02*
G01*
X4444187Y3628948D01*
X4444187Y3679393D01*
X4438650Y3676700D01*
X4426712Y3668979D01*
X4415891Y3659784D01*
X4406341Y3649218D01*
X4398213Y3637584D01*
G37*
G36*
X4541926Y3628948D02*
G01*
X4592370Y3628948D01*
X4587900Y3637584D01*
X4579721Y3649218D01*
X4570171Y3659784D01*
X4559350Y3668979D01*
X4547463Y3676700D01*
X4541926Y3679393D01*
G37*
G36*
X4739944Y3723436D02*
G01*
X4754168Y3723436D01*
X4768240Y3725265D01*
X4782007Y3728872D01*
X4795164Y3734206D01*
X4807559Y3741165D01*
X4818938Y3749649D01*
X4829149Y3759555D01*
X4837988Y3770680D01*
X4845354Y3782822D01*
X4851095Y3795826D01*
X4855159Y3809441D01*
X4857445Y3823462D01*
X4857902Y3837635D01*
X4856530Y3851808D01*
X4853330Y3865676D01*
X4848453Y3878986D01*
X4841900Y3891584D01*
X4833721Y3903218D01*
X4824171Y3913784D01*
X4813350Y3922979D01*
X4801463Y3930700D01*
X4788662Y3936898D01*
X4775200Y3941368D01*
X4761230Y3944061D01*
X4747056Y3944975D01*
X4732883Y3944061D01*
X4718913Y3941368D01*
X4705451Y3936898D01*
X4692650Y3930700D01*
X4680712Y3922979D01*
X4669891Y3913784D01*
X4660341Y3903218D01*
X4652213Y3891584D01*
X4645660Y3878986D01*
X4640732Y3865676D01*
X4637582Y3851808D01*
X4636211Y3837635D01*
X4636668Y3823462D01*
X4638954Y3809441D01*
X4642967Y3795826D01*
X4648758Y3782822D01*
X4656124Y3770680D01*
X4664964Y3759555D01*
X4675174Y3749649D01*
X4686554Y3741165D01*
X4698949Y3734206D01*
X4712106Y3728872D01*
X4725873Y3725265D01*
G37*
G36*
X883767Y3739845D02*
G01*
X917448Y3739845D01*
X917448Y3746398D01*
X916736Y3752748D01*
X914857Y3758184D01*
X911758Y3763111D01*
X907694Y3767175D01*
X902766Y3770274D01*
X897331Y3772204D01*
X890981Y3772915D01*
X883767Y3772915D01*
G37*
G36*
X1842109Y3750614D02*
G01*
X1875129Y3750614D01*
X1875129Y3789934D01*
X1868576Y3789934D01*
X1862226Y3789222D01*
X1856790Y3787292D01*
X1851863Y3784193D01*
X1847799Y3780129D01*
X1844700Y3775201D01*
X1842820Y3769766D01*
X1842109Y3763416D01*
G37*
G36*
X1914855Y3750614D02*
G01*
X1947925Y3750614D01*
X1947925Y3763416D01*
X1947214Y3769766D01*
X1945284Y3775201D01*
X1942185Y3780129D01*
X1938121Y3784193D01*
X1933193Y3787292D01*
X1927758Y3789222D01*
X1921408Y3789934D01*
X1914855Y3789934D01*
G37*

%LPD*%
G36*
X3764026Y3313074D02*
G01*
X3479139Y3315614D01*
X3475329Y3316427D01*
X3472078Y3318611D01*
X3237331Y3553460D01*
X3235096Y3556762D01*
X3234334Y3560622D01*
X3235096Y3564534D01*
X3237331Y3567836D01*
X3240582Y3570020D01*
X3244494Y3570782D01*
X3766820Y3570782D01*
X3770223Y3570224D01*
X3773170Y3568598D01*
X3775456Y3566058D01*
X3777792Y3562299D01*
X3781856Y3558235D01*
X3786784Y3555136D01*
X3792220Y3553256D01*
X3798570Y3552494D01*
X3851401Y3552494D01*
X3857751Y3553256D01*
X3863187Y3555136D01*
X3868115Y3558235D01*
X3872179Y3561384D01*
X3875684Y3562248D01*
X3879291Y3561842D01*
X3882542Y3560216D01*
X3884980Y3557524D01*
X3887266Y3553866D01*
X3891381Y3549802D01*
X3896258Y3546703D01*
X3902354Y3544570D01*
X3905910Y3542436D01*
X3908298Y3539032D01*
X3909161Y3534968D01*
X3908298Y3530904D01*
X3905910Y3527551D01*
X3902354Y3525418D01*
X3896258Y3523284D01*
X3891381Y3520186D01*
X3887266Y3516122D01*
X3883863Y3510635D01*
X3881577Y3508095D01*
X3878630Y3506470D01*
X3875278Y3505911D01*
X3866794Y3505911D01*
X3863746Y3506368D01*
X3860952Y3507740D01*
X3852926Y3513378D01*
X3844086Y3517493D01*
X3834688Y3520033D01*
X3824986Y3520846D01*
X3815283Y3520033D01*
X3805885Y3517493D01*
X3797046Y3513378D01*
X3789070Y3507790D01*
X3782212Y3500882D01*
X3776624Y3492906D01*
X3772509Y3484118D01*
X3769969Y3474669D01*
X3769106Y3464966D01*
X3769969Y3455314D01*
X3772509Y3445865D01*
X3776624Y3437077D01*
X3782263Y3429000D01*
X3783634Y3426206D01*
X3784092Y3423158D01*
X3784092Y3418179D01*
X3783329Y3414268D01*
X3781094Y3410965D01*
X3777792Y3407664D01*
X3774694Y3402787D01*
X3772814Y3397300D01*
X3772103Y3391001D01*
X3772103Y3335578D01*
X3772814Y3329228D01*
X3773728Y3326587D01*
X3774287Y3322726D01*
X3773373Y3318967D01*
X3771137Y3315817D01*
X3767836Y3313785D01*
G37*

%LPD*%
G36*
X3168548Y3195878D02*
G01*
X3164687Y3196691D01*
X3161385Y3198876D01*
X3159150Y3202178D01*
X3158388Y3206038D01*
X3158388Y3210153D01*
X3151073Y3210153D01*
X3147161Y3210915D01*
X3143859Y3213100D01*
X3141675Y3216402D01*
X3140913Y3220313D01*
X3140913Y3239668D01*
X3141675Y3243580D01*
X3143859Y3246882D01*
X3147161Y3249066D01*
X3151073Y3249828D01*
X3158388Y3249828D01*
X3158388Y3282899D01*
X3145586Y3282899D01*
X3139236Y3282187D01*
X3133344Y3280105D01*
X3129991Y3279546D01*
X3126638Y3280105D01*
X3120339Y3282340D01*
X3117088Y3284169D01*
X3114751Y3287064D01*
X3113633Y3290620D01*
X3113836Y3294379D01*
X3115360Y3297732D01*
X3118358Y3302050D01*
X3122472Y3310890D01*
X3125012Y3320287D01*
X3125876Y3329990D01*
X3125012Y3339693D01*
X3122472Y3349091D01*
X3118358Y3357930D01*
X3112770Y3365906D01*
X3105912Y3372764D01*
X3097936Y3378352D01*
X3089097Y3382467D01*
X3079699Y3385007D01*
X3069996Y3385870D01*
X3060293Y3385007D01*
X3050895Y3382467D01*
X3042056Y3378352D01*
X3034080Y3372764D01*
X3027222Y3365906D01*
X3021634Y3357930D01*
X3017520Y3349091D01*
X3014980Y3339693D01*
X3014116Y3329990D01*
X3014980Y3320287D01*
X3017520Y3310890D01*
X3021634Y3302050D01*
X3027019Y3294278D01*
X3028645Y3290570D01*
X3028696Y3286455D01*
X3027070Y3282696D01*
X3024124Y3279851D01*
X3019856Y3277209D01*
X3015792Y3273094D01*
X3014218Y3270656D01*
X3011982Y3268116D01*
X3008985Y3266440D01*
X3005632Y3265881D01*
X3001924Y3265881D01*
X2998571Y3266440D01*
X2995574Y3268116D01*
X2993288Y3270656D01*
X2991764Y3273094D01*
X2987649Y3277209D01*
X2982772Y3280257D01*
X2977286Y3282187D01*
X2970987Y3282899D01*
X2915564Y3282899D01*
X2909265Y3282187D01*
X2903372Y3280105D01*
X2900019Y3279546D01*
X2896616Y3280105D01*
X2890723Y3282187D01*
X2884424Y3282899D01*
X2829001Y3282899D01*
X2822702Y3282187D01*
X2817215Y3280257D01*
X2812338Y3277209D01*
X2808224Y3273094D01*
X2806700Y3270656D01*
X2804414Y3268116D01*
X2801416Y3266440D01*
X2798064Y3265881D01*
X2791815Y3265881D01*
X2788107Y3266592D01*
X2784856Y3268675D01*
X2782620Y3271774D01*
X2781706Y3275431D01*
X2782925Y3285540D01*
X2782925Y3340963D01*
X2782214Y3347313D01*
X2780284Y3352749D01*
X2777185Y3357676D01*
X2773883Y3360978D01*
X2771851Y3363874D01*
X2770936Y3367278D01*
X2771241Y3370834D01*
X2772714Y3373983D01*
X2778353Y3382060D01*
X2782468Y3390900D01*
X2785008Y3400298D01*
X2785872Y3410000D01*
X2785008Y3419703D01*
X2782468Y3429101D01*
X2778353Y3437940D01*
X2772765Y3445916D01*
X2765907Y3452774D01*
X2757932Y3458362D01*
X2751480Y3461410D01*
X2748330Y3463696D01*
X2746248Y3466947D01*
X2745587Y3470808D01*
X2746400Y3474567D01*
X2748584Y3477768D01*
X2795371Y3524605D01*
X2799080Y3526942D01*
X2803499Y3527501D01*
X2807665Y3526180D01*
X2810916Y3523183D01*
X2817215Y3514039D01*
X2824073Y3507181D01*
X2832049Y3501593D01*
X2840888Y3497478D01*
X2850286Y3494938D01*
X2859989Y3494125D01*
X2869692Y3494938D01*
X2879090Y3497478D01*
X2887929Y3501593D01*
X2895904Y3507181D01*
X2899816Y3511092D01*
X2903118Y3513328D01*
X2907030Y3514090D01*
X3170885Y3514090D01*
X3174796Y3513328D01*
X3178098Y3511092D01*
X3434283Y3254806D01*
X3440277Y3249676D01*
X3476751Y3213252D01*
X3478936Y3209950D01*
X3479698Y3206038D01*
X3478936Y3202178D01*
X3476751Y3198876D01*
X3473450Y3196691D01*
X3469538Y3195878D01*
X3260090Y3195878D01*
X3256178Y3196691D01*
X3252876Y3198876D01*
X3250692Y3202178D01*
X3249930Y3206038D01*
X3249930Y3210153D01*
X3210610Y3210153D01*
X3210610Y3206038D01*
X3209848Y3202178D01*
X3207613Y3198876D01*
X3204311Y3196691D01*
X3200450Y3195878D01*
G37*

%LPC*%
G36*
X3210610Y3249828D02*
G01*
X3249930Y3249828D01*
X3249930Y3256432D01*
X3249218Y3262731D01*
X3247288Y3268217D01*
X3244189Y3273094D01*
X3240125Y3277209D01*
X3235198Y3280257D01*
X3229762Y3282187D01*
X3223412Y3282899D01*
X3210610Y3282899D01*
G37*

%LPD*%
G36*
X1689658Y2382062D02*
G01*
X1685899Y2382672D01*
X1682648Y2384602D01*
X1680311Y2387600D01*
X1677314Y2393442D01*
X1673301Y2398471D01*
X1631696Y2440127D01*
X1626717Y2444089D01*
X1624279Y2445258D01*
X1621485Y2447239D01*
X1607362Y2461361D01*
X1605178Y2464663D01*
X1604365Y2468524D01*
X1604365Y2471521D01*
X1605178Y2475382D01*
X1607362Y2478684D01*
X1609648Y2480970D01*
X1612950Y2483154D01*
X1616811Y2483916D01*
X1620723Y2483154D01*
X1623974Y2480970D01*
X1653946Y2450998D01*
X1672742Y2469794D01*
X1667052Y2475484D01*
X1662074Y2479446D01*
X1656842Y2481986D01*
X1651203Y2483256D01*
X1645412Y2483256D01*
X1639773Y2481986D01*
X1637436Y2480818D01*
X1633524Y2479852D01*
X1629511Y2480462D01*
X1626057Y2482596D01*
X1623720Y2485898D01*
X1622856Y2489809D01*
X1623618Y2493822D01*
X1625854Y2497175D01*
X1662836Y2534158D01*
X1666087Y2536342D01*
X1669999Y2537104D01*
X1673910Y2536342D01*
X1677162Y2534158D01*
X1712620Y2498699D01*
X1714804Y2495397D01*
X1715617Y2491536D01*
X1715617Y2451455D01*
X1714754Y2447340D01*
X1712366Y2443988D01*
X1708759Y2441803D01*
X1704644Y2441295D01*
X1684172Y2420823D01*
X1701038Y2403906D01*
X1703273Y2400604D01*
X1704035Y2396744D01*
X1703273Y2392832D01*
X1701038Y2389530D01*
X1696516Y2385009D01*
X1693367Y2382875D01*
G37*

%LPD*%
G36*
X2339086Y1875891D02*
G01*
X2335174Y1876653D01*
X2331872Y1878888D01*
X2038857Y2171903D01*
X2036673Y2175205D01*
X2035911Y2179066D01*
X2035911Y2386939D01*
X2036673Y2390800D01*
X2038857Y2394102D01*
X2042160Y2396337D01*
X2046071Y2397099D01*
X2059381Y2397099D01*
X2059381Y2430119D01*
X2046071Y2430119D01*
X2042160Y2430932D01*
X2038857Y2433116D01*
X2036673Y2436418D01*
X2035911Y2440279D01*
X2035911Y2459685D01*
X2036673Y2463596D01*
X2038857Y2466848D01*
X2042160Y2469083D01*
X2046071Y2469845D01*
X2059381Y2469845D01*
X2060143Y2473706D01*
X2062378Y2477008D01*
X2065680Y2479243D01*
X2069541Y2480005D01*
X2101443Y2480005D01*
X2105304Y2479243D01*
X2108606Y2477008D01*
X2110790Y2473706D01*
X2111603Y2469845D01*
X2118918Y2469845D01*
X2122830Y2469083D01*
X2126132Y2466848D01*
X2128316Y2463596D01*
X2129078Y2459685D01*
X2129078Y2440279D01*
X2128316Y2436418D01*
X2126132Y2433116D01*
X2122830Y2430932D01*
X2118918Y2430119D01*
X2111603Y2430119D01*
X2111603Y2397099D01*
X2124405Y2397099D01*
X2130755Y2397810D01*
X2136648Y2399842D01*
X2140000Y2400452D01*
X2143353Y2399842D01*
X2149246Y2397810D01*
X2155545Y2397099D01*
X2233422Y2397099D01*
X2239772Y2397810D01*
X2245207Y2399690D01*
X2250135Y2402789D01*
X2254199Y2406904D01*
X2256028Y2409748D01*
X2259228Y2412949D01*
X2263444Y2414473D01*
X2267356Y2414879D01*
X2274519Y2417216D01*
X2281123Y2421026D01*
X2285695Y2424887D01*
X2304999Y2444242D01*
X2310079Y2450490D01*
X2313482Y2457145D01*
X2315464Y2464511D01*
X2315921Y2470404D01*
X2315870Y2519832D01*
X2316632Y2523693D01*
X2318867Y2526995D01*
X2322118Y2529230D01*
X2326030Y2529992D01*
X2393950Y2529992D01*
X2397810Y2529230D01*
X2401112Y2526995D01*
X2403297Y2523744D01*
X2404110Y2519832D01*
X2404110Y2320544D01*
X2404922Y2312517D01*
X2407259Y2305405D01*
X2411069Y2298801D01*
X2414879Y2294331D01*
X2528366Y2180844D01*
X2530551Y2177542D01*
X2531364Y2173630D01*
X2531364Y2131364D01*
X2573629Y2131364D01*
X2577541Y2130552D01*
X2580843Y2128367D01*
X2694228Y2014982D01*
X2700477Y2009952D01*
X2707132Y2006549D01*
X2714498Y2004568D01*
X2720390Y2004110D01*
X3282746Y2004110D01*
X3290722Y2004923D01*
X3297834Y2007260D01*
X3304438Y2011070D01*
X3308959Y2014880D01*
X3473602Y2179523D01*
X3476904Y2181758D01*
X3480765Y2182520D01*
X3506419Y2182520D01*
X3512769Y2183231D01*
X3517950Y2185060D01*
X3521710Y2185619D01*
X3525367Y2184806D01*
X3528517Y2182672D01*
X3531362Y2179777D01*
X3536289Y2176729D01*
X3541725Y2174798D01*
X3548075Y2174087D01*
X3671925Y2174087D01*
X3678224Y2174798D01*
X3683711Y2176729D01*
X3688587Y2179777D01*
X3692702Y2183892D01*
X3695801Y2188768D01*
X3697681Y2194255D01*
X3698392Y2200554D01*
X3698392Y2221941D01*
X3699256Y2226005D01*
X3701643Y2229408D01*
X3741470Y2266391D01*
X3744671Y2268372D01*
X3748379Y2269083D01*
X3790797Y2269083D01*
X3795064Y2268169D01*
X3798519Y2265578D01*
X3800601Y2261768D01*
X3800856Y2257399D01*
X3799332Y2253386D01*
X3796436Y2248966D01*
X3792423Y2239772D01*
X3789934Y2230018D01*
X3789121Y2219960D01*
X3789934Y2209952D01*
X3792423Y2200198D01*
X3796436Y2191004D01*
X3801922Y2182571D01*
X3808729Y2175205D01*
X3816705Y2169007D01*
X3825544Y2164232D01*
X3835044Y2160981D01*
X3837127Y2160625D01*
X3841242Y2158949D01*
X3844239Y2155748D01*
X3845560Y2151532D01*
X3845001Y2147163D01*
X3842613Y2143404D01*
X3578098Y1878888D01*
X3574796Y1876653D01*
X3570935Y1875891D01*
X2537663Y1875891D01*
X2533243Y1876907D01*
X2529738Y1879701D01*
X2525064Y1876653D01*
X2521204Y1875891D01*
X2378811Y1875891D01*
X2374900Y1876653D01*
X2370277Y1879701D01*
X2366721Y1876907D01*
X2362352Y1875891D01*
G37*

%LPC*%
G36*
X2531364Y1893722D02*
G01*
X2533091Y1895144D01*
X2536647Y1896922D01*
X2551887Y1906625D01*
X2566111Y1917852D01*
X2579065Y1930501D01*
X2590698Y1944420D01*
X2600807Y1959457D01*
X2605684Y1968652D01*
X2531364Y1968652D01*
G37*
G36*
X2368651Y1893722D02*
G01*
X2368651Y1968652D01*
X2294280Y1968652D01*
X2299208Y1959457D01*
X2309317Y1944420D01*
X2320899Y1930501D01*
X2333853Y1917852D01*
X2348077Y1906625D01*
X2363368Y1896922D01*
X2366873Y1895144D01*
G37*
G36*
X2294128Y2131364D02*
G01*
X2368651Y2131364D01*
X2368651Y2205786D01*
X2355596Y2198420D01*
X2340813Y2187905D01*
X2327249Y2175967D01*
X2314905Y2162657D01*
X2304084Y2148179D01*
X2294737Y2132685D01*
G37*

%LPD*%
G36*
X1679092Y1795881D02*
G01*
X1675180Y1796694D01*
X1671878Y1798878D01*
X1528876Y1941880D01*
X1526692Y1945182D01*
X1525879Y1949094D01*
X1525879Y2038096D01*
X1526489Y2041448D01*
X1528114Y2044395D01*
X1530654Y2046681D01*
X1533093Y2048205D01*
X1537208Y2052320D01*
X1540306Y2057196D01*
X1542186Y2062683D01*
X1542897Y2068982D01*
X1542897Y2124405D01*
X1542186Y2130755D01*
X1540154Y2136648D01*
X1539544Y2140000D01*
X1540154Y2143353D01*
X1542186Y2149246D01*
X1542897Y2155545D01*
X1542897Y2210968D01*
X1542186Y2217318D01*
X1540306Y2222754D01*
X1537208Y2227681D01*
X1533093Y2231745D01*
X1529029Y2235098D01*
X1527352Y2238400D01*
X1526997Y2242058D01*
X1527962Y2245614D01*
X1530146Y2248611D01*
X1545234Y2262936D01*
X1548079Y2264867D01*
X1551432Y2265680D01*
X1554886Y2265375D01*
X1559153Y2264206D01*
X1561592Y2263190D01*
X1563674Y2261616D01*
X1599234Y2226056D01*
X1605229Y2221179D01*
X1611630Y2217928D01*
X1618691Y2216048D01*
X1624330Y2215591D01*
X1647952Y2215591D01*
X1652066Y2214676D01*
X1655521Y2212187D01*
X1657604Y2208530D01*
X1658010Y2204313D01*
X1656689Y2200249D01*
X1653793Y2197150D01*
X1640839Y2187905D01*
X1627225Y2175967D01*
X1614932Y2162657D01*
X1604060Y2148179D01*
X1594713Y2132685D01*
X1594104Y2131364D01*
X1668627Y2131364D01*
X1668627Y2206345D01*
X1669542Y2210511D01*
X1672082Y2213965D01*
X1675739Y2216048D01*
X1684020Y2218639D01*
X1690319Y2222246D01*
X1694586Y2225954D01*
X1814322Y2345690D01*
X1818233Y2349042D01*
X1820722Y2350719D01*
X1828596Y2358593D01*
X1831898Y2360828D01*
X1835810Y2361590D01*
X1860143Y2361590D01*
X1860143Y2368905D01*
X1860905Y2372817D01*
X1863140Y2376119D01*
X1866442Y2378303D01*
X1870303Y2379065D01*
X1889709Y2379065D01*
X1893570Y2378303D01*
X1896872Y2376119D01*
X1899056Y2372817D01*
X1899869Y2368905D01*
X1899869Y2361590D01*
X1913991Y2361590D01*
X1917852Y2360828D01*
X1921154Y2358593D01*
X1923389Y2355342D01*
X1924151Y2351430D01*
X1924151Y2319528D01*
X1923338Y2315667D01*
X1921154Y2312365D01*
X1917852Y2310180D01*
X1913991Y2309368D01*
X1899869Y2309368D01*
X1899869Y2270099D01*
X1906422Y2270099D01*
X1912823Y2270810D01*
X1917039Y2270404D01*
X1920748Y2268270D01*
X1923237Y2264867D01*
X1924100Y2260701D01*
X1924100Y2140559D01*
X1924304Y2138578D01*
X1923948Y2134666D01*
X1921510Y2130653D01*
X1924507Y2128977D01*
X1926742Y2126284D01*
X1931060Y2118817D01*
X1934870Y2114346D01*
X2235962Y1813255D01*
X2238146Y1809953D01*
X2238959Y1806041D01*
X2238146Y1802180D01*
X2235962Y1798878D01*
X2232660Y1796694D01*
X2228799Y1795881D01*
G37*

%LPC*%
G36*
X1831339Y1894281D02*
G01*
X1836623Y1896922D01*
X1851914Y1906625D01*
X1866138Y1917852D01*
X1879092Y1930501D01*
X1890674Y1944420D01*
X1900783Y1959457D01*
X1905711Y1968652D01*
X1831339Y1968652D01*
G37*
G36*
X1668627Y1894281D02*
G01*
X1668627Y1968652D01*
X1594307Y1968652D01*
X1599184Y1959457D01*
X1609293Y1944420D01*
X1620926Y1930501D01*
X1633880Y1917852D01*
X1648104Y1906625D01*
X1663344Y1896922D01*
G37*
G36*
X1831339Y2131364D02*
G01*
X1906320Y2131364D01*
X1905457Y2132279D01*
X1895906Y2148179D01*
X1885086Y2162657D01*
X1872742Y2175967D01*
X1859178Y2187905D01*
X1844395Y2198420D01*
X1831339Y2205786D01*
G37*
G36*
X1853590Y2270099D02*
G01*
X1860143Y2270099D01*
X1860143Y2309368D01*
X1827072Y2309368D01*
X1827072Y2296566D01*
X1827784Y2290216D01*
X1829714Y2284780D01*
X1832813Y2279853D01*
X1836877Y2275789D01*
X1841804Y2272690D01*
X1847240Y2270810D01*
G37*

%LPD*%
G36*
X1729993Y3649979D02*
G01*
X1729993Y3539998D01*
X1779981Y3539998D01*
X1834997Y3595014D01*
X1874977Y3595014D01*
X1874977Y3529990D01*
X1865020Y3519982D01*
X1865020Y3334969D01*
X1769973Y3239973D01*
X1769973Y3220008D01*
X1899970Y3220008D01*
X1979980Y3139998D01*
X2010003Y3169970D01*
X1929993Y3249980D01*
X1929993Y3379978D01*
X1919986Y3389985D01*
X1919986Y3649979D01*
G37*
D10*
X1037501Y3389985D02*
G01*
X1169997Y3389993D01*
X1037501Y2909976D02*
G01*
X1169997Y2909994D01*
D11*
X1824992Y3029986D02*
G01*
X1669996Y3029993D01*
X1629996Y2989994D01*
D12*
X1037501Y3224987D02*
G01*
X1185003Y3224987D01*
X1229997Y3179993D01*
X1476715Y3179993D01*
X1894992Y3615494D02*
G01*
X1895505Y3614978D01*
X1999995Y3614978D01*
D10*
X3929992Y2534993D02*
G01*
X3933276Y2531709D01*
X3933276Y2435006D01*
D11*
X2194559Y2450084D02*
G01*
X2259995Y2449995D01*
X2279995Y2469995D01*
X2279904Y2614929D01*
X1879986Y2444495D02*
G01*
X1919996Y2479995D01*
X1919986Y2614929D01*
X4089996Y1984984D02*
G01*
X4749990Y1984984D01*
X3924993Y1984994D02*
G01*
X4089996Y1984984D01*
D12*
X2369995Y3009993D02*
G01*
X2370000Y3139439D01*
X2349995Y3159993D01*
X2009995Y3159993D01*
D11*
X4749990Y1815012D02*
G01*
X4089996Y1815012D01*
X2534998Y2949978D02*
G01*
X2660009Y2949978D01*
X2719994Y2889994D01*
X2719994Y2709994D01*
X2759994Y2669994D01*
X2966720Y2670004D01*
X3049981Y2527503D02*
G01*
X3053283Y2530805D01*
X3053283Y2670004D01*
X3050001Y2527498D02*
G01*
X3052996Y2524503D01*
X3209983Y2524505D01*
X2829986Y2352492D02*
G01*
X2825485Y2347991D01*
X2825495Y2209995D01*
D10*
X2829991Y2527503D02*
G01*
X3049981Y2352497D01*
X3049981Y2352497D02*
G01*
X3179993Y2249995D01*
D11*
X2534996Y2869996D02*
G01*
X2279980Y2869996D01*
X2179980Y2969996D01*
D12*
X1476715Y3079993D02*
G01*
X1399997Y3079993D01*
X1339997Y3129993D01*
X1209997Y3129993D01*
X1164991Y3175000D01*
X1037501Y3175000D01*
D11*
X2389995Y2989994D02*
G01*
X2369995Y3009993D01*
X2534920Y2990087D02*
G01*
X2389995Y2989994D01*
X2279904Y2614929D02*
G01*
X2279995Y2759994D01*
X2279995Y2759994D02*
G01*
X2259959Y2780029D01*
D10*
X1419999Y3714501D02*
G01*
X1414520Y3719982D01*
X1319987Y3719982D01*
D11*
X1824992Y2989983D02*
G01*
X1629996Y2989994D01*
X1569996Y2929994D01*
X1454505Y2929994D01*
X1824989Y2949955D02*
G01*
X1649984Y2949955D01*
X1509996Y2809994D01*
X1454404Y2810002D01*
D13*
X1411074Y2604264D02*
G01*
X1369997Y2645341D01*
X1369997Y2669994D01*
X1400022Y2700020D01*
X1375727Y2568917D02*
G01*
X1329997Y2614648D01*
X1329997Y2689994D01*
X1379997Y2739994D01*
X1389997Y2739994D01*
X1659630Y2426436D02*
G01*
X1669996Y2436802D01*
X1669996Y2499995D01*
D11*
X1989988Y2780004D02*
G01*
X1989988Y2799991D01*
X1990092Y2800095D01*
X2279995Y3179993D02*
G01*
X2259995Y3159993D01*
X2246576Y3159993D01*
X1824989Y2990087D02*
G01*
X1969996Y2989994D01*
X1986135Y3006133D01*
X1990034Y3006133D01*
X1824989Y3029965D02*
G01*
X1969996Y3029993D01*
X1986135Y3013854D01*
X1986135Y3006133D01*
X1969996Y3029993D02*
G01*
X1990018Y3050016D01*
X1990018Y3055660D01*
X1969996Y2989994D02*
G01*
X1990044Y2969945D01*
X1990044Y2966445D01*
X1824992Y2949978D02*
G01*
X1910011Y2949978D01*
X1929996Y2929994D01*
X2534998Y3029988D02*
G01*
X2450000Y3029988D01*
X2429995Y3049993D01*
X2534998Y2909999D02*
G01*
X2639989Y2909999D01*
X2679994Y2869994D01*
X2679994Y2389995D01*
X2717497Y2352492D01*
X2829986Y2352492D01*
X1919988Y2614978D02*
G01*
X1919988Y2710004D01*
X1989988Y2780004D01*
X1990013Y2780029D01*
X2009899Y2780029D01*
D13*
X1669414Y2910078D02*
G01*
X1539996Y2779994D01*
X1539996Y2759994D01*
X1519996Y2739994D01*
X1389997Y2739994D01*
X1824989Y2910078D02*
G01*
X1669996Y2909994D01*
X1400047Y2700020D02*
G01*
X1539996Y2699994D01*
X1579996Y2739994D01*
X1579996Y2759994D01*
X1689996Y2869994D01*
X1824989Y2870200D01*
X1446529Y2639568D02*
G01*
X1539494Y2639568D01*
X1620012Y2720086D01*
X1619996Y2739994D01*
X1709996Y2829994D01*
X1824989Y2830068D01*
X1824989Y2789936D02*
G01*
X1729994Y2789936D01*
X1659889Y2720086D01*
X1659996Y2579994D01*
X1569973Y2489962D01*
X1569973Y2450084D01*
X1624329Y2395728D01*
X1624329Y2391155D01*
X1824992Y2749979D02*
G01*
X1749996Y2749994D01*
X1699996Y2699994D01*
D11*
X1824992Y3189980D02*
G01*
X1749996Y3189993D01*
X1699996Y3239993D01*
X1699996Y3315484D01*
X1824992Y3189983D02*
G01*
X1939450Y3189983D01*
X1989993Y3139439D01*
D12*
X1037501Y3124987D02*
G01*
X945116Y3124987D01*
X909998Y3160105D01*
X1037501Y3224987D02*
G01*
X945527Y3224987D01*
X909998Y3189457D01*
X909998Y3189457D02*
G01*
X909998Y3160105D01*
D11*
X1037501Y2974975D02*
G01*
X834979Y2974975D01*
X776716Y2916712D01*
X776716Y2579994D01*
X1037501Y3274974D02*
G01*
X835017Y3274974D01*
X776716Y3333275D01*
X776716Y3719992D01*
X1563278Y3179993D02*
G01*
X1629996Y3179993D01*
X1699991Y3109998D01*
X1824992Y3109998D01*
X1824992Y3149980D02*
G01*
X1729991Y3149993D01*
X1629996Y3249993D01*
X1629996Y3309995D01*
X1609999Y3329993D01*
X1534505Y3329993D01*
D12*
X1037501Y3075000D02*
G01*
X1165004Y3075000D01*
X1209997Y3119993D01*
X1209997Y3129993D01*
D11*
X1824989Y3070097D02*
G01*
X1679996Y3069993D01*
X1669996Y3079993D01*
X1563370Y3080004D01*
D13*
X1699996Y2699994D02*
G01*
X1699996Y2559994D01*
X1749996Y2509994D01*
X1750060Y2389886D01*
X1670050Y2309876D01*
X1640078Y2309876D01*
X1594357Y2355850D01*
X1589023Y2355850D01*
D11*
X1279997Y2469992D02*
G01*
X1279997Y2539994D01*
X1239997Y2579992D01*
X1164506Y2579992D01*
X1340363Y2533553D02*
G01*
X1279997Y2469995D01*
X1503189Y2272179D02*
G01*
X1489997Y2258987D01*
X1489997Y2183277D01*
X1329392Y2370599D02*
G01*
X1279997Y2419995D01*
X1280601Y2469390D01*
X1553555Y2320361D02*
G01*
X1489997Y2259995D01*
X1439997Y2259995D01*
X1390601Y2309390D01*
X1824992Y3149978D02*
G01*
X1889996Y3149993D01*
X1929996Y3109993D01*
X1929996Y3109993D01*
D13*
X1553555Y2320361D02*
G01*
X1623921Y2249995D01*
X1669996Y2249995D01*
X1789996Y2369995D01*
X1789996Y2529994D01*
X1739996Y2579994D01*
X1739996Y2679994D01*
X1769996Y2709994D01*
X1824992Y2709999D01*
D10*
X3809987Y2330002D02*
G01*
X3849979Y2290010D01*
X3849979Y2219985D01*
D12*
X3824993Y3464994D02*
G01*
X3824983Y3363267D01*
X3824993Y3464994D02*
G01*
X3969981Y3464999D01*
X3479982Y2323269D02*
G01*
X3479993Y2419995D01*
X3609982Y2425001D02*
G01*
X3604976Y2419995D01*
X3479993Y2419995D01*
X2009998Y3159993D02*
G01*
X1989993Y3139439D01*
X1989988Y3139988D01*
X1989988Y2780004D01*
X2259995Y2779994D01*
D11*
X3479982Y2236706D02*
G01*
X3283272Y2039995D01*
X2719994Y2039995D01*
X2440000Y2319990D01*
X2440000Y2614980D01*
X3610102Y2234945D02*
G01*
X3480054Y2236723D01*
X2534996Y3029991D02*
G01*
X2699992Y3029991D01*
X2729994Y3059993D01*
X2795478Y3060001D01*
X3824980Y3276600D02*
G01*
X3459993Y3279899D01*
X3189993Y3549992D01*
X2859994Y3549992D01*
X2859989Y3549980D01*
X3970020Y3275076D02*
G01*
X3824986Y3276600D01*
X2535001Y3229990D02*
G01*
X2599989Y3229990D01*
X2619994Y3249990D01*
X2619994Y3479987D01*
X2689986Y3549980D01*
X3824986Y3606800D02*
G01*
X3970020Y3605021D01*
X2534996Y3189986D02*
G01*
X2619987Y3189986D01*
X2659994Y3229993D01*
X2659994Y3439993D01*
X2826705Y3606703D01*
X3824983Y3606703D01*
D12*
X3824993Y3794993D02*
G01*
X3824983Y3693266D01*
D10*
X3809987Y2330002D02*
G01*
X3846702Y2366718D01*
X3846702Y2434996D01*
D12*
X3824993Y3794993D02*
G01*
X3969981Y3794998D01*
D10*
X4169981Y3370003D02*
G01*
X4211695Y3411717D01*
X4320001Y3411717D01*
X4169981Y3700002D02*
G01*
X4218244Y3748265D01*
X4319981Y3748265D01*
D12*
X2729984Y3313267D02*
G01*
X2729994Y3409993D01*
D11*
X3075490Y3229983D02*
G01*
X3069993Y3235479D01*
X3069993Y3329993D01*
X2943283Y3229983D02*
G01*
X3075490Y3229983D01*
X2729984Y3226704D02*
G01*
X2733263Y3229983D01*
X2856720Y3229983D01*
X2534996Y3149980D02*
G01*
X2639982Y3149980D01*
X2716705Y3226704D01*
X2729984Y3226704D01*
X2534996Y3110001D02*
G01*
X2659994Y3109993D01*
X2709994Y3159993D01*
X4217001Y3159993D01*
X4489991Y2887004D01*
X2534996Y2989986D02*
G01*
X2680002Y2989986D01*
X2720002Y2949986D01*
X2795478Y2949986D01*
X2534996Y3069996D02*
G01*
X2679997Y3069996D01*
X2729994Y3119993D01*
X4003001Y3119993D01*
X4235991Y2887004D01*
X2279995Y3319993D02*
G01*
X2279995Y3179993D01*
X2299995Y3159993D01*
X2325634Y3159993D01*
X2239502Y3489985D02*
G01*
X2239995Y3439993D01*
X2279995Y3399993D01*
X2279904Y3325113D01*
D10*
X4320001Y3498281D02*
G01*
X4320001Y3549982D01*
X4289991Y3579992D01*
X4204992Y3579992D02*
G01*
X4289991Y3579992D01*
X4204992Y3579992D02*
G01*
X4289991Y3579992D01*
X4319991Y3609992D01*
X4319981Y3661702D01*
X4319981Y3748265D02*
G01*
X4407242Y3748265D01*
X4492980Y3834003D01*
X4320001Y3411717D02*
G01*
X4407265Y3411717D01*
X4492980Y3326003D01*
X1538754Y3719992D02*
G01*
X1564995Y3746233D01*
X1564995Y3825367D01*
X1419997Y3714501D02*
G01*
X1425488Y3719992D01*
X1729996Y3719992D01*
X1754992Y3744988D01*
X1754992Y3825359D01*
D11*
X1489989Y2096719D02*
G01*
X1489989Y1930003D01*
X1659996Y1759996D01*
X3899992Y1759996D01*
X3955003Y1815007D01*
X4089984Y1815007D01*
X1960118Y2614929D02*
G01*
X1959996Y2139995D01*
X2299995Y1799996D01*
X3609992Y1799996D01*
X3959992Y2149995D01*
X4149991Y2149995D01*
X4489958Y2489962D01*
X4489958Y2632963D01*
X1999995Y2614929D02*
G01*
X1999995Y2159995D01*
X2319995Y1839996D01*
X3589992Y1839996D01*
X3939992Y2189995D01*
X4129991Y2189995D01*
X4329991Y2389995D01*
X4329991Y2419995D01*
X4240022Y2510028D01*
X4235958Y2632963D01*
D14*
G01*
X1754987Y3825367D03*
G01*
X1659991Y3825367D03*
G01*
X1564995Y3825367D03*
D15*
G01*
X1564995Y3594633D03*
G01*
X1754987Y3594633D03*
D16*
G01*
X4089984Y1815007D03*
G01*
X4750003Y1815007D03*
G01*
X4089984Y1444980D03*
G01*
X4750003Y1444980D03*
G01*
X4089984Y2355011D03*
G01*
X4750003Y2355011D03*
G01*
X4089984Y1984984D03*
G01*
X4750003Y1984984D03*
D17*
G01*
X1037513Y3469995D03*
G01*
X1037513Y3389985D03*
D18*
G01*
X1037513Y3324987D03*
G01*
X1037513Y3274974D03*
G01*
X1037513Y3224987D03*
G01*
X1037513Y3175000D03*
G01*
X1037513Y3124987D03*
G01*
X1037513Y3075000D03*
G01*
X1037513Y3024987D03*
G01*
X1037513Y2974975D03*
D17*
G01*
X1037513Y2909976D03*
G01*
X1037513Y2829991D03*
D19*
G01*
X2934500Y2209995D03*
G01*
X2825488Y2209995D03*
D20*
G01*
X3209993Y2415489D03*
D21*
G01*
X3210001Y2524505D03*
D19*
G01*
X3184499Y3229993D03*
G01*
X3075487Y3229993D03*
D22*
G01*
X1425491Y3329993D03*
G01*
X1534502Y3329993D03*
G01*
X1055491Y2579994D03*
G01*
X1164503Y2579994D03*
D19*
G01*
X2904500Y3059993D03*
G01*
X2795488Y3059993D03*
D22*
G01*
X1345491Y2809994D03*
G01*
X1454503Y2809994D03*
G01*
X1345491Y2929994D03*
G01*
X1454503Y2929994D03*
D19*
G01*
X1994501Y3489993D03*
G01*
X1885490Y3489993D03*
G01*
X2904500Y2949994D03*
G01*
X2795488Y2949994D03*
D22*
G01*
X2130491Y3489993D03*
G01*
X2239502Y3489993D03*
G01*
X2085489Y2449995D03*
G01*
X2194501Y2449995D03*
D20*
G01*
X1879996Y2335489D03*
D21*
G01*
X1880006Y2444495D03*
D20*
G01*
X1699996Y3424499D03*
D21*
G01*
X1699996Y3315487D03*
D20*
G01*
X1419997Y3605486D03*
D21*
G01*
X1419987Y3714495D03*
D20*
G01*
X1894997Y3724498D03*
D21*
G01*
X1894992Y3615486D03*
D23*
G01*
X1553550Y2320375D03*
D24*
G01*
X1588914Y2355738D03*
G01*
X1624261Y2391084D03*
D25*
G01*
X1659624Y2426449D03*
G01*
X1340369Y2533554D03*
D24*
G01*
X1375732Y2568919D03*
D23*
G01*
X1411079Y2604265D03*
G01*
X1446443Y2639630D03*
D26*
G01*
X1499993Y2480001D03*
D27*
G01*
X3969994Y3794988D03*
G01*
X3969994Y3604996D03*
G01*
X4169994Y3699992D03*
G01*
X3969994Y3464991D03*
G01*
X3969994Y3274999D03*
G01*
X4169994Y3369995D03*
G01*
X3610000Y2424988D03*
G01*
X3610000Y2234996D03*
G01*
X3810000Y2329992D03*
D28*
G01*
X863281Y3719992D03*
G01*
X776715Y3719992D03*
G01*
X863281Y2579994D03*
G01*
X776715Y2579994D03*
D29*
G01*
X1476714Y3079993D03*
G01*
X1563279Y3079993D03*
G01*
X1476714Y3179993D03*
G01*
X1563279Y3179993D03*
D28*
G01*
X2943277Y3229993D03*
G01*
X2856711Y3229993D03*
D30*
G01*
X1489997Y2183278D03*
D31*
G01*
X1489989Y2096719D03*
D28*
G01*
X3053276Y2669994D03*
G01*
X2966711Y2669994D03*
D30*
G01*
X4319991Y3661708D03*
D31*
G01*
X4319981Y3748278D03*
D30*
G01*
X3824993Y3606709D03*
D31*
G01*
X3824986Y3693287D03*
D30*
G01*
X4319991Y3498274D03*
D31*
G01*
X4319981Y3411702D03*
D30*
G01*
X3824993Y3276710D03*
D31*
G01*
X3824986Y3363264D03*
D30*
G01*
X2729994Y3226710D03*
D31*
G01*
X2729991Y3313277D03*
D32*
G01*
X1390603Y2309389D03*
G01*
X1329391Y2370601D03*
D28*
G01*
X3933275Y2434993D03*
G01*
X3846709Y2434993D03*
D30*
G01*
X3479993Y2236712D03*
D31*
G01*
X3480003Y2323287D03*
D33*
G01*
X1919986Y2614980D03*
G01*
X1959990Y2614980D03*
G01*
X1999995Y2614980D03*
G01*
X2040000Y2614980D03*
G01*
X2079980Y2614980D03*
G01*
X2119985Y2614980D03*
G01*
X2159990Y2614980D03*
G01*
X2199995Y2614980D03*
G01*
X2240000Y2614980D03*
G01*
X2279980Y2614980D03*
G01*
X2319985Y2614980D03*
G01*
X2359990Y2614980D03*
G01*
X2399995Y2614980D03*
G01*
X2440000Y2614980D03*
D34*
G01*
X2534996Y2710002D03*
G01*
X2534996Y2749981D03*
G01*
X2534996Y2789986D03*
G01*
X2534996Y2829991D03*
G01*
X2534996Y2869996D03*
G01*
X2534996Y2910001D03*
G01*
X2534996Y2949981D03*
G01*
X2534996Y2989986D03*
G01*
X2534996Y3029991D03*
G01*
X2534996Y3069996D03*
G01*
X2534996Y3110001D03*
G01*
X2534996Y3149980D03*
G01*
X2534996Y3189986D03*
G01*
X2534996Y3229990D03*
D33*
G01*
X2440000Y3325012D03*
G01*
X2399995Y3325012D03*
G01*
X2359990Y3325012D03*
G01*
X2319985Y3325012D03*
G01*
X2279980Y3325012D03*
G01*
X2240000Y3325012D03*
G01*
X2199995Y3325012D03*
G01*
X2159990Y3325012D03*
G01*
X2119985Y3325012D03*
G01*
X2079980Y3325012D03*
G01*
X2040000Y3325012D03*
G01*
X1999995Y3325012D03*
G01*
X1959990Y3325012D03*
G01*
X1919986Y3325012D03*
D34*
G01*
X1824989Y3229990D03*
G01*
X1824989Y3189986D03*
G01*
X1824989Y3149980D03*
G01*
X1824989Y3110001D03*
G01*
X1824989Y3069996D03*
G01*
X1824989Y3029991D03*
G01*
X1824989Y2989986D03*
G01*
X1824989Y2949981D03*
G01*
X1824989Y2910001D03*
G01*
X1824989Y2869996D03*
G01*
X1824989Y2829991D03*
G01*
X1824989Y2789986D03*
G01*
X1824989Y2749981D03*
G01*
X1824989Y2710002D03*
D35*
G01*
X2179980Y2969996D03*
D36*
G01*
X2829991Y2352497D03*
G01*
X3049981Y2352497D03*
G01*
X3049981Y2527503D03*
G01*
X2829991Y2527503D03*
D37*
G01*
X4747056Y3326104D03*
G01*
X4493056Y3326104D03*
G01*
X4747056Y3580104D03*
G01*
X4493056Y3580104D03*
G01*
X4747056Y3834104D03*
G01*
X4493056Y3834104D03*
D38*
G01*
X4743958Y2886963D03*
G01*
X4743958Y2632963D03*
D39*
G01*
X4489958Y2886963D03*
G01*
X4489958Y2632963D03*
G01*
X4235958Y2886963D03*
G01*
X4235958Y2632963D03*
D40*
G01*
X982522Y3582492D03*
G01*
X982522Y2717495D03*
D41*
G01*
X562508Y3582492D03*
G01*
X562508Y2717495D03*
D42*
G01*
X3599992Y1390014D03*
G01*
X3099993Y1390014D03*
D43*
G01*
X1750009Y2049983D03*
G01*
X1750009Y1549984D03*
G01*
X2450007Y2049983D03*
G01*
X2450007Y1549984D03*
D44*
G01*
X1170000Y3389985D03*
G01*
X1170000Y2910001D03*
G01*
X1319987Y3719982D03*
D45*
G01*
X1680006Y2499995D03*
G01*
X1929993Y2929991D03*
G01*
X2429992Y3049981D03*
G01*
X1929993Y3110001D03*
G01*
X2259990Y2969996D03*
G01*
X2180005Y3049981D03*
G01*
X2259990Y3049981D03*
G01*
X2099995Y2889986D03*
G01*
X2180005Y2889986D03*
G01*
X2259990Y2889986D03*
G01*
X2099995Y2969996D03*
G01*
X2099995Y3049981D03*
G01*
X2179980Y2969996D03*
G01*
X1280007Y2469997D03*
G01*
X1989988Y2780004D03*
G01*
X2799994Y2769996D03*
G01*
X2999993Y2769996D03*
G01*
X3099993Y2769996D03*
G01*
X2899994Y2769996D03*
G01*
X3219983Y2299995D03*
G01*
X3219983Y2199995D03*
G01*
X3119983Y2199995D03*
G01*
X2599994Y2480005D03*
G01*
X2599994Y2380005D03*
G01*
X2639999Y2280005D03*
G01*
X3250006Y2639999D03*
G01*
X3180003Y2710002D03*
G01*
X3299993Y2549982D03*
G01*
X1999995Y3614978D03*
G01*
X2729991Y3410000D03*
G01*
X3069996Y3329990D03*
G01*
X3924985Y1984984D03*
G01*
X2099995Y1859991D03*
G01*
X2099995Y2329992D03*
G01*
X4419981Y2169998D03*
G01*
X4359986Y2229993D03*
G01*
X4480001Y2229993D03*
G01*
X4480001Y2110003D03*
G01*
X4359986Y2110003D03*
G01*
X4480001Y1569999D03*
G01*
X4359986Y1569999D03*
G01*
X4419981Y1629994D03*
G01*
X4480001Y1689988D03*
G01*
X4359986Y1689988D03*
D44*
G01*
X4204995Y3580003D03*
D45*
G01*
X3824986Y3794988D03*
G01*
X3824986Y3464991D03*
G01*
X3299993Y2449982D03*
G01*
X3299993Y2349982D03*
G01*
X3019983Y2199995D03*
G01*
X2959988Y2119985D03*
G01*
X2869996Y2119985D03*
G01*
X2769997Y2119985D03*
G01*
X2699994Y2189987D03*
G01*
X2799994Y2859989D03*
D44*
G01*
X3929989Y2534996D03*
G01*
X3849979Y2219985D03*
D45*
G01*
X3219983Y1959990D03*
G01*
X3480003Y2419985D03*
G01*
X2689986Y3549980D03*
G01*
X2859989Y3549980D03*
G01*
X3739997Y3510000D03*
G01*
X3539997Y3510000D03*
G01*
X3519982Y3349980D03*
G01*
X3719982Y3349980D03*
G01*
X2949981Y3319983D03*
G01*
X3199993Y3319983D03*
G01*
X3159988Y3480003D03*
G01*
X2939999Y3480003D03*
G01*
X2799994Y3480003D03*
G01*
X3019983Y1959990D03*
G01*
X3510000Y2129993D03*
G01*
X3659987Y2129993D03*
G01*
X3589985Y1959990D03*
G01*
X3819982Y3029991D03*
G01*
X3819982Y2829991D03*
G01*
X3819982Y2629992D03*
G01*
X3389985Y3239998D03*
G01*
X3339998Y3510000D03*
G01*
X3010001Y2999994D03*
G01*
X3339998Y3880002D03*
G01*
X3159988Y3880002D03*
G01*
X2980004Y3880002D03*
G01*
X2799994Y3880002D03*
G01*
X2619984Y3880002D03*
G01*
X2440000Y3880002D03*
G01*
X2259990Y3880002D03*
G01*
X2080006Y3880002D03*
G01*
X1899996Y3880002D03*
G01*
X1359992Y3880002D03*
G01*
X4109999Y3810000D03*
G01*
X3759987Y2240000D03*
G01*
X2359990Y2489987D03*
G01*
X2519984Y2480005D03*
G01*
X3259988Y3010001D03*
G01*
X3359988Y2910001D03*
G01*
X3459988Y2810002D03*
G01*
X3569995Y2699994D03*
G01*
X3580002Y2549982D03*
G01*
X4029989Y2949981D03*
G01*
X4029989Y2759989D03*
G01*
X4029989Y2569997D03*
G01*
X2629992Y3634994D03*
G01*
X4239996Y2410002D03*
G01*
X2529992Y3429990D03*
G01*
X3710000Y3789984D03*
G01*
X3710000Y3699992D03*
G01*
X4319981Y3849979D03*
M02*
